<ttFont>
        <CharString name=".notdef">
          -1200 218 164 rmoveto
          -365 hlineto
          -22 0 -12 10 0 19 0 4 1 5 1 5 2 9 88 116 173 222 12 14 12 7 13 0 15 0 11 -7 5 -14 77 -216 38 -116 0 -14 rrcurveto
          -1 vlineto
          -6 -29 -16 -14 -27 0 rrcurveto
          -429 264 rmoveto
          -24 0 -13 9 0 18 0 3 39 183 77 363 6 27 17 13 29 0 14 0 10 -5 7 -11 81 -180 41 -97 0 -13 0 -8 -82 -98 -164 -188 -11 -11 -13 -5 -14 0 rrcurveto
          589 -421 rmoveto
          32 0 29 12 25 23 25 23 15 24 5 27 177 833 89 420 0 9 0 19 -6 18 -10 16 -15 23 -24 11 -32 0 rrcurveto
          -756 hlineto
          -30 0 -27 -11 -25 -22 -25 -22 -16 -26 -6 -31 -177 -833 -89 -419 0 -7 0 -18 6 -18 11 -16 15 -23 23 -12 30 0 rrcurveto
          770 421 rmoveto
          -12 0 -10 5 -9 11 -79 182 -40 97 0 13 0 7 81 97 162 188 13 11 13 5 12 0 24 0 13 -9 0 -19 0 -3 -39 -183 -77 -363 -5 -26 -18 -13 -29 0 rrcurveto
          -202 473 rmoveto
          -13 0 -9 6 -7 12 -77 218 -38 116 0 12 rrcurveto
          1 vlineto
          6 29 17 15 28 0 rrcurveto
          364 hlineto
          22 0 11 -10 0 -19 0 -5 -1 -5 -2 -6 -1 -7 -88 -115 -173 -224 -11 -12 -13 -6 -15 0 rrcurveto
          endchar
        </CharString>
        <CharString name="A">
          0 840 1127 rmoveto
          18 0 10 -9 2 -18 rrcurveto
          51 -539 rlineto
          1 -5 -1 -4 0 -3 -2 -9 -5 -9 -9 -7 -8 -8 -10 -4 -12 0 rrcurveto
          -332 hlineto
          -12 0 -9 4 -5 8 -5 7 -1 9 2 9 1 4 1 4 2 4 rrcurveto
          281 539 rlineto
          10 18 14 9 18 0 rrcurveto
          -400 -794 rmoveto
          462 hlineto
          22 0 12 -11 3 -21 rrcurveto
          28 -266 rlineto
          3 -20 8 -16 13 -11 14 -12 17 -6 21 0 26 0 23 9 22 19 22 19 13 21 5 24 2 9 1 10 -1 9 rrcurveto
          -120 1220 rlineto
          -4 36 -14 29 -24 22 -25 22 -30 11 -35 0 -35 0 -35 -11 -33 -22 -34 -22 -27 -29 -20 -36 rrcurveto
          -638 -1220 rlineto
          -5 -9 -3 -10 -2 -9 -5 -24 4 -21 14 -19 14 -19 20 -9 26 0 20 0 20 6 18 12 19 11 15 16 10 20 rrcurveto
          142 266 rlineto
          12 21 17 11 22 0 rrcurveto
          endchar
        </CharString>
        <CharString name="B">
          0 637 hmoveto
          239 0 236 189 50 234 25 117 -27 98 -94 63 -5 3 -22 11 3 15 3 15 24 11 9 7 88 64 46 79 27 128 37 170 -124 196 -218 0 rrcurveto
          -353 hlineto
          -52 0 -51 -43 -11 -51 rrcurveto
          -257 -1212 rlineto
          -11 -52 33 -42 52 0 rrcurveto
          527 814 rmoveto
          -225 hlineto
          -24 0 -14 18 5 24 rrcurveto
          68 321 rlineto
          5 24 23 18 23 0 rrcurveto
          225 hlineto
          110 0 76 -77 -23 -109 -23 -108 -120 -111 -106 0 rrcurveto
          -135 -634 rmoveto
          -224 hlineto
          -24 0 -15 19 5 24 rrcurveto
          78 368 rlineto
          5 24 23 18 24 0 rrcurveto
          226 1 rlineto
          152 -4 79 -100 -22 -106 -28 -131 -137 -113 -142 0 rrcurveto
          endchar
        </CharString>
        <CharString name="C">
          0 729 -30 rmoveto
          88 0 85 13 81 26 48 15 29 29 9 42 8 35 -5 26 -16 17 -10 11 -16 5 -21 0 -9 0 -9 -2 -8 -4 -50 -23 -69 -11 -90 0 -114 2 -83 49 -50 94 -49 95 -6 135 37 175 rrcurveto
          38 179 67 137 96 94 97 94 99 48 103 3 105 0 66 -8 27 -17 9 -5 8 -3 8 0 18 0 16 6 17 12 23 18 15 22 6 28 17 82 -95 41 -209 0 -168 0 -149 -66 -130 -133 rrcurveto
          -126 -133 -88 -180 -52 -227 -45 -210 13 -174 72 -138 74 -132 120 -67 168 0 rrcurveto
          endchar
        </CharString>
        <CharString name="D">
          0 483 180 rmoveto
          -32 hlineto
          -24 0 -14 19 5 24 rrcurveto
          202 954 rlineto
          5 24 23 18 24 0 154 0 130 -1 77 -97 68 -86 -28 -168 -46 -215 -71 -336 -159 -136 -314 0 rrcurveto
          -38 -180 rmoveto
          430 0 232 181 100 471 rrcurveto
          29 136 rlineto
          92 430 -155 182 -391 0 rrcurveto
          -201 hlineto
          -51 0 -52 -43 -10 -51 rrcurveto
          -258 -1212 rlineto
          -11 -52 33 -42 52 0 rrcurveto
          endchar
        </CharString>
        <CharString name="E">
          0 967 hmoveto
          50 0 49 40 11 50 10 49 -32 41 -49 0 rrcurveto
          -525 hlineto
          -24 0 -14 19 5 23 rrcurveto
          73 346 rlineto
          5 23 23 19 24 0 rrcurveto
          468 hlineto
          49 0 50 41 10 49 11 50 -32 40 -50 0 rrcurveto
          -468 hlineto
          -24 0 -15 19 5 24 rrcurveto
          74 344 rlineto
          5 24 22 19 24 0 rrcurveto
          525 hlineto
          49 0 50 41 10 49 11 50 -32 40 -50 0 rrcurveto
          -653 hlineto
          -52 0 -51 -42 -11 -51 rrcurveto
          -258 -1214 rlineto
          -11 -51 33 -42 52 0 rrcurveto
          endchar
        </CharString>
        <CharString name="F">
          0 304 -30 rmoveto
          49 0 50 41 10 49 rrcurveto
          108 508 rlineto
          5 23 23 19 24 0 rrcurveto
          460 hlineto
          49 0 50 41 10 49 11 50 -32 40 -50 0 rrcurveto
          -460 hlineto
          -24 0 -15 19 5 24 rrcurveto
          74 344 rlineto
          5 24 22 19 24 0 rrcurveto
          537 hlineto
          49 0 50 41 10 49 11 50 -32 40 -50 0 rrcurveto
          -665 hlineto
          -52 0 -51 -42 -11 -51 rrcurveto
          -265 -1247 rlineto
          -11 -49 33 -41 49 0 rrcurveto
          endchar
        </CharString>
        <CharString name="G">
          0 600 -30 rmoveto
          146 0 134 55 121 110 30 28 19 34 9 40 rrcurveto
          95 448 rlineto
          3 14 -2 11 -6 9 -6 9 -10 5 -12 0 rrcurveto
          -320 hlineto
          -21 0 -20 -8 -21 -14 -20 -15 -13 -21 -6 -26 -6 -31 4 -24 16 -17 15 -18 18 -9 21 0 rrcurveto
          150 hlineto
          27 0 10 -14 -6 -28 rrcurveto
          -51 -238 rlineto
          -5 -23 -12 -18 -20 -14 -65 -43 -68 -21 -70 0 -108 0 -70 42 -33 85 -32 84 -2 114 28 142 rrcurveto
          35 167 rlineto
          15 72 24 70 32 67 39 86 47 64 54 43 54 42 63 21 71 0 114 0 62 -69 9 -138 3 -43 24 -22 46 0 23 0 21 9 20 17 20 17 13 22 6 27 1 7 1 10 -1 13 rrcurveto
          -10 220 -108 110 -205 0 -126 0 -104 -33 -80 -66 -150 -122 -103 -183 -55 -243 rrcurveto
          -35 -165 rlineto
          -20 -106 -4 -104 14 -100 13 -100 35 -81 55 -63 55 -62 82 -32 109 0 rrcurveto
          endchar
        </CharString>
        <CharString name="H">
          0 944 -30 rmoveto
          49 0 50 41 10 49 rrcurveto
          272 1280 rlineto
          11 50 -32 40 -50 0 -49 0 -50 -40 -10 -50 rrcurveto
          -108 -507 rlineto
          -5 -24 -23 -19 -24 0 rrcurveto
          -434 hlineto
          -24 0 -14 19 5 24 rrcurveto
          107 507 rlineto
          11 50 -32 40 -50 0 -49 0 -49 -40 -11 -50 rrcurveto
          -272 -1280 rlineto
          -10 -49 32 -41 49 0 50 0 49 41 10 49 rrcurveto
          108 508 rlineto
          5 23 23 19 24 0 rrcurveto
          434 hlineto
          24 0 15 -19 -5 -23 rrcurveto
          -108 -508 rlineto
          -11 -49 32 -41 50 0 rrcurveto
          endchar
        </CharString>
        <CharString name="I">
          0 920 hmoveto
          49 0 50 41 10 49 11 49 -33 41 -49 0 rrcurveto
          -187 hlineto
          -24 0 -15 19 5 24 rrcurveto
          203 954 rlineto
          5 24 23 18 24 0 rrcurveto
          187 hlineto
          49 0 50 41 10 49 11 50 -32 41 -50 0 rrcurveto
          -640 hlineto
          -49 0 -49 -41 -11 -50 -10 -49 32 -41 49 0 rrcurveto
          187 hlineto
          24 0 15 -18 -5 -24 rrcurveto
          -203 -954 rlineto
          -5 -24 -23 -19 -24 0 rrcurveto
          -187 hlineto
          -49 0 -50 -41 -10 -49 -11 -49 32 -41 50 0 rrcurveto
          endchar
        </CharString>
        <CharString name="J">
          0 583 -30 rmoveto
          220 0 216 166 48 225 rrcurveto
          201 947 rlineto
          11 49 -34 43 -51 0 rrcurveto
          -403 hlineto
          -50 0 -49 -41 -11 -49 -10 -48 32 -43 49 0 rrcurveto
          276 hlineto
          24 0 14 -17 -6 -24 rrcurveto
          -173 -817 rlineto
          -12 -57 -32 -50 -49 -42 -69 -57 -57 -10 -84 0 -127 0 -65 68 -7 87 -4 38 -30 26 -41 0 -51 0 -49 -43 -11 -49 -14 -73 33 -59 45 -54 76 -97 100 -19 144 0 rrcurveto
          endchar
        </CharString>
        <CharString name="K">
          0 995 -30 rmoveto
          52 0 47 43 10 46 3 14 0 16 -5 14 rrcurveto
          -268 682 rlineto
          -3 7 0 6 1 7 2 10 5 9 9 9 rrcurveto
          426 451 rlineto
          15 17 12 19 4 19 9 46 -27 45 -52 0 -28 0 -29 -12 -21 -22 rrcurveto
          -519 -544 rlineto
          -12 -11 -12 -5 -12 0 -23 0 -18 16 6 27 rrcurveto
          98 461 rlineto
          11 50 -32 40 -50 0 -49 0 -50 -40 -10 -50 rrcurveto
          -273 -1281 rlineto
          -10 -48 32 -41 50 0 50 0 49 41 10 48 rrcurveto
          77 362 rlineto
          4 21 9 18 18 18 rrcurveto
          118 130 rlineto
          11 12 14 4 13 0 15 0 11 -7 6 -15 rrcurveto
          236 -586 rlineto
          10 -27 27 -19 33 0 rrcurveto
          endchar
        </CharString>
        <CharString name="L">
          0 982 hmoveto
          49 0 48 41 10 48 10 51 -28 40 -54 0 rrcurveto
          -462 hlineto
          -49 0 -29 39 11 50 rrcurveto
          227 1069 rlineto
          10 48 -25 44 -55 0 -54 0 -46 -41 -10 -49 rrcurveto
          -255 -1201 rlineto
          -17 -77 49 -62 77 0 rrcurveto
          endchar
        </CharString>
        <CharString name="M">
          0 962 -30 rmoveto
          48 0 51 41 10 50 rrcurveto
          268 1260 rlineto
          13 59 -40 50 -59 0 -43 0 -46 -26 -25 -40 rrcurveto
          -328 -550 rlineto
          -12 -20 -12 -15 -23 0 -23 0 -5 15 -3 20 rrcurveto
          -95 550 rlineto
          -7 40 -35 26 -44 0 -59 0 -59 -50 -12 -59 rrcurveto
          -268 -1260 rlineto
          -11 -50 32 -41 50 0 47 0 51 41 11 50 rrcurveto
          177 833 rlineto
          3 14 11 7 10 0 8 0 5 -4 2 -8 rrcurveto
          58 -348 rlineto
          8 -45 39 -25 46 0 47 0 51 28 26 42 rrcurveto
          206 348 rlineto
          5 8 8 4 8 0 11 0 8 -7 -3 -14 rrcurveto
          -177 -833 rlineto
          -10 -50 31 -41 50 0 rrcurveto
          endchar
        </CharString>
        <CharString name="N">
          0 934 -30 rmoveto
          60 0 60 49 13 61 rrcurveto
          268 1260 rlineto
          11 50 -32 40 -50 0 -50 0 -49 -40 -10 -50 rrcurveto
          -187 -880 rlineto
          -3 -14 -11 -7 -11 0 -7 0 -5 3 -2 9 rrcurveto
          -279 916 rlineto
          -11 37 -34 26 -41 0 -60 0 -60 -50 -13 -59 rrcurveto
          -268 -1260 rlineto
          -10 -50 31 -41 50 0 50 0 49 41 10 50 rrcurveto
          188 880 rlineto
          2 13 11 7 10 0 8 0 5 -2 3 -9 rrcurveto
          278 -916 rlineto
          12 -39 33 -25 41 0 rrcurveto
          endchar
        </CharString>
        <CharString name="O">
          0 594 -30 rmoveto
          393 0 157 427 64 303 65 303 22 427 -390 0 -390 0 -162 -428 -64 -302 -64 -301 -25 -429 394 0 rrcurveto
          38 180 rmoveto
          -232 0 19 316 50 234 50 235 116 315 231 0 231 0 -20 -322 -48 -228 -49 -227 -116 -323 -232 0 rrcurveto
          endchar
        </CharString>
        <CharString name="P">
          0 304 -30 rmoveto
          49 0 50 41 10 49 rrcurveto
          97 457 rlineto
          6 24 22 19 24 0 rrcurveto
          234 hlineto
          209 0 212 176 54 257 29 136 -20 82 -58 75 -59 76 -83 38 -105 0 rrcurveto
          -364 hlineto
          -51 0 -51 -43 -11 -51 rrcurveto
          -265 -1246 rlineto
          -10 -49 32 -41 49 0 rrcurveto
          531 770 rmoveto
          -235 hlineto
          -24 0 -14 19 5 24 rrcurveto
          84 394 rlineto
          5 24 22 18 24 0 rrcurveto
          235 hlineto
          110 0 76 -77 -32 -149 -20 -95 -32 -57 -48 -40 -49 -40 -52 -21 -55 0 rrcurveto
          endchar
        </CharString>
        <CharString name="Q">
          0 897 -421 rmoveto
          49 0 51 44 9 46 8 36 -16 36 -33 13 rrcurveto
          -360 142 rlineto
          -9 4 -10 2 -10 0 -50 0 -50 -44 -10 -46 -7 -36 16 -36 32 -13 rrcurveto
          360 -142 rlineto
          9 -4 11 -2 10 0 rrcurveto
          -303 391 rmoveto
          393 0 157 427 64 303 65 303 22 427 -390 0 -390 0 -162 -428 -64 -302 -64 -301 -25 -429 394 0 rrcurveto
          38 180 rmoveto
          -232 0 19 316 50 234 50 235 116 315 231 0 231 0 -20 -322 -48 -228 -49 -227 -116 -323 -232 0 rrcurveto
          endchar
        </CharString>
        <CharString name="R">
          0 961 -30 rmoveto
          52 0 48 44 10 47 3 13 0 17 -5 12 rrcurveto
          -188 441 rlineto
          -2 6 0 6 2 7 4 18 12 15 17 7 142 56 134 139 42 196 31 146 -22 70 -58 76 -58 76 -85 38 -105 0 rrcurveto
          -353 hlineto
          -52 0 -51 -43 -11 -51 rrcurveto
          -265 -1245 rlineto
          -11 -52 33 -39 51 0 48 0 49 41 11 50 rrcurveto
          99 466 rlineto
          5 24 24 19 24 0 rrcurveto
          108 hlineto
          15 0 11 -9 6 -13 rrcurveto
          216 -532 rlineto
          12 -27 25 -19 32 0 rrcurveto
          -163 780 rmoveto
          -224 hlineto
          -24 0 -15 19 5 24 rrcurveto
          82 384 rlineto
          5 24 22 18 24 0 rrcurveto
          225 hlineto
          110 0 77 -69 -33 -156 -33 -157 -115 -87 -106 0 rrcurveto
          endchar
        </CharString>
        <CharString name="S">
          0 604 -30 rmoveto
          82 0 72 15 63 28 63 28 60 43 58 58 57 57 38 71 18 85 30 140 -47 112 -124 86 -45 31 -64 31 -83 31 -147 54 -62 85 23 117 14 66 33 52 53 37 52 36 61 19 69 0 rrcurveto
          58 0 48 -12 40 -23 40 -23 23 -29 7 -37 7 -49 23 -24 40 0 51 0 32 29 12 59 2 9 1 10 0 11 -1 74 -31 61 -61 49 -60 49 -88 24 -114 0 -74 0 -70 -14 -66 -30 rrcurveto
          -65 -30 -59 -45 -53 -60 -52 -60 -37 -77 -20 -93 -39 -186 100 -139 239 -91 38 -14 38 -18 38 -21 91 -48 38 -60 -16 -74 -17 -82 -49 -61 -80 -39 -49 -23 -50 -12 -50 0 -106 3 -83 52 -61 101 rrcurveto
          -18 32 -23 16 -28 0 -26 0 -22 -9 -20 -19 -19 -19 -13 -24 -6 -28 -2 -12 -1 -11 3 -9 14 -61 43 -58 73 -55 72 -54 85 -28 99 0 rrcurveto
          endchar
        </CharString>
        <CharString name="T">
          0 594 -30 rmoveto
          49 0 50 41 10 49 rrcurveto
          237 1117 rlineto
          6 25 22 18 24 0 rrcurveto
          248 hlineto
          49 0 49 40 11 49 10 50 -32 41 -49 0 rrcurveto
          -761 hlineto
          -49 0 -49 -41 -11 -50 -10 -49 32 -40 49 0 rrcurveto
          248 hlineto
          28 0 10 -18 -5 -25 rrcurveto
          -237 -1117 rlineto
          -11 -49 32 -41 50 0 rrcurveto
          endchar
        </CharString>
        <CharString name="U">
          0 593 -30 rmoveto
          275 0 210 210 68 321 rrcurveto
          179 843 rlineto
          11 49 -32 41 -50 0 -49 0 -49 -41 -11 -49 rrcurveto
          -179 -843 rlineto
          -42 -198 -119 -148 -173 0 -172 0 -54 155 40 191 rrcurveto
          180 843 rlineto
          10 49 -32 41 -49 0 -50 0 -49 -41 -11 -49 rrcurveto
          -179 -843 rlineto
          -68 -321 120 -210 275 0 rrcurveto
          endchar
        </CharString>
        <CharString name="V">
          0 597 -13 rmoveto
          53 0 54 38 25 51 rrcurveto
          622 1257 rlineto
          4 9 2 6 1 7 10 48 -29 44 -51 0 -42 0 -42 -28 -18 -39 rrcurveto
          -482 -984 rlineto
          -3 -8 -11 -5 -9 0 -9 0 -6 5 0 8 rrcurveto
          -65 984 rlineto
          -3 39 -29 28 -40 0 -46 0 -53 -39 -11 -51 -2 -7 -1 -8 1 -9 rrcurveto
          76 -1257 rlineto
          3 -59 41 -30 60 0 rrcurveto
          endchar
        </CharString>
        <CharString name="W">
          0 900 -30 rmoveto
          58 0 59 46 14 58 rrcurveto
          338 1267 rlineto
          10 48 -34 41 -50 0 -48 0 -50 -39 -12 -49 rrcurveto
          -226 -868 rlineto
          -2 -11 -9 -8 -10 0 -7 0 -7 6 -1 8 rrcurveto
          -26 459 rlineto
          -4 41 -37 29 -44 0 -44 0 -48 -29 -21 -40 rrcurveto
          -225 -460 rlineto
          -4 -8 -8 -6 -8 0 -10 0 -4 7 2 12 rrcurveto
          142 868 rlineto
          8 49 -31 39 -49 0 -49 0 -52 -39 -10 -48 rrcurveto
          -202 -1269 rlineto
          -10 -58 40 -46 58 0 46 0 48 29 25 45 rrcurveto
          323 635 rlineto
          4 8 7 5 7 0 7 0 5 -5 1 -8 rrcurveto
          52 -633 rlineto
          5 -45 37 -31 46 0 rrcurveto
          endchar
        </CharString>
        <CharString name="X">
          0 955 -30 rmoveto
          53 0 48 46 10 48 3 15 0 15 -5 15 rrcurveto
          -200 583 rlineto
          -2 6 0 7 2 7 1 8 3 6 5 7 rrcurveto
          419 557 rlineto
          11 15 7 15 3 15 10 49 -28 46 -53 0 -34 0 -36 -19 -22 -31 rrcurveto
          -336 -459 rlineto
          -6 -8 -6 -3 -6 0 -6 0 -4 3 -3 8 rrcurveto
          -141 459 rlineto
          -10 33 -27 17 -36 0 -53 0 -48 -46 -10 -49 -3 -15 0 -15 5 -15 rrcurveto
          182 -557 rlineto
          2 -7 0 -6 -1 -8 -2 -7 -3 -7 -5 -6 rrcurveto
          -448 -583 rlineto
          -11 -15 -7 -16 -3 -15 -11 -50 31 -43 54 0 32 0 35 20 23 29 rrcurveto
          371 505 rlineto
          5 7 5 2 7 0 7 0 4 -2 2 -7 rrcurveto
          154 -505 rlineto
          10 -29 28 -20 34 0 rrcurveto
          endchar
        </CharString>
        <CharString name="Y">
          0 594 -30 rmoveto
          50 0 48 41 11 50 rrcurveto
          134 632 rlineto
          3 13 7 15 10 13 rrcurveto
          435 562 rlineto
          11 15 7 15 3 15 10 47 -28 42 -51 0 -32 0 -37 -16 -21 -28 rrcurveto
          -313 -405 rlineto
          -10 -14 -15 -6 -14 0 -15 0 -12 6 -4 14 rrcurveto
          -137 405 rlineto
          -10 30 -30 14 -33 0 -51 0 -47 -42 -9 -46 -4 -15 1 -16 6 -15 rrcurveto
          197 -564 rlineto
          5 -13 0 -15 -4 -17 rrcurveto
          -133 -626 rlineto
          -10 -50 33 -41 49 0 rrcurveto
          endchar
        </CharString>
        <CharString name="Z">
          0 940 hmoveto
          50 0 49 41 10 49 11 50 -32 40 -50 0 rrcurveto
          -482 hlineto
          -25 0 -13 21 5 23 1 7 4 8 5 7 rrcurveto
          792 944 rlineto
          18 22 10 24 5 25 17 77 -49 62 -77 0 rrcurveto
          -630 hlineto
          -48 0 -51 -41 -10 -49 -11 -50 34 -41 48 0 rrcurveto
          482 hlineto
          27 0 13 -19 -5 -23 -1 -7 -4 -8 -5 -6 rrcurveto
          -792 -944 rlineto
          -17 -21 -12 -25 -6 -25 -16 -77 50 -64 77 0 rrcurveto
          endchar
        </CharString>
        <CharString name="a">
          0 498 166 rmoveto
          -79 0 -40 46 0 93 0 30 4 35 9 41 21 93 36 82 49 69 49 69 52 55 55 40 55 39 51 20 47 0 57 0 39 -32 21 -65 7 -25 4 -25 0 -27 0 -20 -2 -20 -4 -21 rrcurveto
          -31 -144 -54 -115 -79 -86 -81 -86 -89 -44 -97 -2 rrcurveto
          493 -196 rmoveto
          81 0 59 20 36 40 9 10 4 11 0 13 0 11 -4 10 -7 10 -8 9 -10 5 -11 0 -9 0 -9 -2 -9 -4 -14 -7 -11 -3 -8 0 -30 0 -15 33 -1 65 0 75 10 83 18 90 rrcurveto
          47 222 49 187 51 151 2 8 1 6 0 5 0 13 -5 12 -10 9 -17 19 -21 10 -23 0 -51 0 -34 -24 -19 -48 -5 -13 -8 -7 -9 0 -8 0 -6 3 -4 7 -35 53 -47 28 -61 1 rrcurveto
          -88 0 -87 -32 -87 -65 -87 -65 -79 -82 -69 -101 -70 -101 -48 -112 -26 -121 -12 -56 -6 -50 0 -45 0 -69 14 -57 28 -45 47 -73 71 -36 97 0 73 0 75 21 75 41 75 41 53 41 31 41 rrcurveto
          7 9 7 5 9 0 12 0 7 -9 1 -19 3 -71 15 -47 26 -25 19 -19 25 -10 31 0 rrcurveto
          endchar
        </CharString>
        <CharString name="ampersand">
          0 789 415 rmoveto
          33 23 43 58 55 93 rrcurveto
          -222 277 rlineto
          -53 64 -26 60 0 56 0 12 1 13 3 12 10 48 23 40 35 32 35 31 43 16 51 0 39 0 32 -10 25 -19 24 -20 17 -27 9 -35 9 -35 23 -17 39 0 24 0 22 9 21 18 rrcurveto
          27 23 13 25 0 27 0 7 -1 9 -1 10 -13 71 -32 54 -51 36 -51 36 -66 18 -81 0 -92 0 -87 -31 -81 -63 -81 -63 -52 -85 -23 -107 -5 -23 -2 -22 0 -22 0 -87 36 -86 71 -86 rrcurveto
          -25 -785 rmoveto
          91 0 97 32 102 65 102 64 90 86 79 109 78 108 48 97 18 87 1 6 1 5 0 6 0 14 -4 13 -9 12 -12 17 -19 8 -27 0 -43 0 -33 -30 -25 -59 -53 -121 -70 -101 -85 -81 rrcurveto
          -101 -94 -95 -47 -89 0 -107 0 -53 46 0 92 0 20 3 22 5 25 17 81 31 73 44 66 -38 42 -34 43 -30 45 -84 -95 -57 -116 -29 -139 -8 -37 -4 -36 0 -33 0 -68 16 -60 33 -51 rrcurveto
          49 -77 84 -39 120 0 rrcurveto
          510 hmoveto
          25 0 23 9 21 19 28 24 14 32 0 38 0 31 -8 38 -16 47 -47 -65 -48 -51 -47 -38 -2 -9 0 -9 0 -8 0 -39 19 -19 38 0 rrcurveto
          endchar
        </CharString>
        <CharString name="ampersand_ampersand">
          0 729 415 rmoveto
          33 23 43 58 55 93 rrcurveto
          -222 277 rlineto
          -53 64 -26 60 0 56 0 12 1 13 3 12 10 48 23 40 35 32 35 31 43 16 51 0 39 0 32 -10 25 -19 24 -20 17 -27 9 -35 9 -35 23 -17 39 0 24 0 22 9 21 18 rrcurveto
          27 23 13 25 0 27 0 7 -1 9 -1 10 -13 71 -32 54 -51 36 -51 36 -66 18 -81 0 -92 0 -87 -31 -81 -63 -81 -63 -52 -85 -23 -107 -5 -23 -2 -22 0 -22 0 -87 36 -86 71 -86 rrcurveto
          -25 -785 rmoveto
          91 0 97 32 102 65 102 64 90 86 79 109 78 108 48 97 18 87 1 6 1 5 0 6 0 14 -4 13 -9 12 -12 17 -19 8 -27 0 -43 0 -33 -30 -25 -59 -53 -121 -70 -101 -85 -81 rrcurveto
          -101 -94 -95 -47 -89 0 -107 0 -53 46 0 92 0 20 3 22 5 25 17 81 31 73 44 66 -38 42 -34 43 -30 45 -84 -95 -57 -116 -29 -139 -8 -37 -4 -36 0 -33 0 -68 16 -60 33 -51 rrcurveto
          49 -77 84 -39 120 0 rrcurveto
          510 hmoveto
          25 0 23 9 21 19 28 24 14 32 0 38 0 31 -8 38 -16 47 -47 -65 -48 -51 -47 -38 -2 -9 0 -9 0 -8 0 -39 19 -19 38 0 rrcurveto
          -1308 445 rmoveto
          33 23 43 58 55 93 rrcurveto
          -222 277 rlineto
          -53 64 -26 60 0 56 0 12 1 13 3 12 10 48 23 40 35 32 35 31 43 16 51 0 39 0 32 -10 25 -19 24 -20 17 -27 9 -35 9 -35 23 -17 39 0 24 0 22 9 21 18 rrcurveto
          27 23 13 25 0 27 0 7 -1 9 -1 10 -13 71 -32 54 -51 36 -51 36 -66 18 -81 0 -92 0 -87 -31 -81 -63 -81 -63 -52 -85 -23 -107 -5 -23 -2 -22 0 -22 0 -87 36 -86 71 -86 rrcurveto
          -25 -785 rmoveto
          91 0 97 32 102 65 102 64 90 86 79 109 78 108 48 97 18 87 1 6 1 5 0 6 0 14 -4 13 -9 12 -12 17 -19 8 -27 0 -43 0 -33 -30 -25 -59 -53 -121 -70 -101 -85 -81 rrcurveto
          -101 -94 -95 -47 -89 0 -107 0 -53 46 0 92 0 20 3 22 5 25 17 81 31 73 44 66 -38 42 -34 43 -30 45 -84 -95 -57 -116 -29 -139 -8 -37 -4 -36 0 -33 0 -68 16 -60 33 -51 rrcurveto
          49 -77 84 -39 120 0 rrcurveto
          510 hmoveto
          25 0 23 9 21 19 28 24 14 32 0 38 0 31 -8 38 -16 47 -47 -65 -48 -51 -47 -38 -2 -9 0 -9 0 -8 0 -39 19 -19 38 0 rrcurveto
          endchar
        </CharString>
        <CharString name="asciicircum">
          0 1051 520 rmoveto
          14 0 15 4 14 7 32 16 27 31 6 32 1 7 2 8 0 7 0 8 -2 8 -4 8 rrcurveto
          -227 519 rlineto
          -15 30 -23 16 -30 0 -32 0 -31 -16 -28 -30 rrcurveto
          -448 -517 rlineto
          -13 -15 -6 -16 -3 -16 -1 -6 -1 -6 0 -6 0 -23 9 -22 19 -13 13 -10 16 -4 17 0 31 0 29 16 26 28 rrcurveto
          318 380 rlineto
          9 9 8 4 9 0 10 0 6 -4 5 -9 rrcurveto
          159 -378 rlineto
          14 -29 23 -18 32 0 rrcurveto
          endchar
        </CharString>
        <CharString name="asciitilde">
          0 880 432 rmoveto
          82 0 72 33 63 65 56 60 35 62 13 64 1 8 1 7 0 7 0 47 -22 23 -45 0 -44 0 -32 -27 -20 -53 -25 -72 -37 -36 -49 0 -25 0 -19 5 -11 10 -26 22 -26 34 -25 46 rrcurveto
          -49 87 -65 44 -81 0 -86 0 -75 -33 -64 -67 -54 -57 -34 -61 -14 -65 -2 -10 -1 -9 0 -9 0 -16 4 -13 7 -11 11 -17 18 -8 24 0 25 0 22 7 19 15 19 15 12 20 7 25 rrcurveto
          20 72 39 36 58 0 39 0 42 -40 46 -79 53 -87 66 -44 77 0 rrcurveto
          endchar
        </CharString>
        <CharString name="asciitilde_at">
          0 979 -30 rmoveto
          27 0 24 1 22 2 49 5 29 26 9 45 2 10 1 9 0 8 0 33 -19 16 -38 0 rrcurveto
          -54 -1 rlineto
          -45 0 -33 2 -21 5 -45 8 -23 46 0 84 0 38 5 45 9 53 19 94 14 74 10 54 10 53 5 39 0 24 0 50 -10 45 -22 40 -32 59 -57 30 -82 1 -175 -1 -142 -104 -109 -205 rrcurveto
          -46 -91 -33 -94 -21 -95 -15 -73 -8 -63 0 -53 0 -143 56 -71 111 0 134 2 78 54 23 107 1 6 1 6 0 6 0 10 -2 10 -5 8 -8 12 -12 6 -17 0 -12 0 -12 -5 -13 -11 rrcurveto
          -33 -29 -28 -15 -23 0 -45 0 -23 35 0 71 0 35 6 44 11 53 19 89 26 74 33 59 67 119 77 59 89 0 28 0 20 -11 12 -22 13 -22 6 -23 0 -25 0 -14 -17 -99 -33 -184 rrcurveto
          -13 -67 -7 -59 0 -50 0 -142 52 -75 103 -10 49 -5 44 -2 39 0 rrcurveto
          119 318 rmoveto
          59 0 36 25 13 49 27 103 21 89 15 74 24 115 12 101 0 89 0 123 -23 99 -47 73 -89 135 -126 67 -162 0 -205 -1 -190 -83 -173 -165 -117 -111 -95 -125 -73 -137 -67 -125 -79 -63 -90 0 rrcurveto
          -51 0 -32 5 -12 10 -26 22 -25 34 -25 46 -50 87 -66 44 -81 0 -86 0 -75 -33 -64 -67 -53 -57 -34 -61 -14 -65 -2 -10 -1 -9 0 -9 0 -16 4 -13 7 -11 11 -17 18 -8 24 0 rrcurveto
          25 0 22 7 19 15 19 15 12 20 7 25 20 72 39 36 58 0 39 0 43 -40 46 -79 53 -87 78 -44 104 0 89 0 77 26 66 52 78 59 62 72 47 85 73 137 82 110 91 82 rrcurveto
          77 65 69 46 61 25 61 25 67 13 72 0 214 -4 107 -127 0 -248 0 -52 -5 -56 -9 -62 -10 -54 -18 -92 -25 -129 -3 -18 -2 -16 0 -13 0 -47 19 -23 38 0 rrcurveto
          endchar
        </CharString>
        <CharString name="asterisk">
          0 617 81 rmoveto
          49 0 50 41 10 49 rrcurveto
          48 222 168 -111 rlineto
          12 -8 15 -3 15 0 50 0 50 41 10 48 rrcurveto
          2 18 rlineto
          0 25 -10 22 -21 13 rrcurveto
          -168 112 215 111 rlineto
          33 16 23 31 6 31 1 6 1 6 0 6 0 40 -29 31 -45 0 -15 0 -16 -3 -15 -8 rrcurveto
          -216 -111 47 222 rlineto
          1 6 1 7 0 6 0 40 -30 31 -43 0 -50 0 -48 -41 -11 -49 rrcurveto
          -47 -222 -169 111 rlineto
          -12 8 -15 3 -15 0 -49 0 -50 -41 -11 -48 rrcurveto
          -2 -18 rlineto
          0 -25 10 -22 20 -13 rrcurveto
          170 -111 -217 -111 rlineto
          -32 -17 -22 -31 -7 -31 rrcurveto
          -2 -17 rlineto
          0 -40 30 -32 44 0 15 0 16 3 15 8 rrcurveto
          217 111 -48 -222 rlineto
          -1 -6 -1 -6 0 -6 0 -41 29 -31 44 0 rrcurveto
          endchar
        </CharString>
        <CharString name="asterisk_slash">
          0 -2 -200 rmoveto
          33 0 39 21 21 33 rrcurveto
          1065 1623 rlineto
          8 11 5 14 3 12 1 6 1 6 0 6 0 26 -13 25 -25 12 -11 5 -12 3 -12 0 -34 0 -38 -21 -22 -32 rrcurveto
          -1065 -1623 rlineto
          -7 -12 -6 -13 -2 -11 rrcurveto
          -2 -17 rlineto
          0 -28 14 -26 24 -12 10 -5 13 -3 12 0 rrcurveto
          -623 81 rmoveto
          49 0 49 41 11 49 rrcurveto
          47 222 168 -111 rlineto
          13 -8 14 -3 15 0 51 0 49 41 10 48 1 6 1 7 0 6 0 24 -10 22 -20 13 rrcurveto
          -169 112 216 111 rlineto
          32 16 23 31 7 31 rrcurveto
          2 17 rlineto
          0 40 -30 32 -44 0 -15 0 -16 -3 -16 -8 rrcurveto
          -215 -111 47 222 2 18 rlineto
          0 41 -30 31 -43 0 -50 0 -49 -41 -10 -49 rrcurveto
          -47 -222 -170 111 rlineto
          -12 8 -14 3 -15 0 -50 0 -50 -41 -10 -48 -1 -6 -1 -7 0 -6 0 -24 10 -22 20 -13 rrcurveto
          169 -111 -216 -111 rlineto
          -33 -17 -22 -31 -7 -31 rrcurveto
          -2 -17 rlineto
          0 -40 31 -32 43 0 15 0 16 3 15 8 rrcurveto
          217 111 -47 -222 rlineto
          -1 -7 -1 -6 0 -6 0 -40 30 -31 43 0 rrcurveto
          endchar
        </CharString>
        <CharString name="at">
          0 979 -30 rmoveto
          27 0 24 1 22 2 49 5 29 26 9 45 2 10 1 8 0 8 0 33 -19 17 -39 0 rrcurveto
          -52 -1 rlineto
          -45 0 -34 2 -21 5 -45 8 -23 46 0 83 0 38 5 46 9 53 19 94 14 74 10 54 10 53 5 39 0 24 0 50 -10 45 -22 40 -32 59 -57 30 -82 1 -175 -1 -142 -104 -109 -205 rrcurveto
          -46 -91 -33 -94 -21 -95 -15 -73 -8 -63 0 -53 0 -143 56 -71 111 0 134 2 78 54 23 107 1 6 1 6 0 5 0 11 -3 9 -5 8 -7 13 -12 6 -17 0 -12 0 -13 -5 -13 -11 rrcurveto
          -33 -29 -27 -15 -23 0 -45 0 -23 35 0 71 0 35 6 44 11 53 19 89 26 74 33 59 67 119 77 59 89 0 28 0 20 -11 12 -22 13 -22 6 -23 0 -25 0 -14 -17 -99 -33 -184 rrcurveto
          -13 -67 -6 -58 0 -50 0 -142 51 -76 103 -10 49 -5 44 -2 39 0 rrcurveto
          119 318 rmoveto
          59 0 36 25 13 49 27 103 21 89 16 74 24 114 12 101 0 88 0 124 -24 99 -47 74 -89 135 -126 67 -162 0 -205 -1 -179 -85 -153 -167 -22 -25 -11 -31 0 -37 0 -20 5 -15 9 -12 rrcurveto
          15 -18 18 -9 21 0 25 0 22 9 19 17 64 59 60 47 56 35 55 35 64 17 71 0 213 -4 107 -127 0 -248 0 -51 -5 -57 -9 -62 -9 -54 -17 -92 -26 -129 -3 -18 -2 -16 0 -13 rrcurveto
          0 -47 19 -23 38 0 rrcurveto
          endchar
        </CharString>
        <CharString name="b">
          0 651 151 rmoveto
          -14 hlineto
          -54 0 -45 19 -36 39 -35 39 -18 44 0 49 0 20 2 21 5 23 rrcurveto
          45 213 rlineto
          13 61 38 59 63 57 57 49 62 24 67 0 85 0 55 -22 25 -45 24 -45 12 -49 0 -51 0 -45 -6 -52 -13 -60 -53 -228 -111 -116 -168 -4 rrcurveto
          -5 -181 rmoveto
          141 0 113 48 84 96 84 95 62 139 40 181 15 70 7 64 0 58 0 83 -15 71 -31 58 -53 98 -89 49 -125 0 -72 0 -77 -29 -82 -59 -15 -11 -14 -5 -11 0 -16 0 -9 8 0 15 rrcurveto
          0 4 16 75 31 146 32 149 16 78 0 8 0 17 -6 15 -10 12 -15 18 -18 9 -23 0 -23 0 -22 -9 -23 -17 -23 -18 -15 -23 -5 -27 -197 -925 -98 -466 0 -7 0 -16 5 -15 9 -11 rrcurveto
          13 -17 19 -9 25 0 49 0 36 30 21 61 8 23 10 12 12 0 7 0 7 -4 5 -7 63 -77 73 -38 84 0 rrcurveto
          endchar
        </CharString>
        <CharString name="backslash">
          0 917 -200 rmoveto
          12 0 14 3 12 5 36 15 29 34 7 34 rrcurveto
          2 18 -2 18 -375 1623 rlineto
          -8 32 -30 21 -33 0 -12 0 -14 -3 -13 -5 -35 -14 -28 -34 -7 -33 -1 -6 -1 -6 0 -7 0 -6 1 -6 1 -6 rrcurveto
          375 -1623 rlineto
          7 -33 30 -21 33 0 rrcurveto
          endchar
        </CharString>
        <CharString name="bar">
          0 551 -230 rmoveto
          48 0 51 42 10 48 rrcurveto
          357 1680 2 18 rlineto
          0 41 -30 31 -43 0 -48 0 -50 -41 -11 -49 rrcurveto
          -357 -1680 -2 -17 rlineto
          0 -41 31 -32 42 0 rrcurveto
          endchar
        </CharString>
        <CharString name="bar_bar">
          0 351 -230 rmoveto
          48 0 51 42 10 48 rrcurveto
          357 1680 2 18 rlineto
          0 41 -30 31 -43 0 -48 0 -50 -41 -11 -49 rrcurveto
          -357 -1680 -2 -17 rlineto
          0 -41 31 -32 42 0 rrcurveto
          -800 hmoveto
          48 0 51 42 10 48 rrcurveto
          357 1680 2 18 rlineto
          0 41 -30 31 -43 0 -48 0 -50 -41 -11 -49 rrcurveto
          -357 -1680 -2 -17 rlineto
          0 -41 31 -32 42 0 rrcurveto
          endchar
        </CharString>
        <CharString name="boxdrawingsdoubledownandhorizontal">
          0 1210 940 rmoveto
          -1220 -160 1220 hlineto
          -160 vmoveto
          -530 -1620 160 1460 370 hlineto
          -690 160 rmoveto
          -530 -160 370 -1460 160 hlineto
          endchar
        </CharString>
        <CharString name="boxdrawingsdoubledownandleft">
          0 840 940 rmoveto
          -850 -160 690 -1780 160 hlineto
          -320 1620 rmoveto
          -530 -160 370 -1460 160 hlineto
          endchar
        </CharString>
        <CharString name="boxdrawingsdoubledownandright">
          0 1210 940 rmoveto
          -850 -1940 160 1780 690 hlineto
          -160 vmoveto
          -530 -1620 160 1460 370 hlineto
          endchar
        </CharString>
        <CharString name="boxdrawingsdoublehorizontal">
          0 1210 940 rmoveto
          -1220 -160 1220 hlineto
          -160 vmoveto
          -1220 -160 1220 hlineto
          endchar
        </CharString>
        <CharString name="boxdrawingsdoubleupandhorizontal">
          0 840 2000 rmoveto
          -160 -1220 530 160 -370 hlineto
          -320 1060 rmoveto
          -160 -1060 -370 -160 530 hlineto
          690 -160 rmoveto
          -1220 -160 1220 hlineto
          endchar
        </CharString>
        <CharString name="boxdrawingsdoubleupandleft">
          0 840 2000 rmoveto
          -160 -1380 -690 -160 850 hlineto
          -320 1540 rmoveto
          -160 -1060 -370 -160 530 hlineto
          endchar
        </CharString>
        <CharString name="boxdrawingsdoubleupandright">
          0 520 2000 rmoveto
          -160 -1540 850 160 -690 hlineto
          320 1380 rmoveto
          -160 -1220 530 160 -370 hlineto
          endchar
        </CharString>
        <CharString name="boxdrawingsdoublevertical">
          0 840 2000 rmoveto
          -160 -3000 160 hlineto
          -320 3000 rmoveto
          -160 -3000 160 hlineto
          endchar
        </CharString>
        <CharString name="boxdrawingsdoubleverticalandhorizontal">
          0 520 2000 rmoveto
          -160 -1060 -370 -160 530 hlineto
          320 1220 rmoveto
          -160 -1220 530 160 -370 hlineto
          370 -320 rmoveto
          -530 -1620 160 1460 370 hlineto
          -690 160 rmoveto
          -530 -160 370 -1460 160 hlineto
          endchar
        </CharString>
        <CharString name="boxdrawingsdoubleverticalandleft">
          0 840 2000 rmoveto
          -160 -3000 160 hlineto
          -320 3000 rmoveto
          -160 -1060 -370 -160 530 hlineto
          -160 vmoveto
          -530 -160 370 -1460 160 hlineto
          endchar
        </CharString>
        <CharString name="boxdrawingsdoubleverticalandright">
          0 520 2000 rmoveto
          -160 -3000 160 hlineto
          320 3000 rmoveto
          -160 -1220 530 160 -370 hlineto
          370 -320 rmoveto
          -530 -1620 160 1460 370 hlineto
          endchar
        </CharString>
        <CharString name="boxdrawingsdowndoubleandhorizontalsingle">
          0 1210 780 rmoveto
          -1220 -160 370 -1620 160 1620 160 -1620 160 1620 370 hlineto
          endchar
        </CharString>
        <CharString name="boxdrawingsdowndoubleandleftsingle">
          0 840 780 rmoveto
          -850 -160 370 -1620 160 1620 160 -1620 160 hlineto
          endchar
        </CharString>
        <CharString name="boxdrawingsdowndoubleandrightsingle">
          0 1210 780 rmoveto
          -850 -1780 160 1620 160 -1620 160 1620 370 hlineto
          endchar
        </CharString>
        <CharString name="boxdrawingsdownheavyandhorizontallight">
          0 1210 780 rmoveto
          -1220 -160 370 -1620 480 1620 370 hlineto
          endchar
        </CharString>
        <CharString name="boxdrawingsdownheavyandleftlight">
          0 840 780 rmoveto
          -850 -160 370 -1620 480 hlineto
          endchar
        </CharString>
        <CharString name="boxdrawingsdownheavyandleftuplight">
          0 680 2000 rmoveto
          -160 -1220 -530 -160 370 -1620 480 1780 -160 hlineto
          endchar
        </CharString>
        <CharString name="boxdrawingsdownheavyandrightlight">
          0 1210 780 rmoveto
          -850 -1780 480 1620 370 hlineto
          endchar
        </CharString>
        <CharString name="boxdrawingsdownheavyandrightuplight">
          0 680 2000 rmoveto
          -160 -1220 -160 -1780 480 1620 370 160 -530 hlineto
          endchar
        </CharString>
        <CharString name="boxdrawingsdownheavyanduphorizontallight">
          0 680 2000 rmoveto
          -160 -1220 -530 -160 370 -1620 480 1620 370 160 -530 hlineto
          endchar
        </CharString>
        <CharString name="boxdrawingsdownlightandhorizontalheavy">
          0 1210 940 rmoveto
          -1220 -480 530 -1460 160 1460 530 hlineto
          endchar
        </CharString>
        <CharString name="boxdrawingsdownlightandleftheavy">
          0 680 940 rmoveto
          -690 -480 530 -1460 160 hlineto
          endchar
        </CharString>
        <CharString name="boxdrawingsdownlightandleftupheavy">
          0 840 2000 rmoveto
          -480 -1060 -370 -480 530 -1460 160 1460 160 hlineto
          endchar
        </CharString>
        <CharString name="boxdrawingsdownlightandrightheavy">
          0 1210 940 rmoveto
          -690 -1940 160 1460 530 hlineto
          endchar
        </CharString>
        <CharString name="boxdrawingsdownlightandrightupheavy">
          0 840 2000 rmoveto
          -480 -1540 160 -1460 160 1460 530 480 -370 hlineto
          endchar
        </CharString>
        <CharString name="boxdrawingsdownlightanduphorizontalheavy">
          0 840 2000 rmoveto
          -480 -1060 -370 -480 530 -1460 160 1460 530 480 -370 hlineto
          endchar
        </CharString>
        <CharString name="boxdrawingsdownsingleandhorizontaldouble">
          0 1210 940 rmoveto
          -1220 -160 1220 hlineto
          -160 vmoveto
          -1220 -160 530 -1460 160 1460 530 hlineto
          endchar
        </CharString>
        <CharString name="boxdrawingsdownsingleandleftdouble">
          0 680 940 rmoveto
          -690 -160 530 -160 -530 -160 530 -1460 160 hlineto
          endchar
        </CharString>
        <CharString name="boxdrawingsdownsingleandrightdouble">
          0 1210 940 rmoveto
          -690 -1940 160 1460 530 160 -530 160 530 hlineto
          endchar
        </CharString>
        <CharString name="boxdrawingsheavydoubledashhorizontal">
          0 1120 940 rmoveto
          -440 -480 440 hlineto
          -600 480 rmoveto
          -440 -480 440 hlineto
          endchar
        </CharString>
        <CharString name="boxdrawingsheavydoubledashvertical">
          0 840 2040 rmoveto
          -480 -960 480 hlineto
          -480 vmoveto
          -480 -960 480 hlineto
          endchar
        </CharString>
        <CharString name="boxdrawingsheavydown">
          0 840 780 rmoveto
          -480 -1780 480 hlineto
          endchar
        </CharString>
        <CharString name="boxdrawingsheavydownandhorizontal">
          0 1210 940 rmoveto
          -1220 -480 370 -1460 480 1460 370 hlineto
          endchar
        </CharString>
        <CharString name="boxdrawingsheavydownandleft">
          0 840 940 rmoveto
          -850 -480 370 -1460 480 hlineto
          endchar
        </CharString>
        <CharString name="boxdrawingsheavydownandright">
          0 1210 940 rmoveto
          -850 -1940 480 1460 370 hlineto
          endchar
        </CharString>
        <CharString name="boxdrawingsheavyhorizontal">
          0 1210 940 rmoveto
          -1220 -480 1220 hlineto
          endchar
        </CharString>
        <CharString name="boxdrawingsheavyleft">
          0 680 940 rmoveto
          -690 -480 690 hlineto
          endchar
        </CharString>
        <CharString name="boxdrawingsheavyleftandlightright">
          0 680 940 rmoveto
          -690 -480 690 160 530 160 -530 hlineto
          endchar
        </CharString>
        <CharString name="boxdrawingsheavyquadrupledashhorizontal">
          0 375 940 rmoveto
          -480 150 480 vlineto
          150 hmoveto
          -480 150 480 vlineto
          -750 hmoveto
          -480 150 480 vlineto
          750 hmoveto
          -480 150 480 vlineto
          endchar
        </CharString>
        <CharString name="boxdrawingsheavyquadrupledashvertical">
          0 360 2120 rmoveto
          -540 480 540 vlineto
          -480 -700 rmoveto
          -540 480 540 vlineto
          -480 -700 rmoveto
          -540 480 540 vlineto
          -480 -700 rmoveto
          -540 480 540 vlineto
          endchar
        </CharString>
        <CharString name="boxdrawingsheavyright">
          0 1210 940 rmoveto
          -690 -480 690 hlineto
          endchar
        </CharString>
        <CharString name="boxdrawingsheavytripledashhorizontal">
          0 320 940 rmoveto
          -240 -480 240 hlineto
          400 480 rmoveto
          -240 -480 240 hlineto
          400 480 rmoveto
          -240 -480 240 hlineto
          endchar
        </CharString>
        <CharString name="boxdrawingsheavytripledashvertical">
          0 360 2200 rmoveto
          -800 480 800 vlineto
          -480 -960 rmoveto
          -800 480 800 vlineto
          -480 -960 rmoveto
          -800 480 800 vlineto
          endchar
        </CharString>
        <CharString name="boxdrawingsheavyup">
          0 840 2000 rmoveto
          -480 -1380 480 hlineto
          endchar
        </CharString>
        <CharString name="boxdrawingsheavyupandhorizontal">
          0 840 2000 rmoveto
          -480 -1060 -370 -480 1220 480 -370 hlineto
          endchar
        </CharString>
        <CharString name="boxdrawingsheavyupandleft">
          0 840 2000 rmoveto
          -480 -1060 -370 -480 850 hlineto
          endchar
        </CharString>
        <CharString name="boxdrawingsheavyupandlightdown">
          0 840 2000 rmoveto
          -480 -1380 160 -1620 160 1620 160 hlineto
          endchar
        </CharString>
        <CharString name="boxdrawingsheavyupandright">
          0 840 2000 rmoveto
          -480 -1540 850 480 -370 hlineto
          endchar
        </CharString>
        <CharString name="boxdrawingsheavyvertical">
          0 840 2000 rmoveto
          -480 -3000 480 hlineto
          endchar
        </CharString>
        <CharString name="boxdrawingsheavyverticalandhorizontal">
          0 840 2000 rmoveto
          -480 -1060 -370 -480 370 -1460 480 1460 370 480 -370 hlineto
          endchar
        </CharString>
        <CharString name="boxdrawingsheavyverticalandleft">
          0 840 2000 rmoveto
          -480 -1060 -370 -480 370 -1460 480 hlineto
          endchar
        </CharString>
        <CharString name="boxdrawingsheavyverticalandright">
          0 840 2000 rmoveto
          -480 -3000 480 1460 370 480 -370 hlineto
          endchar
        </CharString>
        <CharString name="boxdrawingsleftdownheavyandrightuplight">
          0 680 2000 rmoveto
          -160 -1060 -530 -480 370 -1460 480 1620 370 160 -370 160 -160 hlineto
          endchar
        </CharString>
        <CharString name="boxdrawingsleftheavyandrightdownlight">
          0 680 940 rmoveto
          -690 -480 530 -1460 160 1620 530 160 -530 hlineto
          endchar
        </CharString>
        <CharString name="boxdrawingsleftheavyandrightuplight">
          0 680 2000 rmoveto
          -160 -1060 -530 -480 690 160 530 160 -530 hlineto
          endchar
        </CharString>
        <CharString name="boxdrawingsleftheavyandrightverticallight">
          0 680 2000 rmoveto
          -160 -1060 -530 -480 530 -1460 160 1620 530 160 -530 hlineto
          endchar
        </CharString>
        <CharString name="boxdrawingsleftlightandrightdownheavy">
          0 1210 940 rmoveto
          -850 -160 -370 -160 370 -1620 480 1460 370 hlineto
          endchar
        </CharString>
        <CharString name="boxdrawingsleftlightandrightupheavy">
          0 840 2000 rmoveto
          -480 -1220 -370 -160 370 -160 850 480 -370 hlineto
          endchar
        </CharString>
        <CharString name="boxdrawingsleftlightandrightverticalheavy">
          0 840 2000 rmoveto
          -480 -1220 -370 -160 370 -1620 480 1460 370 480 -370 hlineto
          endchar
        </CharString>
        <CharString name="boxdrawingsleftupheavyandrightdownlight">
          0 840 2000 rmoveto
          -480 -1060 -370 -480 530 -1460 160 1460 160 160 370 160 -370 hlineto
          endchar
        </CharString>
        <CharString name="boxdrawingslightarcdownandleft">
          0 140 780 rmoveto
          -150 -160 150 hlineto
          69 0 64 -17 58 -34 57 -35 46 -46 35 -57 34 -58 17 -64 0 -69 rrcurveto
          -1240 160 1240 vlineto
          0 75 -14 70 -28 65 -28 65 -39 57 -49 50 -50 49 -57 39 -65 28 -65 28 -70 14 -75 0 rrcurveto
          endchar
        </CharString>
        <CharString name="boxdrawingslightarcdownandright">
          0 1210 780 rmoveto
          -150 hlineto
          -75 0 -69 -14 -65 -28 -65 -28 -58 -39 -49 -49 -50 -50 -39 -57 -28 -65 -28 -65 -14 -70 0 -75 rrcurveto
          -1240 160 1240 vlineto
          0 69 17 64 35 58 34 57 46 46 58 35 57 34 64 17 69 0 rrcurveto
          150 hlineto
          endchar
        </CharString>
        <CharString name="boxdrawingslightarcupandleft">
          0 -10 620 rmoveto
          150 hlineto
          75 0 70 14 65 28 65 28 57 39 50 50 49 49 39 58 28 65 28 65 14 69 0 75 rrcurveto
          1240 -160 -1240 vlineto
          0 -69 -17 -64 -34 -57 -35 -58 -46 -46 -57 -34 -58 -35 -64 -17 -69 0 rrcurveto
          -150 hlineto
          endchar
        </CharString>
        <CharString name="boxdrawingslightarcupandright">
          0 1060 620 rmoveto
          150 160 -150 hlineto
          -69 0 -64 17 -57 35 -58 34 -46 46 -34 58 -35 57 -17 64 0 69 rrcurveto
          1240 -160 -1240 vlineto
          0 -75 14 -69 28 -65 28 -65 39 -58 50 -49 49 -50 58 -39 65 -28 65 -28 69 -14 75 0 rrcurveto
          endchar
        </CharString>
        <CharString name="boxdrawingslightdiagonalcross">
          0 74 1837 rmoveto
          1201 -2400 -145 -72 -1200 2401 rlineto
          1196 71 rmoveto
          -1201 -2400 145 -72 1200 2401 rlineto
          endchar
        </CharString>
        <CharString name="boxdrawingslightdiagonalupperlefttolowerright">
          0 74 1837 rmoveto
          1201 -2400 -145 -72 -1200 2401 rlineto
          endchar
        </CharString>
        <CharString name="boxdrawingslightdiagonalupperrighttolowerleft">
          0 1126 1837 rmoveto
          -1201 -2400 145 -72 1200 2401 rlineto
          endchar
        </CharString>
        <CharString name="boxdrawingslightdoubledashhorizontal">
          0 1120 780 rmoveto
          -440 -160 440 hlineto
          -600 160 rmoveto
          -440 -160 440 hlineto
          endchar
        </CharString>
        <CharString name="boxdrawingslightdoubledashvertical">
          0 680 2200 rmoveto
          -160 -1280 160 hlineto
          -160 vmoveto
          -160 -1280 160 hlineto
          endchar
        </CharString>
        <CharString name="boxdrawingslightdown">
          0 680 780 rmoveto
          -160 -1780 160 hlineto
          endchar
        </CharString>
        <CharString name="boxdrawingslightdownandhorizontal">
          0 1210 780 rmoveto
          -1220 -160 530 -1620 160 1620 530 hlineto
          endchar
        </CharString>
        <CharString name="boxdrawingslightdownandleft">
          0 680 780 rmoveto
          -690 -160 530 -1620 160 hlineto
          endchar
        </CharString>
        <CharString name="boxdrawingslightdownandright">
          0 1210 780 rmoveto
          -690 -1780 160 1620 530 hlineto
          endchar
        </CharString>
        <CharString name="boxdrawingslighthorizontal">
          0 1210 780 rmoveto
          -1220 -160 1220 hlineto
          endchar
        </CharString>
        <CharString name="boxdrawingslightleft">
          0 680 780 rmoveto
          -690 -160 690 hlineto
          endchar
        </CharString>
        <CharString name="boxdrawingslightleftandheavyright">
          0 1210 940 rmoveto
          -690 -160 -530 -160 530 -160 690 hlineto
          endchar
        </CharString>
        <CharString name="boxdrawingslightquadrupledashhorizontal">
          0 375 780 rmoveto
          -160 150 160 vlineto
          150 hmoveto
          -160 150 160 vlineto
          -750 hmoveto
          -160 150 160 vlineto
          750 hmoveto
          -160 150 160 vlineto
          endchar
        </CharString>
        <CharString name="boxdrawingslightquadrupledashvertical">
          0 520 2120 rmoveto
          -540 160 540 vlineto
          -160 -700 rmoveto
          -540 160 540 vlineto
          -160 -700 rmoveto
          -540 160 540 vlineto
          -160 -700 rmoveto
          -540 160 540 vlineto
          endchar
        </CharString>
        <CharString name="boxdrawingslightright">
          0 1210 780 rmoveto
          -690 -160 690 hlineto
          endchar
        </CharString>
        <CharString name="boxdrawingslighttripledashhorizontal">
          0 320 780 rmoveto
          -240 -160 240 hlineto
          400 160 rmoveto
          -240 -160 240 hlineto
          400 160 rmoveto
          -240 -160 240 hlineto
          endchar
        </CharString>
        <CharString name="boxdrawingslighttripledashvertical">
          0 520 2200 rmoveto
          -800 160 800 vlineto
          -160 -960 rmoveto
          -800 160 800 vlineto
          -160 -960 rmoveto
          -800 160 800 vlineto
          endchar
        </CharString>
        <CharString name="boxdrawingslightup">
          0 680 2000 rmoveto
          -160 -1380 160 hlineto
          endchar
        </CharString>
        <CharString name="boxdrawingslightupandheavydown">
          0 680 2000 rmoveto
          -160 -1220 -160 -1780 480 1780 -160 hlineto
          endchar
        </CharString>
        <CharString name="boxdrawingslightupandhorizontal">
          0 680 2000 rmoveto
          -160 -1220 -530 -160 1220 160 -530 hlineto
          endchar
        </CharString>
        <CharString name="boxdrawingslightupandleft">
          0 680 2000 rmoveto
          -160 -1220 -530 -160 690 hlineto
          endchar
        </CharString>
        <CharString name="boxdrawingslightupandright">
          0 680 2000 rmoveto
          -160 -1380 690 160 -530 hlineto
          endchar
        </CharString>
        <CharString name="boxdrawingslightvertical">
          0 680 2000 rmoveto
          -160 -3000 160 hlineto
          endchar
        </CharString>
        <CharString name="boxdrawingslightverticalandhorizontal">
          0 680 2000 rmoveto
          -160 -1220 -530 -160 530 -1620 160 1620 530 160 -530 hlineto
          endchar
        </CharString>
        <CharString name="boxdrawingslightverticalandleft">
          0 680 2000 rmoveto
          -160 -1220 -530 -160 530 -1620 160 hlineto
          endchar
        </CharString>
        <CharString name="boxdrawingslightverticalandright">
          0 680 2000 rmoveto
          -160 -3000 160 1620 530 160 -530 hlineto
          endchar
        </CharString>
        <CharString name="boxdrawingsrightdownheavyandleftuplight">
          0 680 2000 rmoveto
          -160 -1060 -160 -160 -370 -160 370 -1620 480 1460 370 480 -530 hlineto
          endchar
        </CharString>
        <CharString name="boxdrawingsrightheavyandleftdownlight">
          0 1210 940 rmoveto
          -690 -160 -530 -160 530 -1620 160 1460 530 hlineto
          endchar
        </CharString>
        <CharString name="boxdrawingsrightheavyandleftuplight">
          0 680 2000 rmoveto
          -160 -1220 -530 -160 530 -160 690 480 -530 hlineto
          endchar
        </CharString>
        <CharString name="boxdrawingsrightheavyandleftverticallight">
          0 680 2000 rmoveto
          -160 -1220 -530 -160 530 -1620 160 1460 530 480 -530 hlineto
          endchar
        </CharString>
        <CharString name="boxdrawingsrightlightandleftdownheavy">
          0 840 940 rmoveto
          -850 -480 370 -1460 480 1620 370 160 -370 hlineto
          endchar
        </CharString>
        <CharString name="boxdrawingsrightlightandleftupheavy">
          0 840 2000 rmoveto
          -480 -1060 -370 -480 850 160 370 160 -370 hlineto
          endchar
        </CharString>
        <CharString name="boxdrawingsrightlightandleftverticalheavy">
          0 840 2000 rmoveto
          -480 -1060 -370 -480 370 -1460 480 1620 370 160 -370 hlineto
          endchar
        </CharString>
        <CharString name="boxdrawingsrightupheavyandleftdownlight">
          0 840 2000 rmoveto
          -480 -1220 -370 -160 370 -160 160 -1460 160 1460 530 480 -370 hlineto
          endchar
        </CharString>
        <CharString name="boxdrawingsupdoubleandhorizontalsingle">
          0 840 2000 rmoveto
          -160 -1220 -160 1220 -160 -1220 -370 -160 1220 160 -370 hlineto
          endchar
        </CharString>
        <CharString name="boxdrawingsupdoubleandleftsingle">
          0 840 2000 rmoveto
          -160 -1220 -160 1220 -160 -1220 -370 -160 850 hlineto
          endchar
        </CharString>
        <CharString name="boxdrawingsupdoubleandrightsingle">
          0 840 2000 rmoveto
          -160 -1220 -160 1220 -160 -1380 850 160 -370 hlineto
          endchar
        </CharString>
        <CharString name="boxdrawingsupheavyanddownhorizontallight">
          0 840 2000 rmoveto
          -480 -1220 -370 -160 530 -1620 160 1620 530 160 -370 hlineto
          endchar
        </CharString>
        <CharString name="boxdrawingsupheavyandhorizontallight">
          0 840 2000 rmoveto
          -480 -1220 -370 -160 1220 160 -370 hlineto
          endchar
        </CharString>
        <CharString name="boxdrawingsupheavyandleftdownlight">
          0 840 2000 rmoveto
          -480 -1220 -370 -160 530 -1620 160 1620 160 hlineto
          endchar
        </CharString>
        <CharString name="boxdrawingsupheavyandleftlight">
          0 840 2000 rmoveto
          -480 -1220 -370 -160 850 hlineto
          endchar
        </CharString>
        <CharString name="boxdrawingsupheavyandrightdownlight">
          0 840 2000 rmoveto
          -480 -1380 160 -1620 160 1620 530 160 -370 hlineto
          endchar
        </CharString>
        <CharString name="boxdrawingsupheavyandrightlight">
          0 840 2000 rmoveto
          -480 -1380 850 160 -370 hlineto
          endchar
        </CharString>
        <CharString name="boxdrawingsuplightanddownhorizontalheavy">
          0 680 2000 rmoveto
          -160 -1060 -530 -480 370 -1460 480 1460 370 480 -530 hlineto
          endchar
        </CharString>
        <CharString name="boxdrawingsuplightandhorizontalheavy">
          0 680 2000 rmoveto
          -160 -1060 -530 -480 1220 480 -530 hlineto
          endchar
        </CharString>
        <CharString name="boxdrawingsuplightandleftdownheavy">
          0 680 2000 rmoveto
          -160 -1060 -530 -480 370 -1460 480 1940 -160 hlineto
          endchar
        </CharString>
        <CharString name="boxdrawingsuplightandleftheavy">
          0 680 2000 rmoveto
          -160 -1060 -530 -480 690 hlineto
          endchar
        </CharString>
        <CharString name="boxdrawingsuplightandrightdownheavy">
          0 680 2000 rmoveto
          -160 -1060 -160 -1940 480 1460 370 480 -530 hlineto
          endchar
        </CharString>
        <CharString name="boxdrawingsuplightandrightheavy">
          0 680 2000 rmoveto
          -160 -1540 690 480 -530 hlineto
          endchar
        </CharString>
        <CharString name="boxdrawingsupsingleandhorizontaldouble">
          0 680 2000 rmoveto
          -160 -1060 -530 -160 1220 160 -530 hlineto
          530 -320 rmoveto
          -1220 -160 1220 hlineto
          endchar
        </CharString>
        <CharString name="boxdrawingsupsingleandleftdouble">
          0 680 2000 rmoveto
          -160 -1060 -530 -160 530 -160 -530 -160 690 hlineto
          endchar
        </CharString>
        <CharString name="boxdrawingsupsingleandrightdouble">
          0 680 2000 rmoveto
          -160 -1540 690 160 -530 160 530 160 -530 hlineto
          endchar
        </CharString>
        <CharString name="boxdrawingsverticaldoubleandhorizontalsingle">
          0 840 2000 rmoveto
          -160 -1220 -160 1220 -160 -1220 -370 -160 370 -1620 160 1620 160 -1620 160 1620 370 160 -370 hlineto
          endchar
        </CharString>
        <CharString name="boxdrawingsverticaldoubleandleftsingle">
          0 520 2000 rmoveto
          -160 -1220 -370 -160 370 -1620 160 hlineto
          320 3000 rmoveto
          -160 -3000 160 hlineto
          endchar
        </CharString>
        <CharString name="boxdrawingsverticaldoubleandrightsingle">
          0 840 2000 rmoveto
          -160 -3000 160 1620 370 160 -370 hlineto
          -320 1220 rmoveto
          -160 -3000 160 hlineto
          endchar
        </CharString>
        <CharString name="boxdrawingsverticalheavyandhorizontallight">
          0 840 2000 rmoveto
          -480 -1220 -370 -160 370 -1620 480 1620 370 160 -370 hlineto
          endchar
        </CharString>
        <CharString name="boxdrawingsverticalheavyandleftlight">
          0 840 2000 rmoveto
          -480 -1220 -370 -160 370 -1620 480 hlineto
          endchar
        </CharString>
        <CharString name="boxdrawingsverticalheavyandrightlight">
          0 840 2000 rmoveto
          -480 -3000 480 1620 370 160 -370 hlineto
          endchar
        </CharString>
        <CharString name="boxdrawingsverticallightandhorizontalheavy">
          0 680 2000 rmoveto
          -160 -1060 -530 -480 530 -1460 160 1460 530 480 -530 hlineto
          endchar
        </CharString>
        <CharString name="boxdrawingsverticallightandleftheavy">
          0 680 2000 rmoveto
          -160 -1060 -530 -480 530 -1460 160 hlineto
          endchar
        </CharString>
        <CharString name="boxdrawingsverticallightandrightheavy">
          0 680 2000 rmoveto
          -160 -3000 160 1460 530 480 -530 hlineto
          endchar
        </CharString>
        <CharString name="boxdrawingsverticalsingleandhorizontaldouble">
          0 680 2000 rmoveto
          -160 -1060 -530 -160 530 -160 -530 -160 530 -1460 160 1460 530 160 -530 160 530 160 -530 hlineto
          endchar
        </CharString>
        <CharString name="boxdrawingsverticalsingleandleftdouble">
          0 680 2000 rmoveto
          -160 -1060 -530 -160 530 -160 -530 -160 530 -1460 160 hlineto
          endchar
        </CharString>
        <CharString name="boxdrawingsverticalsingleandrightdouble">
          0 680 2000 rmoveto
          -160 -3000 160 1460 530 160 -530 160 530 160 -530 hlineto
          endchar
        </CharString>
        <CharString name="braceleft">
          0 872 -263 rmoveto
          22 0 21 8 19 15 19 15 13 22 6 29 2 7 0 6 0 7 0 15 -4 14 -10 11 -13 16 -17 8 -21 0 rrcurveto
          -68 hlineto
          -140 0 -70 46 0 93 0 19 9 41 17 64 rrcurveto
          47 208 rlineto
          11 52 6 45 0 40 0 68 -17 51 -32 34 -6 6 -3 7 0 8 0 15 7 12 15 10 73 53 52 97 30 140 rrcurveto
          41 208 rlineto
          7 40 5 28 3 17 13 61 36 48 60 35 39 23 57 11 76 0 rrcurveto
          69 hlineto
          21 0 21 8 20 16 26 22 14 29 0 35 0 17 -4 14 -9 10 -13 15 -18 7 -22 0 -104 0 -65 -1 -26 -1 -70 -5 -63 -21 -55 -38 -98 -65 -62 -94 -27 -125 -6 -27 -10 -56 -14 -83 rrcurveto
          -15 -83 -9 -52 -4 -20 -15 -73 -30 -54 -43 -35 -30 -25 -34 -12 -39 0 -69 0 -42 -31 -13 -62 -2 -10 -1 -9 0 -9 0 -43 29 -22 58 0 39 0 29 -12 19 -23 19 -24 9 -31 0 -38 rrcurveto
          0 -22 -3 -23 -5 -26 -5 -20 -12 -52 -21 -83 -21 -83 -14 -56 -6 -27 -7 -34 -3 -31 0 -29 0 -79 25 -64 52 -47 39 -38 54 -21 68 -4 25 -2 65 -1 103 0 rrcurveto
          endchar
        </CharString>
        <CharString name="braceright">
          0 307 -263 rmoveto
          43 0 34 1 27 2 26 1 30 6 35 10 34 10 32 15 30 21 99 65 62 94 26 125 6 27 10 56 15 83 14 83 9 52 5 20 15 73 29 54 43 35 30 25 35 12 39 0 rrcurveto
          69 0 42 31 13 62 2 10 1 9 0 9 0 43 -29 22 -58 0 -39 0 -30 12 -20 25 -18 22 -8 30 0 38 0 22 2 24 6 26 4 20 13 52 21 83 21 83 13 56 6 27 rrcurveto
          7 34 4 32 0 30 0 78 -26 63 -51 47 -39 38 -54 21 -68 5 -25 1 -65 1 -105 0 -21 0 -21 -7 -19 -15 -19 -15 -13 -23 -6 -29 -2 -7 0 -7 0 -6 0 -16 4 -13 9 -11 rrcurveto
          13 -16 18 -8 21 0 rrcurveto
          69 hlineto
          139 0 70 -47 0 -93 0 -19 -8 -41 -17 -63 rrcurveto
          -47 -208 rlineto
          -11 -52 -6 -46 0 -40 0 -68 16 -51 32 -33 6 -6 4 -8 0 -8 0 -14 -8 -12 -14 -10 -73 -53 -52 -97 -30 -140 rrcurveto
          -41 -208 rlineto
          -7 -40 -5 -28 -3 -17 -13 -61 -37 -48 -59 -35 -39 -23 -57 -11 -76 0 rrcurveto
          -68 hlineto
          -21 0 -21 -8 -19 -16 -27 -22 -14 -29 0 -35 0 -17 4 -14 9 -10 13 -15 17 -7 22 0 rrcurveto
          endchar
        </CharString>
        <CharString name="bracketleft">
          0 782 -270 rmoveto
          50 0 49 40 11 50 rrcurveto
          2 18 rlineto
          0 41 -30 31 -43 0 rrcurveto
          -337 hlineto
          -18 0 -9 9 0 15 rrcurveto
          1 9 322 1515 rlineto
          4 19 17 13 19 0 rrcurveto
          337 hlineto
          49 0 49 41 11 49 rrcurveto
          2 18 rlineto
          0 41 -30 31 -43 0 rrcurveto
          -456 hlineto
          -52 0 -51 -42 -11 -51 rrcurveto
          -372 -1754 rlineto
          -1 -7 -1 -6 0 -6 0 -42 31 -32 44 0 rrcurveto
          endchar
        </CharString>
        <CharString name="bracketright">
          0 759 -270 rmoveto
          51 0 52 42 10 51 rrcurveto
          373 1754 rlineto
          1 7 1 6 0 6 0 42 -31 32 -45 0 rrcurveto
          -456 hlineto
          -49 0 -50 -40 -10 -50 -1 -6 -1 -7 0 -6 0 -40 30 -31 43 0 rrcurveto
          337 hlineto
          16 0 11 -10 0 -15 rrcurveto
          -323 -1522 rlineto
          -5 -21 -14 -12 -21 0 rrcurveto
          -337 hlineto
          -49 0 -50 -41 -10 -49 -1 -7 -1 -6 0 -6 0 -41 30 -30 43 0 rrcurveto
          endchar
        </CharString>
        <CharString name="bracketright_numbersign">
          0 1235 870 rmoveto
          24 0 23 9 22 18 21 18 14 21 5 25 5 24 -4 21 -14 18 -15 17 -19 9 -24 0 rrcurveto
          -460 hlineto
          -38 -180 rlineto
          -380 -900 rmoveto
          24 0 23 9 21 18 22 18 14 21 5 24 rrcurveto
          36 170 rlineto
          -181 hlineto
          -36 -170 rlineto
          -5 -24 4 -21 14 -18 15 -18 19 -9 25 0 rrcurveto
          234 680 rmoveto
          147 691 rlineto
          5 24 -4 21 -15 18 -14 17 -19 9 -25 0 -24 0 -23 -9 -22 -17 -21 -18 -14 -21 -5 -24 rrcurveto
          -147 -691 rlineto
          347 -680 rmoveto
          24 0 22 9 22 18 21 18 14 21 5 24 rrcurveto
          146 690 rlineto
          -180 hlineto
          -146 -690 rlineto
          -5 -24 4 -21 14 -18 15 -18 19 -9 25 0 rrcurveto
          344 1200 rmoveto
          36 171 rlineto
          5 24 -4 21 -14 18 -14 17 -19 9 -25 0 -24 0 -23 -9 -22 -17 -21 -18 -14 -21 -5 -24 rrcurveto
          -36 -171 rlineto
          165 -820 rmoveto
          24 0 23 9 22 18 22 18 13 21 6 24 5 24 -5 21 -14 18 -14 18 -19 9 -24 0 rrcurveto
          -60 hlineto
          -39 -180 rlineto
          -1131 700 rmoveto
          112 527 rlineto
          6 25 -5 22 -14 19 -15 18 -20 9 -26 0 rrcurveto
          -456 hlineto
          -25 0 -23 -9 -21 -17 -22 -18 -13 -21 -5 -25 -5 -25 4 -21 14 -17 14 -18 19 -9 25 0 rrcurveto
          337 hlineto
          22 0 8 -11 -4 -21 rrcurveto
          -322 -1515 rlineto
          -5 -22 -13 -11 -22 0 rrcurveto
          -337 hlineto
          -25 0 -23 -9 -21 -17 -22 -18 -13 -21 -5 -25 -6 -25 5 -21 14 -17 14 -18 19 -9 25 0 rrcurveto
          456 hlineto
          26 0 24 9 22 19 22 18 14 22 5 25 rrcurveto
          112 527 rlineto
          900 hlineto
          39 180 rlineto
          -900 hlineto
          72 340 rlineto
          500 hlineto
          38 180 rlineto
          endchar
        </CharString>
        <CharString name="c">
          0 652 -30 rmoveto
          110 0 115 40 119 80 33 21 16 30 0 39 0 16 -4 13 -7 11 -11 16 -16 8 -21 0 -18 0 -16 -4 -13 -9 -86 -53 -79 -27 -72 0 -165 0 -83 82 0 164 0 36 5 40 9 43 rrcurveto
          26 123 48 92 70 63 69 63 83 31 97 0 55 0 52 -15 49 -31 10 -6 5 -10 0 -14 0 -18 -24 -14 -47 -11 -25 -5 -12 -14 0 -22 0 -32 16 -16 31 0 81 1 68 35 53 67 rrcurveto
          18 23 9 30 0 37 0 42 -16 37 -32 34 -63 63 -85 31 -106 0 -92 0 -89 -21 -86 -43 -87 -43 -75 -61 -63 -79 -64 -79 -46 -106 -29 -132 -12 -56 -6 -52 0 -48 0 -148 53 -108 106 -68 rrcurveto
          69 -44 81 -22 94 0 rrcurveto
          endchar
        </CharString>
        <CharString name="colon">
          0 597 -30 rmoveto
          43 0 41 16 38 33 50 42 25 52 0 60 0 29 -8 26 -17 23 -25 33 -34 16 -43 0 -46 0 -42 -16 -38 -32 -51 -43 -26 -51 0 -59 0 -30 9 -27 18 -24 25 -32 35 -16 46 0 rrcurveto
          166 781 rmoveto
          43 0 41 16 38 32 50 42 25 52 0 61 0 29 -8 26 -17 23 -25 32 -34 16 -43 0 -46 0 -42 -16 -38 -32 -51 -42 -26 -51 0 -60 0 -30 9 -27 18 -23 25 -32 35 -16 46 0 rrcurveto
          endchar
        </CharString>
        <CharString name="colon_center">
          0 623 90 rmoveto
          43 0 41 16 38 33 50 43 25 50 0 59 0 30 -9 27 -17 23 -24 33 -34 16 -43 0 -46 0 -42 -16 -39 -32 -51 -43 -25 -51 0 -60 0 -30 9 -27 18 -23 25 -32 35 -16 46 0 rrcurveto
          125 591 rmoveto
          43 0 41 16 38 32 50 42 25 52 0 61 0 29 -8 26 -17 23 -24 32 -34 16 -44 0 -46 0 -42 -16 -38 -32 -51 -42 -26 -51 0 -60 0 -30 9 -27 18 -23 25 -32 35 -16 46 0 rrcurveto
          endchar
        </CharString>
        <CharString name="colon_center_left">
          0 323 90 rmoveto
          43 0 41 16 38 33 50 43 25 50 0 59 0 30 -9 27 -17 23 -24 33 -34 16 -43 0 -46 0 -42 -16 -39 -32 -51 -43 -25 -51 0 -60 0 -30 9 -27 18 -23 25 -32 35 -16 46 0 rrcurveto
          125 591 rmoveto
          43 0 41 16 38 32 50 42 25 52 0 61 0 29 -8 26 -17 23 -24 32 -34 16 -44 0 -46 0 -42 -16 -38 -32 -51 -42 -26 -51 0 -60 0 -30 9 -27 18 -23 25 -32 35 -16 46 0 rrcurveto
          endchar
        </CharString>
        <CharString name="colon_center_right">
          0 923 90 rmoveto
          43 0 41 16 38 33 50 43 25 50 0 59 0 30 -9 27 -17 23 -24 33 -34 16 -43 0 -46 0 -42 -16 -39 -32 -51 -43 -25 -51 0 -60 0 -30 9 -27 18 -23 25 -32 35 -16 46 0 rrcurveto
          125 591 rmoveto
          43 0 41 16 38 32 50 42 25 52 0 61 0 29 -8 26 -17 23 -24 32 -34 16 -44 0 -46 0 -42 -16 -38 -32 -51 -42 -26 -51 0 -60 0 -30 9 -27 18 -23 25 -32 35 -16 46 0 rrcurveto
          endchar
        </CharString>
        <CharString name="comma">
          0 283 -413 rmoveto
          150 15 125 59 101 101 101 101 50 117 0 132 0 58 -13 46 -28 35 -26 33 -35 16 -43 0 -59 0 -48 -22 -35 -43 -31 -34 -16 -39 0 -43 0 -33 12 -31 23 -29 23 -29 12 -30 0 -31 rrcurveto
          0 -45 -26 -40 -51 -35 -42 -29 -52 -18 -63 -8 -57 -7 -35 -32 -13 -57 rrcurveto
          -1 -13 rlineto
          0 -43 26 -22 51 0 rrcurveto
          endchar
        </CharString>
        <CharString name="d">
          0 628 151 rmoveto
          -141 0 -70 74 0 147 0 37 4 43 9 47 27 129 41 93 57 59 57 59 71 29 86 0 67 0 51 -24 36 -49 29 -42 15 -44 0 -45 0 -15 -2 -16 -3 -15 rrcurveto
          -45 -213 rlineto
          -17 -79 -38 -62 -61 -45 -61 -45 -58 -23 -54 0 rrcurveto
          646 1089 rmoveto
          30 143 15 72 0 3 0 17 -6 15 -11 13 -15 18 -19 9 -23 0 -23 0 -22 -9 -22 -17 -22 -18 -14 -23 -6 -27 rrcurveto
          -42 -196 -48 -228 rlineto
          -5 -24 -13 -12 -21 0 -12 0 -11 5 -10 11 -57 59 -65 29 -72 0 -125 0 -110 -49 -93 -98 -94 -98 -65 -135 -37 -171 -17 -84 -9 -75 0 -65 0 -76 12 -64 23 -51 43 -96 93 -48 141 0 rrcurveto
          91 0 112 45 132 90 11 7 9 4 7 0 10 0 5 -10 1 -19 2 -78 35 -39 69 0 69 0 53 20 37 41 9 11 5 11 0 13 0 11 -4 10 -7 10 -7 10 -11 5 -13 0 rrcurveto
          -12 0 -9 -1 -6 -3 -15 -7 -11 -3 -8 0 -29 0 -14 15 0 31 0 8 1 9 2 11 109 528 73 356 37 184 rrcurveto
          endchar
        </CharString>
        <CharString name="dagger">
          0 939 1170 rmoveto
          25 120 13 63 0 6 0 17 -5 15 -11 13 -14 17 -19 9 -24 0 -24 0 -23 -9 -21 -17 -22 -18 -14 -21 -5 -25 rrcurveto
          -36 -170 rlineto
          -165 -1200 rmoveto
          24 0 23 9 22 18 21 18 14 21 5 24 rrcurveto
          146 690 rlineto
          -180 hlineto
          -99 -467 -49 -236 0 -6 0 -16 5 -15 10 -13 15 -18 19 -9 24 0 rrcurveto
          531 900 rmoveto
          25 0 23 9 21 18 28 23 14 28 0 32 0 16 -5 15 -10 13 -14 17 -19 9 -25 0 rrcurveto
          -680 hlineto
          -25 0 -23 -9 -21 -17 -28 -24 -14 -27 0 -33 0 -16 5 -14 10 -13 14 -18 19 -9 25 0 rrcurveto
          endchar
        </CharString>
        <CharString name="dollar">
          0 879 889 rmoveto
          93 441 47 223 0 7 0 16 -5 15 -10 13 -14 17 -19 9 -25 0 -25 0 -23 -9 -21 -17 -21 -18 -14 -21 -5 -25 rrcurveto
          -119 -563 rlineto
          31 -35 54 -29 76 -24 rrcurveto
          -328 -1119 rmoveto
          25 0 23 9 21 18 21 17 14 21 5 25 rrcurveto
          122 571 rlineto
          -27 27 -54 27 -82 29 -94 -443 -47 -224 0 -7 0 -16 5 -14 10 -13 14 -18 19 -9 25 0 rrcurveto
          613 1285 rmoveto
          51 0 32 29 13 59 2 8 0 8 0 7 0 77 -31 64 -62 50 -18 15 -24 14 -30 13 rrcurveto
          -43 -204 rlineto
          23 -21 14 -22 3 -24 7 -49 23 -24 40 0 rrcurveto
          -760 -1038 rmoveto
          46 218 rlineto
          -21 22 -19 25 -16 27 -19 32 -23 16 -28 0 -26 0 -23 -9 -19 -19 -19 -19 -13 -23 -6 -29 -1 -6 -1 -6 0 -5 0 -5 1 -5 1 -5 14 -61 43 -58 72 -54 15 -12 19 -12 23 -12 rrcurveto
          397 -13 rmoveto
          74 32 66 45 60 61 57 57 37 71 18 85 6 28 3 26 0 26 0 104 -49 86 -98 69 -46 29 -64 31 -83 31 -132 54 -66 72 0 91 0 13 1 13 3 14 10 44 19 38 29 33 rrcurveto
          48 228 rlineto
          -152 -76 -94 -121 -36 -167 -6 -26 -2 -26 0 -24 0 -148 102 -113 206 -78 37 -15 38 -18 38 -21 78 -41 39 -50 0 -60 0 -10 -1 -10 -2 -11 -13 -59 -30 -50 -49 -39 rrcurveto
          endchar
        </CharString>
        <CharString name="e">
          0 626 -30 rmoveto
          104 0 83 13 62 26 62 26 60 43 58 60 13 12 10 10 6 8 7 9 3 13 0 18 0 21 -8 18 -15 15 -16 15 -18 7 -21 0 -22 0 -18 -7 -14 -16 -89 -86 -91 -43 -93 0 rrcurveto
          -78 0 -65 16 -52 32 -51 32 -26 51 0 70 0 20 3 20 4 22 5 23 12 11 21 0 185 2 133 9 82 14 122 22 86 40 50 59 49 58 25 87 0 114 0 67 -30 55 -58 46 rrcurveto
          -59 45 -70 23 -84 0 -264 0 -191 -119 -118 -240 -23 -56 -19 -60 -13 -66 -13 -66 -6 -57 0 -50 3 -257 126 -129 251 0 rrcurveto
          -88 617 rmoveto
          -30 5 -17 5 -4 5 -4 5 -2 6 0 5 0 13 4 13 8 15 31 61 54 54 76 49 76 48 72 24 66 0 55 0 40 -9 27 -18 27 -17 13 -20 0 -22 0 -92 -39 -60 -77 -28 rrcurveto
          -78 -27 -125 -14 -173 -1 rrcurveto
          endchar
        </CharString>
        <CharString name="eight">
          -10 618 146 rmoveto
          -147 0 -73 52 0 104 0 152 97 118 195 83 169 -40 85 -70 0 -101 0 -22 -3 -23 -5 -23 -32 -153 -106 -77 -180 0 rrcurveto
          -37 -176 rmoveto
          131 0 114 34 96 67 95 67 62 94 29 123 9 33 4 35 0 35 0 117 -56 95 -113 75 -4 3 -2 4 0 6 0 7 3 6 7 5 45 30 56 46 69 61 71 65 35 47 1 28 rrcurveto
          0 14 -13 7 -25 0 -19 0 -125 -72 -230 -144 -11 -7 -13 -3 -15 0 -18 0 -19 3 -20 7 -92 29 -46 49 0 70 0 18 3 17 5 17 40 128 101 69 164 10 32 0 16 -15 0 -29 rrcurveto
          0 -22 -9 -26 -19 -30 -2 -3 -1 -5 0 -6 0 -18 17 -9 35 0 38 0 33 15 28 29 28 29 14 35 0 40 0 59 -14 40 -29 22 -49 39 -56 20 -63 0 -115 0 -102 -34 -89 -69 rrcurveto
          -90 -69 -58 -87 -26 -105 -6 -26 -3 -26 0 -26 0 -93 43 -77 85 -60 4 -3 2 -4 0 -5 0 -8 -5 -6 -9 -5 -159 -82 -102 -124 -45 -166 -6 -31 -3 -33 0 -34 0 -86 31 -69 61 -53 rrcurveto
          61 -53 91 -26 122 0 rrcurveto
          endchar
        </CharString>
        <CharString name="equal">
          0 995 260 rmoveto
          50 0 49 40 11 50 rrcurveto
          2 18 rlineto
          0 41 -30 31 -43 0 rrcurveto
          -681 hlineto
          -49 0 -49 -41 -11 -49 rrcurveto
          -2 -18 rlineto
          0 -41 30 -31 43 0 rrcurveto
          765 400 rmoveto
          50 0 49 40 11 50 rrcurveto
          2 18 rlineto
          0 41 -30 31 -43 0 rrcurveto
          -681 hlineto
          -49 0 -49 -41 -11 -49 rrcurveto
          -2 -18 rlineto
          0 -41 30 -31 43 0 rrcurveto
          endchar
        </CharString>
        <CharString name="exclam">
          0 597 -30 rmoveto
          43 0 41 16 38 33 50 42 25 52 0 60 0 29 -8 26 -17 23 -25 33 -34 16 -43 0 -46 0 -42 -16 -38 -32 -51 -43 -26 -51 0 -59 0 -30 9 -27 18 -24 25 -32 35 -16 46 0 rrcurveto
          103 499 rmoveto
          43 0 45 37 11 43 rrcurveto
          196 805 rlineto
          1 7 1 7 0 7 0 48 -35 38 -51 0 -59 0 -59 -51 -12 -57 rrcurveto
          -146 -804 rlineto
          -1 -5 0 -4 0 -5 0 -37 28 -29 38 0 rrcurveto
          endchar
        </CharString>
        <CharString name="exclam_exclam">
          0 397 -30 rmoveto
          43 0 41 16 38 33 50 42 25 52 0 60 0 29 -8 26 -17 23 -25 33 -34 16 -43 0 -46 0 -42 -16 -38 -32 -51 -43 -26 -51 0 -59 0 -30 9 -27 18 -24 25 -32 35 -16 46 0 rrcurveto
          103 499 rmoveto
          43 0 45 37 11 43 rrcurveto
          196 805 rlineto
          1 7 1 7 0 7 0 48 -35 38 -51 0 -59 0 -59 -51 -12 -57 rrcurveto
          -146 -804 rlineto
          -1 -5 0 -4 0 -5 0 -37 28 -29 38 0 rrcurveto
          -903 -499 rmoveto
          43 0 41 16 38 33 50 42 25 52 0 60 0 29 -8 26 -17 23 -25 33 -34 16 -43 0 -46 0 -42 -16 -38 -32 -51 -43 -26 -51 0 -59 0 -30 9 -27 18 -24 25 -32 35 -16 46 0 rrcurveto
          103 499 rmoveto
          43 0 45 37 11 43 rrcurveto
          196 805 rlineto
          1 7 1 7 0 7 0 48 -35 38 -51 0 -59 0 -59 -51 -12 -57 rrcurveto
          -146 -804 rlineto
          -1 -5 0 -4 0 -5 0 -37 28 -29 38 0 rrcurveto
          endchar
        </CharString>
        <CharString name="f">
          0 136 -457 rmoveto
          111 0 96 37 83 75 89 77 64 122 38 168 rrcurveto
          174 806 rlineto
          3 12 6 10 10 8 10 8 11 4 12 0 rrcurveto
          356 hlineto
          25 0 23 9 21 17 28 23 14 28 0 32 0 17 -5 15 -10 13 -14 17 -19 9 -25 0 rrcurveto
          -356 hlineto
          -12 0 -9 4 -6 7 -5 7 -3 7 0 7 rrcurveto
          19 85 rlineto
          11 49 25 43 39 36 39 36 45 18 52 0 rrcurveto
          168 hlineto
          25 0 23 9 21 17 28 23 14 28 0 32 0 17 -5 15 -10 13 -14 17 -19 9 -25 0 rrcurveto
          -206 hlineto
          -61 0 -57 -15 -53 -30 -54 -30 -46 -39 -37 -49 -37 -49 -26 -53 -13 -59 rrcurveto
          -26 -119 rlineto
          -2 -9 -6 -8 -10 -7 -10 -8 -11 -4 -11 0 rrcurveto
          -145 hlineto
          -25 0 -22 -9 -21 -17 -29 -23 -14 -28 0 -31 0 -18 6 -15 10 -13 13 -17 19 -9 25 0 rrcurveto
          144 hlineto
          12 0 9 -3 5 -7 6 -7 3 -8 0 -8 0 -4 -58 -270 -115 -537 -21 -99 -37 -79 -51 -59 -51 -59 -62 -30 -71 0 -65 0 -32 -28 0 -55 0 -49 29 -25 58 0 rrcurveto
          endchar
        </CharString>
        <CharString name="five">
          0 575 -30 rmoveto
          316 0 178 158 41 314 5 48 2 38 0 27 -4 210 -141 104 -278 0 rrcurveto
          -60 hlineto
          -24 0 -11 11 0 21 rrcurveto
          93 292 rlineto
          5 21 13 10 19 0 347 8 180 25 13 41 4 12 2 10 0 9 0 15 -5 12 -8 9 -21 22 -209 12 -396 1 -56 0 -33 -21 -11 -42 -101 -374 -51 -190 0 -5 1 -18 6 -16 11 -13 rrcurveto
          15 -19 21 -10 26 0 rrcurveto
          164 hlineto
          191 -1 96 -62 2 -122 0 -71 -10 -55 -18 -40 -56 -125 -111 -64 -168 -2 -138 0 -97 44 -56 88 -22 37 -20 18 -18 0 -26 0 -13 -25 0 -51 0 -30 3 -22 7 -14 71 -150 134 -75 196 0 rrcurveto
          endchar
        </CharString>
        <CharString name="four">
          0 952 470 rmoveto
          20 132 29 66 36 0 23 0 16 -11 12 -23 12 -22 6 -22 0 -21 0 -66 -52 -33 -102 0 rrcurveto
          -190 -500 rmoveto
          26 0 24 9 22 18 21 17 13 22 6 26 rrcurveto
          52 230 rlineto
          122 3 79 19 35 35 55 54 28 82 1 107 0 90 -27 72 -53 53 -34 32 -43 17 -52 0 -124 0 -87 -127 -50 -254 -222 2 -113 2 -4 3 -4 3 -2 5 0 5 0 6 2 6 4 4 rrcurveto
          448 532 223 244 rlineto
          15 17 8 23 0 29 0 20 -5 17 -9 11 -13 17 -15 9 -18 0 -41 0 -36 -19 -33 -36 rrcurveto
          -762 -868 rlineto
          -22 -26 -14 -35 -5 -45 0 -31 11 -26 21 -21 22 -20 27 -11 32 0 rrcurveto
          472 hlineto
          -55 -248 rlineto
          0 -20 7 -18 14 -14 13 -14 18 -8 22 0 rrcurveto
          endchar
        </CharString>
        <CharString name="g">
          0 603 168 rmoveto
          -81 0 -53 23 -25 46 -25 46 -12 48 0 51 0 39 5 45 11 51 56 241 112 123 169 4 63 0 49 -20 35 -39 35 -39 18 -45 0 -49 0 -19 -2 -22 -5 -22 rrcurveto
          -45 -211 rlineto
          -13 -61 -38 -59 -63 -56 -58 -50 -64 -25 -69 0 rrcurveto
          -141 -648 rmoveto
          130 0 113 38 96 75 96 75 62 104 28 131 150 705 75 356 0 8 0 17 -4 14 -9 11 -12 17 -19 9 -26 0 -51 0 -34 -24 -18 -49 -9 -23 -10 -12 -11 0 -7 0 -6 4 -6 7 rrcurveto
          -47 64 -75 32 -102 0 -127 0 -109 -48 -91 -95 -91 -96 -66 -145 -43 -195 -13 -62 -7 -57 0 -53 0 -82 16 -70 32 -59 52 -98 88 -49 125 0 86 0 76 23 66 46 16 11 14 6 11 0 rrcurveto
          16 0 8 -7 0 -15 0 -5 -11 -50 -22 -94 -10 -48 -30 -44 -50 -39 -51 -40 -68 -21 -85 -1 -63 0 -50 9 -37 19 -37 19 -35 29 -33 40 -13 15 -17 7 -21 0 -23 0 -26 -13 -27 -27 rrcurveto
          -21 -20 -10 -22 0 -26 0 -14 4 -13 8 -12 75 -109 122 -54 168 0 rrcurveto
          endchar
        </CharString>
        <CharString name="grave">
          0 963 970 rmoveto
          22 0 25 9 20 17 21 18 15 24 4 23 1 6 1 6 0 6 0 17 -5 16 -10 13 rrcurveto
          -243 308 rlineto
          -14 18 -21 9 -23 0 -23 0 -25 -9 -22 -18 -21 -16 -13 -23 -5 -23 -1 -6 -1 -7 0 -6 0 -17 5 -17 11 -13 rrcurveto
          241 -307 rlineto
          14 -18 23 -10 24 0 rrcurveto
          endchar
        </CharString>
        <CharString name="greater">
          0 275 97 rmoveto
          13 0 16 3 13 6 rrcurveto
          769 363 rlineto
          35 16 25 30 7 35 1 6 1 7 0 6 0 26 -12 23 -23 13 rrcurveto
          -614 355 rlineto
          -12 7 -14 3 -13 0 -47 0 -51 -41 -10 -48 -1 -6 -1 -6 0 -6 0 -27 13 -25 23 -13 rrcurveto
          419 -250 rlineto
          8 -6 5 -6 0 -7 rrcurveto
          -1 -5 rlineto
          -3 -11 -7 -9 -12 -6 rrcurveto
          -529 -254 rlineto
          -34 -16 -28 -33 -7 -34 rrcurveto
          -2 -17 rlineto
          0 -40 32 -33 41 0 rrcurveto
          endchar
        </CharString>
        <CharString name="greater_greater">
          0 125 97 rmoveto
          13 0 16 3 13 6 rrcurveto
          769 363 rlineto
          35 16 25 30 7 35 1 6 1 7 0 6 0 26 -12 23 -23 13 rrcurveto
          -614 355 rlineto
          -12 7 -14 3 -13 0 -47 0 -51 -41 -10 -48 -1 -6 -1 -6 0 -6 0 -27 13 -25 23 -13 rrcurveto
          419 -250 rlineto
          8 -6 5 -6 0 -7 rrcurveto
          -1 -5 rlineto
          -3 -11 -7 -9 -12 -6 rrcurveto
          -529 -254 rlineto
          -34 -16 -28 -33 -7 -34 rrcurveto
          -2 -17 rlineto
          0 -40 32 -33 41 0 rrcurveto
          -900 hmoveto
          13 0 16 3 13 6 rrcurveto
          769 363 rlineto
          35 16 25 30 7 35 1 6 1 7 0 6 0 26 -12 23 -23 13 rrcurveto
          -614 355 rlineto
          -12 7 -14 3 -13 0 -47 0 -51 -41 -10 -48 -1 -6 -1 -6 0 -6 0 -27 13 -25 23 -13 rrcurveto
          419 -250 rlineto
          8 -6 5 -6 0 -7 rrcurveto
          -1 -5 rlineto
          -3 -11 -7 -9 -12 -6 rrcurveto
          -529 -254 rlineto
          -34 -16 -28 -33 -7 -34 rrcurveto
          -2 -17 rlineto
          0 -40 32 -33 41 0 rrcurveto
          endchar
        </CharString>
        <CharString name="greater_greater_greater">
          0 -25 97 rmoveto
          13 0 16 3 13 6 rrcurveto
          769 363 rlineto
          35 16 25 30 7 35 1 6 1 7 0 6 0 26 -12 23 -23 13 rrcurveto
          -614 355 rlineto
          -12 7 -14 3 -13 0 -47 0 -51 -41 -10 -48 -1 -6 -1 -6 0 -6 0 -27 13 -25 23 -13 rrcurveto
          419 -250 rlineto
          8 -6 5 -6 0 -7 rrcurveto
          -1 -5 rlineto
          -3 -11 -7 -9 -12 -6 rrcurveto
          -529 -254 rlineto
          -34 -16 -28 -33 -7 -34 rrcurveto
          -2 -17 rlineto
          0 -40 32 -33 41 0 rrcurveto
          -900 hmoveto
          13 0 16 3 13 6 rrcurveto
          769 363 rlineto
          35 16 25 30 7 35 1 6 1 7 0 6 0 26 -12 23 -23 13 rrcurveto
          -614 355 rlineto
          -12 7 -14 3 -13 0 -47 0 -51 -41 -10 -48 -1 -6 -1 -6 0 -6 0 -27 13 -25 23 -13 rrcurveto
          419 -250 rlineto
          8 -6 5 -6 0 -7 rrcurveto
          -1 -5 rlineto
          -3 -11 -7 -9 -12 -6 rrcurveto
          -529 -254 rlineto
          -34 -16 -28 -33 -7 -34 rrcurveto
          -2 -17 rlineto
          0 -40 32 -33 41 0 rrcurveto
          -900 hmoveto
          13 0 16 3 13 6 rrcurveto
          769 363 rlineto
          35 16 25 30 7 35 1 6 1 7 0 6 0 26 -12 23 -23 13 rrcurveto
          -614 355 rlineto
          -12 7 -14 3 -13 0 -47 0 -51 -41 -10 -48 -1 -6 -1 -6 0 -6 0 -27 13 -25 23 -13 rrcurveto
          419 -250 rlineto
          8 -6 5 -6 0 -7 rrcurveto
          -1 -5 rlineto
          -3 -11 -7 -9 -12 -6 rrcurveto
          -529 -254 rlineto
          -34 -16 -28 -33 -7 -34 rrcurveto
          -2 -17 rlineto
          0 -40 32 -33 41 0 rrcurveto
          endchar
        </CharString>
        <CharString name="h">
          0 622 1236 rmoveto
          30 141 15 73 0 7 0 17 -5 16 -11 13 -15 18 -19 9 -25 0 -24 0 -23 -9 -22 -18 -23 -19 -14 -23 -6 -27 -15 -69 -14 -66 -13 -63 -168 -791 -84 -399 0 -7 0 -17 5 -14 9 -12 rrcurveto
          13 -17 21 -9 27 0 29 0 23 9 19 17 19 17 12 23 6 28 rrcurveto
          117 548 rlineto
          19 89 51 70 83 51 69 39 64 20 61 1 119 0 59 -55 0 -111 0 -25 -3 -27 -6 -31 rrcurveto
          -80 -374 -23 -117 rlineto
          -5 -27 -3 -23 0 -19 0 -35 8 -23 15 -13 15 -13 19 -9 21 -4 21 -4 30 -2 39 0 45 0 40 10 36 20 43 25 22 23 0 21 0 15 -5 11 -11 8 -11 7 -10 4 -11 0 rrcurveto
          -11 0 -11 -5 -9 -9 -9 -10 -13 -5 -16 0 -25 0 -13 25 0 49 0 27 4 33 8 40 rrcurveto
          82 386 rlineto
          13 63 7 55 0 49 0 72 -15 56 -29 41 -45 66 -87 33 -128 0 -97 -1 -102 -47 -107 -91 -10 -8 -8 -4 -5 0 -7 0 -3 4 0 9 0 3 15 73 30 141 6 28 5 26 5 23 rrcurveto
          endchar
        </CharString>
        <CharString name="hyphenminus">
          0 1038 460 rmoveto
          49 0 50 40 10 50 1 6 1 7 0 6 0 40 -30 31 -43 0 rrcurveto
          -680 hlineto
          -50 0 -49 -41 -10 -49 -1 -7 -1 -6 0 -6 0 -41 30 -30 43 0 rrcurveto
          endchar
        </CharString>
        <CharString name="i">
          0 678 -30 rmoveto
          85 0 75 23 67 45 66 45 82 76 97 108 9 10 5 13 0 16 0 15 -6 14 -11 12 -11 11 -15 6 -18 0 -17 0 -13 -5 -11 -10 -65 -64 -54 -46 -43 -28 -44 -28 -43 -14 -43 0 rrcurveto
          -42 0 -22 27 -1 53 0 42 26 122 51 202 52 202 25 110 0 18 0 25 -8 21 -16 20 -22 26 -30 13 -38 0 -8 0 -109 -27 -211 -53 -29 -7 -25 -13 -21 -19 -21 -19 -11 -24 0 -28 rrcurveto
          0 -28 6 -21 13 -15 13 -15 13 -8 14 0 7 0 39 13 73 26 83 29 45 14 7 0 18 0 9 -10 0 -19 0 -12 -24 -95 -48 -179 -49 -179 -24 -131 0 -81 0 -119 58 -60 115 0 rrcurveto
          154 1265 rmoveto
          38 0 36 15 33 28 45 38 22 46 0 55 -2 26 -8 23 -16 19 -22 30 -30 15 -39 0 -41 0 -37 -14 -34 -29 -42 -39 -22 -45 0 -51 1 -28 9 -25 15 -21 23 -28 31 -15 40 0 rrcurveto
          endchar
        </CharString>
        <CharString name="j">
          0 295 -336 rmoveto
          -45 0 -23 15 0 31 0 85 110 138 220 190 -30 -130 -38 -109 -47 -88 -47 -88 -49 -44 -51 0 rrcurveto
          580 1571 rmoveto
          38 0 36 15 33 28 45 38 22 46 0 55 -2 26 -8 23 -16 19 -22 30 -30 15 -39 0 -41 0 -37 -14 -34 -29 -42 -39 -22 -45 0 -51 1 -28 9 -25 15 -21 23 -28 31 -15 40 0 rrcurveto
          -609 -1715 rmoveto
          87 0 80 32 73 63 73 63 65 110 57 159 20 60 29 114 39 167 rrcurveto
          292 234 rlineto
          15 11 7 16 0 20 0 15 -5 14 -11 13 -11 13 -15 6 -17 0 -15 0 -13 -5 -11 -9 rrcurveto
          -189 -158 rlineto
          71 288 36 148 0 8 -1 41 -10 35 -21 29 -21 29 -27 14 -31 0 -9 0 -110 -27 -209 -53 -71 -18 -36 -42 0 -66 0 -28 7 -20 14 -11 15 -12 13 -6 13 0 8 0 40 13 73 26 rrcurveto
          83 29 45 14 7 0 18 0 9 -10 0 -19 0 -12 -39 -167 -79 -322 -223 -174 -141 -133 -59 -93 -59 -93 -29 -79 0 -64 0 -109 58 -54 115 0 rrcurveto
          endchar
        </CharString>
        <CharString name="k">
          0 897 -30 rmoveto
          31 0 30 14 29 29 50 49 36 63 21 78 1 5 1 6 0 5 0 31 -15 15 -30 0 -25 0 -15 -14 -6 -27 -12 -56 -23 -28 -34 0 -22 0 -62 85 -101 169 -9 15 -5 12 0 9 rrcurveto
          0 11 6 9 12 6 241 117 123 152 4 187 0 112 -56 56 -111 0 -97 0 -124 -57 -152 -115 81 351 41 181 0 13 0 21 -7 17 -14 14 -17 17 -22 8 -27 0 -48 0 -31 -26 -13 -52 rrcurveto
          -216 -921 -107 -467 0 -14 0 -20 5 -18 11 -14 13 -17 20 -9 27 0 22 0 20 7 19 15 18 14 12 18 6 22 rrcurveto
          146 591 rlineto
          4 15 11 16 19 17 137 131 102 65 65 0 52 -1 26 -18 0 -37 0 -101 -135 -108 -271 -115 -15 -7 -8 -10 0 -14 0 -12 5 -13 9 -13 rrcurveto
          278 -411 rlineto
          25 -35 32 -18 39 0 rrcurveto
          endchar
        </CharString>
        <CharString name="l">
          0 612 -30 rmoveto
          60 0 53 10 45 20 77 27 78 65 79 103 11 14 5 15 0 17 -1 21 -9 18 -15 15 -16 15 -18 7 -21 0 -22 0 -20 -11 -19 -22 -40 -55 -36 -38 -33 -23 -33 -23 -38 -11 -42 0 rrcurveto
          -55 0 -27 22 0 43 0 34 25 128 51 222 228 121 153 95 78 69 131 122 66 142 0 161 0 69 -25 57 -51 47 -47 43 -62 21 -78 0 -122 0 -100 -41 -79 -83 -79 -83 -60 -124 -42 -167 rrcurveto
          -92 -360 rlineto
          -118 -51 -81 -33 -45 -15 -31 -11 -15 -22 -1 -33 0 -23 8 -18 17 -13 16 -13 17 -6 17 0 18 0 60 26 103 52 -23 -101 -15 -72 -7 -42 -5 -33 -3 -42 0 -51 3 -134 76 -67 151 0 rrcurveto
          94 810 rmoveto
          72 297 rlineto
          31 120 40 80 51 39 51 39 48 19 47 0 79 -1 40 -37 1 -71 0 -94 -29 -79 -58 -63 -73 -79 -125 -83 -175 -87 rrcurveto
          endchar
        </CharString>
        <CharString name="left_arrow_single">
          0 -490 428 rmoveto
          -8 0 -7 2 -5 7 rrcurveto
          -71 88 rlineto
          -3 4 -2 5 0 5 rrcurveto
          1 8 rlineto
          2 8 4 7 8 6 rrcurveto
          107 89 rlineto
          7 6 9 3 8 0 8 0 8 -3 4 -6 rrcurveto
          70 -89 rlineto
          4 -5 2 -5 0 -5 rrcurveto
          -1 -6 rlineto
          -2 -8 -5 -8 -8 -6 rrcurveto
          -106 -88 rlineto
          -7 -6 -9 -3 -8 0 rrcurveto
          107 -427 rmoveto
          51 0 47 39 11 51 1 6 1 6 0 6 0 16 -5 16 -9 13 rrcurveto
          -89 113 rlineto
          -4 4 -1 6 0 7 rrcurveto
          5 vlineto
          2 8 3 6 9 8 rrcurveto
          138 117 rlineto
          22 17 38 15 25 0 rrcurveto
          1181 hlineto
          49 0 49 40 11 50 rrcurveto
          2 18 rlineto
          0 41 -30 31 -43 0 rrcurveto
          -1180 hlineto
          -25 0 -32 14 -14 18 rrcurveto
          -90 114 rlineto
          -3 3 -2 6 0 5 rrcurveto
          1 8 rlineto
          1 7 5 8 7 6 rrcurveto
          137 113 rlineto
          21 18 14 23 5 23 1 7 1 6 0 6 0 43 -32 29 -41 0 -22 0 -25 -9 -22 -17 rrcurveto
          -554 -459 rlineto
          -22 -19 -14 -21 -5 -24 -1 -6 -1 -7 0 -6 0 -17 5 -16 10 -13 rrcurveto
          360 -457 rlineto
          15 -18 21 -7 22 0 rrcurveto
          endchar
        </CharString>
        <CharString name="left_right_arrow_double">
          0 383 1 rmoveto
          22 0 23 9 24 17 rrcurveto
          554 457 rlineto
          29 25 14 28 0 30 0 17 -5 15 -11 14 rrcurveto
          -359 458 rlineto
          -17 17 -19 9 -22 0 -25 0 -23 -9 -21 -17 -28 -23 -14 -27 0 -32 0 -15 5 -16 9 -15 32 -39 16 -21 0 -2 0 -3 0 -1 0 -1 0 -11 -4 -9 -9 -7 -7 -6 -7 -3 -7 0 rrcurveto
          -1908 hlineto
          -7 0 -6 3 -4 5 -4 5 -2 5 0 5 0 4 1 5 4 7 1 3 25 22 48 39 28 26 14 28 0 30 0 17 -5 14 -10 13 -14 17 -19 9 -25 0 -22 0 -23 -9 -23 -17 rrcurveto
          -555 -458 rlineto
          -28 -24 -14 -28 0 -31 0 -17 5 -15 10 -14 rrcurveto
          360 -457 rlineto
          16 -17 19 -9 22 0 25 0 23 9 21 18 28 23 14 28 0 32 0 16 -4 14 -10 13 rrcurveto
          -46 58 rlineto
          -3 5 -1 4 0 5 0 9 4 9 10 8 7 6 7 3 7 0 rrcurveto
          1912 hlineto
          7 0 6 -3 4 -5 5 -5 2 -5 0 -5 0 -10 -4 -8 -9 -8 rrcurveto
          -70 -58 rlineto
          -28 -24 -14 -27 0 -32 0 -16 5 -14 10 -13 14 -18 19 -9 25 0 rrcurveto
          219 371 rmoveto
          -8 0 -7 3 -5 6 rrcurveto
          -25 33 rlineto
          -15 18 -20 9 -24 0 rrcurveto
          -2008 hlineto
          -24 0 -24 -9 -23 -18 rrcurveto
          -39 -33 rlineto
          -8 -6 -8 -3 -8 0 -8 0 -7 3 -5 6 rrcurveto
          -116 146 rlineto
          -3 5 -2 5 0 5 0 11 5 9 9 8 rrcurveto
          181 149 rlineto
          8 6 8 3 8 0 8 0 6 -3 5 -6 rrcurveto
          26 -33 rlineto
          16 -17 19 -9 23 0 rrcurveto
          2006 hlineto
          23 0 24 9 23 17 rrcurveto
          40 33 rlineto
          7 6 8 3 8 0 8 0 7 -3 5 -6 rrcurveto
          117 -149 rlineto
          4 -5 1 -5 0 -6 0 -9 -4 -9 -10 -9 rrcurveto
          -178 -146 rlineto
          -8 -6 -8 -3 -8 0 rrcurveto
          endchar
        </CharString>
        <CharString name="left_right_arrow_double_long">
          0 383 1 rmoveto
          22 0 23 9 24 17 rrcurveto
          554 457 rlineto
          29 25 14 28 0 30 0 17 -5 15 -11 14 rrcurveto
          -359 458 rlineto
          -17 17 -19 9 -22 0 -25 0 -23 -9 -21 -17 -28 -23 -14 -27 0 -32 0 -15 5 -16 9 -15 32 -39 16 -21 0 -2 0 -3 0 -1 0 -1 0 -11 -4 -9 -9 -7 -7 -6 -7 -3 -7 0 rrcurveto
          -3108 hlineto
          -7 0 -6 3 -4 5 -4 5 -2 5 0 5 0 4 1 5 4 7 1 3 25 22 48 39 28 26 14 28 0 30 0 17 -5 14 -10 13 -14 17 -19 9 -25 0 -22 0 -23 -9 -23 -17 rrcurveto
          -555 -458 rlineto
          -28 -24 -14 -28 0 -31 0 -17 5 -15 10 -14 rrcurveto
          360 -457 rlineto
          16 -17 19 -9 22 0 25 0 23 9 21 18 28 23 14 28 0 32 0 16 -4 14 -10 13 rrcurveto
          -46 58 rlineto
          -3 5 -1 4 0 5 0 9 4 9 10 8 7 6 7 3 7 0 rrcurveto
          3112 hlineto
          7 0 6 -3 4 -5 5 -5 2 -5 0 -5 0 -10 -4 -8 -9 -8 rrcurveto
          -70 -58 rlineto
          -28 -24 -14 -27 0 -32 0 -16 5 -14 10 -13 14 -18 19 -9 25 0 rrcurveto
          219 371 rmoveto
          -8 0 -7 3 -5 6 rrcurveto
          -25 33 rlineto
          -15 18 -20 9 -24 0 rrcurveto
          -3208 hlineto
          -24 0 -24 -9 -23 -18 rrcurveto
          -39 -33 rlineto
          -8 -6 -8 -3 -8 0 -8 0 -7 3 -5 6 rrcurveto
          -116 146 rlineto
          -3 5 -2 5 0 5 0 11 5 9 9 8 rrcurveto
          181 149 rlineto
          8 6 8 3 8 0 8 0 6 -3 5 -6 rrcurveto
          26 -33 rlineto
          16 -17 19 -9 23 0 rrcurveto
          3206 hlineto
          23 0 24 9 23 17 rrcurveto
          40 33 rlineto
          7 6 8 3 8 0 8 0 7 -3 5 -6 rrcurveto
          117 -149 rlineto
          4 -5 1 -5 0 -6 0 -9 -4 -9 -10 -9 rrcurveto
          -178 -146 rlineto
          -8 -6 -8 -3 -8 0 rrcurveto
          endchar
        </CharString>
        <CharString name="left_right_arrow_single">
          0 -1690 428 rmoveto
          -8 0 -7 2 -5 7 rrcurveto
          -71 88 rlineto
          -3 4 -2 5 0 5 rrcurveto
          1 8 rlineto
          2 8 4 7 8 6 rrcurveto
          107 89 rlineto
          7 6 9 3 8 0 8 0 8 -3 4 -6 rrcurveto
          70 -89 rlineto
          4 -5 2 -5 0 -5 rrcurveto
          -1 -6 rlineto
          -2 -8 -5 -8 -8 -6 rrcurveto
          -106 -88 rlineto
          -7 -6 -9 -3 -8 0 rrcurveto
          107 -427 rmoveto
          51 0 47 39 11 51 1 6 1 6 0 6 0 16 -5 16 -9 13 rrcurveto
          -89 113 rlineto
          -4 4 -1 6 0 7 rrcurveto
          5 vlineto
          2 8 3 6 9 8 rrcurveto
          138 117 rlineto
          22 17 38 15 25 0 rrcurveto
          2381 hlineto
          49 0 49 40 11 50 rrcurveto
          2 18 rlineto
          0 41 -30 31 -43 0 rrcurveto
          -2380 hlineto
          -25 0 -32 14 -14 18 rrcurveto
          -90 114 rlineto
          -3 3 -2 6 0 5 rrcurveto
          1 8 rlineto
          1 7 5 8 7 6 rrcurveto
          137 113 rlineto
          21 18 14 23 5 23 1 7 1 6 0 6 0 43 -32 29 -41 0 -22 0 -25 -9 -22 -17 rrcurveto
          -554 -459 rlineto
          -22 -19 -14 -21 -5 -24 -1 -6 -1 -7 0 -6 0 -17 5 -16 10 -13 rrcurveto
          360 -457 rlineto
          15 -18 21 -7 22 0 rrcurveto
          endchar
        </CharString>
        <CharString name="left_right_arrow_single_long">
          0 672 428 rmoveto
          -8 0 -7 3 -5 6 rrcurveto
          -70 88 rlineto
          -4 5 -1 6 0 6 0 9 4 9 10 8 rrcurveto
          108 89 rlineto
          8 6 8 3 8 0 8 0 7 -3 5 -6 rrcurveto
          69 -89 rlineto
          4 -4 2 -5 0 -6 0 -10 -5 -10 -10 -8 rrcurveto
          -107 -88 rlineto
          -8 -6 -8 -3 -8 0 rrcurveto
          -3562 hmoveto
          -8 0 -7 3 -5 6 rrcurveto
          -69 88 rlineto
          -4 5 -2 6 0 6 0 10 5 8 10 8 rrcurveto
          107 89 rlineto
          8 6 8 3 8 0 8 0 7 -3 5 -6 rrcurveto
          70 -89 rlineto
          3 -4 2 -5 0 -5 0 -11 -5 -10 -9 -8 rrcurveto
          -108 -88 rlineto
          -8 -6 -8 -3 -8 0 rrcurveto
          3273 -427 rmoveto
          22 0 23 8 24 17 rrcurveto
          554 457 rlineto
          28 26 14 29 0 29 0 17 -5 14 -10 14 rrcurveto
          -359 459 rlineto
          -17 17 -19 9 -22 0 -23 0 -23 -8 -22 -17 -29 -23 -14 -27 0 -34 0 -16 5 -15 9 -15 rrcurveto
          89 -113 rlineto
          4 -5 1 -6 0 -5 0 -9 -4 -9 -10 -9 rrcurveto
          -138 -114 rlineto
          -11 -9 -14 -7 -16 -6 -17 -7 -14 -3 -13 0 rrcurveto
          -2880 hlineto
          -13 0 -13 3 -13 7 -14 6 -11 7 -7 9 rrcurveto
          -90 114 rlineto
          -3 5 -2 5 0 5 0 10 5 10 9 8 rrcurveto
          137 113 rlineto
          28 26 14 28 0 30 0 18 -5 15 -11 13 -15 17 -19 8 -23 0 -22 0 -23 -9 -23 -17 rrcurveto
          -555 -459 rlineto
          -28 -24 -15 -27 0 -30 0 -16 6 -16 10 -16 rrcurveto
          360 -457 rlineto
          16 -17 19 -8 22 0 25 0 24 9 21 17 27 23 14 27 0 32 0 15 -5 15 -9 15 rrcurveto
          -89 113 rlineto
          -4 5 -1 6 0 6 0 9 4 9 10 9 rrcurveto
          138 117 rlineto
          11 9 14 7 17 7 17 6 14 3 12 0 rrcurveto
          2881 hlineto
          13 0 13 -3 14 -6 13 -7 11 -7 7 -9 rrcurveto
          89 -117 rlineto
          3 -5 2 -5 0 -5 0 -11 -5 -10 -9 -8 rrcurveto
          -137 -113 rlineto
          -28 -26 -14 -27 0 -30 0 -17 5 -14 10 -13 13 -17 20 -9 25 0 rrcurveto
          endchar
        </CharString>
        <CharString name="less">
          0 967 97 rmoveto
          47 0 52 42 10 48 1 6 1 6 0 6 0 27 -13 25 -23 13 rrcurveto
          -421 254 rlineto
          -7 5 -4 7 0 8 rrcurveto
          1 6 rlineto
          2 10 7 7 12 7 rrcurveto
          526 250 rlineto
          35 16 27 33 7 34 rrcurveto
          2 17 rlineto
          0 40 -31 32 -40 0 -14 0 -15 -3 -15 -7 rrcurveto
          -765 -355 rlineto
          -36 -16 -25 -32 -7 -33 -1 -7 -1 -6 0 -6 0 -27 12 -22 23 -13 rrcurveto
          615 -363 rlineto
          10 -6 15 -3 13 0 rrcurveto
          endchar
        </CharString>
        <CharString name="less_greater">
          0 34 156 rmoveto
          -613 368 rlineto
          -7 4 -4 6 0 8 0 15 7 11 15 6 rrcurveto
          768 363 612 -363 rlineto
          8 -5 5 -6 0 -8 0 -14 -8 -10 -15 -7 rrcurveto
          -805 -563 rmoveto
          11 0 20 7 27 14 rrcurveto
          1031 487 rlineto
          37 18 22 27 8 36 1 6 1 7 0 6 0 29 -12 20 -23 13 rrcurveto
          -833 483 rlineto
          -19 10 -17 5 -16 0 -9 0 -16 -5 -24 -11 rrcurveto
          -1038 -482 rlineto
          -17 -8 -15 -11 -12 -15 -17 -21 -8 -22 0 -24 0 -26 12 -20 23 -15 rrcurveto
          825 -488 rlineto
          21 -13 20 -7 17 0 rrcurveto
          endchar
        </CharString>
        <CharString name="less_less">
          0 817 97 rmoveto
          47 0 52 42 10 48 1 6 1 6 0 6 0 27 -13 25 -23 13 rrcurveto
          -421 254 rlineto
          -7 5 -4 7 0 8 rrcurveto
          1 6 rlineto
          2 10 7 7 12 7 rrcurveto
          526 250 rlineto
          35 16 27 33 7 34 rrcurveto
          2 17 rlineto
          0 40 -31 32 -40 0 -14 0 -15 -3 -15 -7 rrcurveto
          -765 -355 rlineto
          -36 -16 -25 -32 -7 -33 -1 -7 -1 -6 0 -6 0 -27 12 -22 23 -13 rrcurveto
          615 -363 rlineto
          10 -6 15 -3 13 0 rrcurveto
          -900 hmoveto
          47 0 52 42 10 48 1 6 1 6 0 6 0 27 -13 25 -23 13 rrcurveto
          -421 254 rlineto
          -7 5 -4 7 0 8 rrcurveto
          1 6 rlineto
          2 10 7 7 12 7 rrcurveto
          526 250 rlineto
          35 16 27 33 7 34 rrcurveto
          2 17 rlineto
          0 40 -31 32 -40 0 -14 0 -15 -3 -15 -7 rrcurveto
          -765 -355 rlineto
          -36 -16 -25 -32 -7 -33 -1 -7 -1 -6 0 -6 0 -27 12 -22 23 -13 rrcurveto
          615 -363 rlineto
          10 -6 15 -3 13 0 rrcurveto
          endchar
        </CharString>
        <CharString name="less_less_less">
          0 -1133 97 rmoveto
          47 0 52 42 10 48 1 6 1 6 0 6 0 27 -13 25 -23 13 rrcurveto
          -421 254 rlineto
          -7 5 -4 7 0 8 rrcurveto
          1 6 rlineto
          2 10 7 7 12 7 rrcurveto
          526 250 rlineto
          35 16 27 33 7 34 rrcurveto
          2 17 rlineto
          0 40 -31 32 -40 0 -14 0 -15 -3 -15 -7 rrcurveto
          -765 -355 rlineto
          -36 -16 -25 -32 -7 -33 -1 -7 -1 -6 0 -6 0 -27 12 -22 23 -13 rrcurveto
          615 -363 rlineto
          10 -6 15 -3 13 0 rrcurveto
          1800 hmoveto
          47 0 52 42 10 48 1 6 1 6 0 6 0 27 -13 25 -23 13 rrcurveto
          -421 254 rlineto
          -7 5 -4 7 0 8 rrcurveto
          1 6 rlineto
          2 10 7 7 12 7 rrcurveto
          526 250 rlineto
          35 16 27 33 7 34 rrcurveto
          2 17 rlineto
          0 40 -31 32 -40 0 -14 0 -15 -3 -15 -7 rrcurveto
          -765 -355 rlineto
          -36 -16 -25 -32 -7 -33 -1 -7 -1 -6 0 -6 0 -27 12 -22 23 -13 rrcurveto
          615 -363 rlineto
          10 -6 15 -3 13 0 rrcurveto
          -900 hmoveto
          47 0 52 42 10 48 1 6 1 6 0 6 0 27 -13 25 -23 13 rrcurveto
          -421 254 rlineto
          -7 5 -4 7 0 8 rrcurveto
          1 6 rlineto
          2 10 7 7 12 7 rrcurveto
          526 250 rlineto
          35 16 27 33 7 34 rrcurveto
          2 17 rlineto
          0 40 -31 32 -40 0 -14 0 -15 -3 -15 -7 rrcurveto
          -765 -355 rlineto
          -36 -16 -25 -32 -7 -33 -1 -7 -1 -6 0 -6 0 -27 12 -22 23 -13 rrcurveto
          615 -363 rlineto
          10 -6 15 -3 13 0 rrcurveto
          endchar
        </CharString>
        <CharString name="less_slash">
          0 -7 -51 rmoveto
          -115 -175 rlineto
          -12 -19 -6 -18 0 -17 0 -31 13 -21 26 -13 11 -5 12 -3 11 0 17 0 17 5 17 10 17 9 14 13 11 17 rrcurveto
          1166 1776 rlineto
          12 19 6 18 0 18 0 30 -13 21 -25 12 -11 5 -12 3 -12 0 -17 0 -17 -5 -17 -9 -17 -9 -15 -13 -11 -17 rrcurveto
          -941 -1434 -681 408 rlineto
          -7 5 -4 6 0 9 rrcurveto
          1 6 rlineto
          2 9 7 8 12 7 rrcurveto
          526 250 rlineto
          37 19 23 27 9 37 rrcurveto
          2 17 rlineto
          0 20 -7 17 -13 14 -14 14 -17 7 -20 0 -14 0 -15 -3 -15 -7 rrcurveto
          -765 -355 rlineto
          -37 -19 -23 -27 -8 -35 -1 -7 -1 -6 0 -6 0 -27 12 -20 23 -15 rrcurveto
          endchar
        </CharString>
        <CharString name="less_slash_greater">
          0 -1067 -353 rmoveto
          17 0 17 5 17 10 17 9 14 13 11 17 rrcurveto
          856 1304 730 -431 rlineto
          9 -5 4 -7 0 -7 -3 -14 -8 -11 -12 -6 rrcurveto
          -529 -254 rlineto
          -42 -21 -24 -34 -5 -45 0 -20 7 -17 14 -14 14 -15 17 -7 21 0 13 0 14 3 15 6 rrcurveto
          769 363 rlineto
          37 17 22 27 8 37 1 7 1 6 0 6 0 26 -12 21 -23 15 rrcurveto
          -929 540 201 306 rlineto
          12 19 6 18 0 18 0 30 -13 21 -25 12 -11 5 -12 3 -12 0 -17 0 -17 -5 -17 -9 -17 -9 -15 -13 -11 -17 rrcurveto
          -941 -1434 -681 408 rlineto
          -7 5 -4 6 0 9 2 13 8 10 12 7 rrcurveto
          526 250 rlineto
          42 21 24 33 5 46 0 20 -7 17 -13 14 -14 14 -17 7 -20 0 -14 0 -15 -3 -15 -7 rrcurveto
          -765 -355 rlineto
          -47 -23 -23 -34 0 -43 0 -27 12 -20 23 -15 rrcurveto
          879 -520 -115 -175 rlineto
          -12 -19 -6 -18 0 -17 0 -31 13 -21 26 -13 11 -5 12 -3 11 0 rrcurveto
          endchar
        </CharString>
        <CharString name="m">
          0 594 -31 rmoveto
          25 0 23 9 21 17 21 17 14 22 6 25 rrcurveto
          158 745 rlineto
          6 26 13 23 21 20 20 20 23 10 25 0 50 0 25 -24 0 -47 0 -9 -1 -10 -2 -11 rrcurveto
          -125 -588 rlineto
          -16 -75 -8 -48 0 -19 0 -34 8 -23 15 -13 15 -13 18 -9 21 -4 21 -4 36 -2 49 0 45 0 40 10 36 20 43 25 22 22 0 21 0 15 -4 11 -9 8 -9 8 -12 4 -14 0 rrcurveto
          -11 0 -11 -5 -13 -10 -13 -10 -14 -5 -13 0 -34 0 -17 24 0 49 0 10 46 223 93 436 6 31 3 29 0 25 0 45 -10 36 -19 27 -31 41 -47 21 -64 0 -68 0 -54 -22 -39 -43 rrcurveto
          -11 -12 -13 -17 -15 -23 -4 -8 -4 -4 -4 0 -2 0 -1 6 0 13 0 34 -10 27 -21 20 -21 19 -37 10 -53 0 -69 0 -55 -33 -41 -65 -7 -14 -6 -8 -5 -1 -2 1 -1 2 0 5 rrcurveto
          0 10 1 10 1 9 rrcurveto
          1 15 rlineto
          0 46 -21 23 -41 0 -23 0 -21 -8 -20 -16 -20 -17 -13 -20 -5 -23 -134 -632 -67 -319 0 -7 0 -17 5 -14 10 -13 13 -17 19 -9 25 0 25 0 23 9 21 17 21 17 13 22 7 25 rrcurveto
          155 731 rlineto
          8 34 15 28 23 21 22 21 23 11 23 0 23 0 19 -7 13 -14 13 -14 7 -17 0 -20 0 -9 -54 -258 -108 -507 -1 -6 -1 -6 0 -6 0 -17 5 -16 11 -13 13 -17 19 -9 24 0 rrcurveto
          endchar
        </CharString>
        <CharString name="n">
          0 1063 -30 rmoveto
          45 0 40 10 36 20 43 25 22 22 0 21 0 15 -4 11 -9 8 -9 8 -12 4 -14 0 -11 0 -11 -5 -13 -10 -13 -10 -14 -5 -13 0 -35 0 -18 24 0 49 0 11 34 162 67 315 rrcurveto
          13 63 7 55 0 49 0 72 -15 56 -29 41 -45 66 -87 33 -128 0 -97 -1 -102 -47 -107 -91 -10 -8 -8 -4 -5 0 -7 0 -3 4 0 9 0 3 2 9 3 15 3 17 2 12 0 7 rrcurveto
          0 18 -5 16 -11 14 -14 18 -19 9 -25 0 -25 0 -23 -9 -22 -18 -23 -19 -14 -23 -6 -27 -132 -622 -66 -315 0 -8 0 -17 5 -14 9 -12 13 -17 21 -9 27 0 29 0 23 9 19 17 rrcurveto
          19 17 12 23 6 28 rrcurveto
          117 548 rlineto
          19 89 51 70 83 51 69 39 64 20 61 1 119 0 59 -55 0 -111 0 -25 -3 -27 -6 -31 rrcurveto
          -91 -432 rlineto
          -14 -67 -7 -43 0 -19 0 -34 8 -23 15 -13 15 -13 18 -9 21 -4 21 -4 36 -2 49 0 rrcurveto
          endchar
        </CharString>
        <CharString name="nine">
          0 683 670 rmoveto
          -55 1 -37 2 -21 5 -71 13 -36 64 -1 114 0 27 4 30 8 33 18 81 37 69 56 55 56 55 72 28 89 0 63 0 48 -22 32 -45 32 -45 16 -60 0 -76 0 -85 -19 -97 -38 -109 rrcurveto
          -111 -25 -84 -13 -58 0 rrcurveto
          -437 -700 rmoveto
          219 4 190 78 163 152 108 96 86 128 64 160 27 14 25 15 21 16 79 60 40 45 0 31 0 19 -11 9 -22 0 -20 0 -33 -10 -47 -19 29 107 14 100 0 93 0 241 -109 121 -217 0 rrcurveto
          -97 0 -88 -22 -77 -45 -77 -45 -65 -60 -52 -75 -82 -117 -41 -128 0 -137 5 -186 97 -100 191 -15 27 -3 28 -1 27 0 58 0 68 7 77 15 -93 -165 -119 -118 -143 -72 -52 -27 -54 -20 -56 -13 rrcurveto
          -60 -14 -39 -15 -18 -17 -19 -17 -9 -17 0 -16 0 -5 2 -5 4 -5 13 -15 17 -7 21 0 rrcurveto
          endchar
        </CharString>
        <CharString name="numbersign">
          0 395 870 rmoveto
          38 180 rlineto
          -61 hlineto
          -48 0 -50 -41 -10 -49 -11 -48 33 -42 48 0 rrcurveto
          901 hmoveto
          48 0 50 42 11 49 10 48 -33 41 -48 0 rrcurveto
          -459 hlineto
          -39 -180 rlineto
          -90 -520 rmoveto
          38 180 rlineto
          -461 hlineto
          -48 0 -51 -42 -10 -48 -10 -48 32 -42 48 0 rrcurveto
          902 hmoveto
          48 0 50 42 10 48 10 48 -32 42 -48 0 rrcurveto
          -61 hlineto
          -38 -180 rlineto
          75 820 rmoveto
          37 171 rlineto
          10 48 -33 41 -49 0 -48 0 -50 -41 -10 -48 rrcurveto
          -37 -171 rlineto
          -164 -1200 rmoveto
          48 0 50 42 10 48 rrcurveto
          147 690 rlineto
          -180 hlineto
          -147 -690 rlineto
          -10 -49 33 -41 49 0 rrcurveto
          -166 680 rmoveto
          147 691 rlineto
          10 48 -33 41 -49 0 -48 0 -50 -41 -11 -48 rrcurveto
          -146 -691 rlineto
          -54 -680 rmoveto
          48 0 50 42 10 48 rrcurveto
          36 170 rlineto
          -180 hlineto
          -36 -170 rlineto
          -10 -49 33 -41 49 0 rrcurveto
          endchar
        </CharString>
        <CharString name="numbersign_braceleft">
          0 672 505 rmoveto
          24 0 14 14 6 27 3 14 -4 13 -12 12 rrcurveto
          -72 81 rlineto
          -9 10 -3 11 3 13 3 13 7 12 13 9 rrcurveto
          107 81 rlineto
          17 12 10 13 3 14 5 27 -8 14 -24 0 -6 0 -7 -1 -8 -3 rrcurveto
          -325 -136 rlineto
          -31 -9 -18 -19 -6 -27 -6 -27 11 -19 27 -9 rrcurveto
          267 -136 rlineto
          7 -3 6 -1 6 0 rrcurveto
          200 -768 rmoveto
          22 0 21 8 19 15 19 15 13 22 6 29 5 24 -4 20 -13 16 -13 16 -17 8 -21 0 rrcurveto
          -68 hlineto
          -76 0 -53 11 -28 23 -45 35 -16 49 13 60 9 43 8 27 23 104 7 35 -29 41 -31 17 rrcurveto
          -261 137 rlineto
          -46 25 -53 13 -56 0 rrcurveto
          -304 hlineto
          -39 -180 rlineto
          543 hlineto
          48 0 47 -48 -10 -47 0 0 -35 -141 -6 -27 -26 -125 22 -94 71 -65 21 -21 25 -15 30 -10 31 -10 28 -6 26 -1 25 -2 34 -1 43 0 rrcurveto
          -502 1133 rmoveto
          56 0 59 13 56 24 rrcurveto
          320 138 rlineto
          36 16 48 42 8 35 rrcurveto
          19 89 rlineto
          6 40 5 29 4 16 13 61 36 48 60 35 38 23 58 11 76 0 rrcurveto
          69 hlineto
          21 0 20 8 20 16 20 16 12 20 6 24 6 30 -3 22 -13 15 -13 15 -18 7 -22 0 rrcurveto
          -92 hlineto
          -43 0 -34 -1 -26 -1 -26 -2 -31 -6 -35 -10 -34 -10 -32 -15 -30 -21 -98 -64 -62 -95 -27 -125 -6 -27 -11 -56 -13 -83 rrcurveto
          -1 -2 rlineto
          -10 -47 -67 -48 -48 0 rrcurveto
          -943 hlineto
          -38 -180 rlineto
          -380 hmoveto
          38 180 rlineto
          -61 hlineto
          -48 0 -50 -41 -10 -49 -11 -48 33 -42 48 0 rrcurveto
          351 -520 rmoveto
          38 180 rlineto
          -461 hlineto
          -48 0 -51 -42 -10 -48 -10 -48 32 -42 48 0 rrcurveto
          916 820 rmoveto
          37 171 rlineto
          10 48 -33 41 -49 0 -48 0 -50 -41 -10 -48 rrcurveto
          -37 -171 rlineto
          -164 -1200 rmoveto
          48 0 50 42 10 48 rrcurveto
          147 690 rlineto
          -180 hlineto
          -147 -690 rlineto
          -10 -49 33 -41 49 0 rrcurveto
          -166 680 rmoveto
          147 691 rlineto
          10 48 -33 41 -49 0 -48 0 -50 -41 -11 -48 rrcurveto
          -146 -691 rlineto
          -54 -680 rmoveto
          48 0 50 42 10 48 rrcurveto
          36 170 rlineto
          -180 hlineto
          -36 -170 rlineto
          -10 -49 33 -41 49 0 rrcurveto
          endchar
        </CharString>
        <CharString name="numbersign_bracketleft">
          0 -805 870 rmoveto
          38 180 rlineto
          -61 hlineto
          -24 0 -23 -9 -22 -18 -21 -18 -14 -21 -5 -24 -5 -24 4 -21 15 -18 14 -18 19 -9 24 0 rrcurveto
          61 -900 rmoveto
          24 0 23 9 21 18 22 18 14 21 5 24 rrcurveto
          36 170 rlineto
          -181 hlineto
          -36 -170 rlineto
          -5 -24 4 -21 14 -18 15 -18 19 -9 25 0 rrcurveto
          234 680 rmoveto
          147 691 rlineto
          5 24 -4 21 -15 18 -14 17 -19 9 -25 0 -24 0 -23 -9 -22 -17 -21 -18 -14 -21 -5 -24 rrcurveto
          -147 -691 rlineto
          347 -680 rmoveto
          24 0 22 9 22 18 21 18 14 21 5 24 rrcurveto
          146 690 rlineto
          -180 hlineto
          -146 -690 rlineto
          -5 -24 4 -21 14 -18 15 -18 19 -9 25 0 rrcurveto
          344 1200 rmoveto
          36 171 rlineto
          5 24 -4 21 -14 18 -14 17 -19 9 -25 0 -24 0 -23 -9 -22 -17 -21 -18 -14 -21 -5 -24 rrcurveto
          -36 -171 rlineto
          716 -300 rmoveto
          -72 -340 rlineto
          -500 hlineto
          -39 -180 rlineto
          500 hlineto
          -112 -527 rlineto
          -5 -25 5 -22 14 -18 14 -19 21 -9 26 0 rrcurveto
          456 hlineto
          24 0 23 9 22 18 21 17 13 21 6 25 5 25 -4 21 -14 18 -14 17 -19 9 -25 0 rrcurveto
          -337 hlineto
          -22 1 -9 11 5 21 rrcurveto
          322 1515 rlineto
          7 21 13 11 20 0 rrcurveto
          337 hlineto
          24 0 23 9 22 18 21 17 14 21 5 25 5 25 -4 21 -14 18 -14 17 -19 9 -25 0 rrcurveto
          -456 hlineto
          -26 0 -24 -9 -22 -18 -23 -19 -13 -22 -6 -25 rrcurveto
          -112 -527 rlineto
          -900 hlineto
          -38 -180 rlineto
          -91 -520 rmoveto
          39 180 rlineto
          -461 hlineto
          -24 0 -23 -9 -22 -18 -22 -18 -13 -21 -5 -24 -6 -24 5 -21 14 -18 14 -18 19 -9 24 0 rrcurveto
          endchar
        </CharString>
        <CharString name="numbersign_expand">
          0 395 870 rmoveto
          38 180 rlineto
          -61 hlineto
          -48 0 -50 -41 -10 -49 -11 -48 33 -42 48 0 rrcurveto
          1261 hmoveto
          38 180 rlineto
          -819 hlineto
          -39 -180 rlineto
          -90 -520 rmoveto
          38 180 rlineto
          -461 hlineto
          -48 0 -51 -42 -10 -48 -10 -48 32 -42 48 0 rrcurveto
          1662 hmoveto
          38 180 rlineto
          -821 hlineto
          -38 -180 rlineto
          75 820 rmoveto
          37 171 rlineto
          10 48 -33 41 -49 0 -48 0 -50 -41 -10 -48 rrcurveto
          -37 -171 rlineto
          -164 -1200 rmoveto
          48 0 50 42 10 48 rrcurveto
          147 690 rlineto
          -180 hlineto
          -147 -690 rlineto
          -10 -49 33 -41 49 0 rrcurveto
          -166 680 rmoveto
          147 691 rlineto
          10 48 -33 41 -49 0 -48 0 -50 -41 -11 -48 rrcurveto
          -146 -691 rlineto
          -54 -680 rmoveto
          48 0 50 42 10 48 rrcurveto
          36 170 rlineto
          -180 hlineto
          -36 -170 rlineto
          -10 -49 33 -41 49 0 rrcurveto
          endchar
        </CharString>
        <CharString name="numbersign_parenleft">
          0 -805 870 rmoveto
          38 180 rlineto
          -61 hlineto
          -24 0 -23 -9 -22 -18 -21 -18 -14 -21 -5 -24 -5 -24 4 -21 15 -18 14 -18 19 -9 24 0 rrcurveto
          61 -900 rmoveto
          24 0 23 9 21 18 22 18 14 21 5 24 rrcurveto
          36 170 rlineto
          -181 hlineto
          -36 -170 rlineto
          -5 -24 4 -21 14 -18 15 -18 19 -9 25 0 rrcurveto
          234 680 rmoveto
          147 691 rlineto
          5 24 -4 21 -15 18 -14 17 -19 9 -25 0 -24 0 -23 -9 -22 -17 -21 -18 -14 -21 -5 -24 rrcurveto
          -147 -691 rlineto
          347 -680 rmoveto
          24 0 22 9 22 18 21 18 14 21 5 24 rrcurveto
          146 690 rlineto
          -180 hlineto
          -146 -690 rlineto
          -5 -24 4 -21 14 -18 15 -18 19 -9 25 0 rrcurveto
          344 1200 rmoveto
          36 171 rlineto
          5 24 -4 21 -14 18 -14 17 -19 9 -25 0 -24 0 -23 -9 -22 -17 -21 -18 -14 -21 -5 -24 rrcurveto
          -36 -171 rlineto
          1028 -1540 rmoveto
          31 0 27 13 23 25 11 10 7 15 4 19 6 30 -7 24 -20 17 -101 80 -80 96 -60 111 -87 157 -22 182 41 207 rrcurveto
          19 90 rlineto
          41 179 99 174 158 170 105 111 120 96 135 81 28 17 17 23 6 30 4 17 -1 15 -4 12 -11 26 -22 13 -33 0 -15 0 -13 -3 -11 -6 -174 -92 -152 -116 -129 -141 -80 -88 -63 -87 -49 -87 rrcurveto
          -922 hlineto
          -38 -180 rlineto
          874 hlineto
          -23 -61 -21 -77 -20 -94 -8 -37 -7 -36 -4 -35 rrcurveto
          -463 hlineto
          -39 -180 rlineto
          494 hlineto
          4 -131 29 -121 54 -111 70 -140 102 -116 135 -92 9 -6 12 -3 14 0 rrcurveto
          -1303 720 rmoveto
          39 180 rlineto
          -461 hlineto
          -24 0 -23 -9 -22 -18 -22 -18 -13 -21 -5 -24 -6 -24 5 -21 14 -18 14 -18 19 -9 24 0 rrcurveto
          endchar
        </CharString>
        <CharString name="o">
          0 603 -30 rmoveto
          94 0 83 22 71 43 71 43 64 63 57 81 57 81 41 102 26 122 14 64 6 59 0 53 0 46 -5 42 -10 38 -22 81 -37 63 -53 43 -53 43 -74 21 -94 0 -93 0 -82 -21 -71 -43 rrcurveto
          -72 -43 -64 -63 -57 -81 -57 -81 -41 -101 -25 -120 -14 -66 -7 -60 0 -54 0 -46 5 -42 10 -37 45 -168 111 -84 176 0 rrcurveto
          40 186 rmoveto
          -86 0 -55 24 -23 48 -23 47 -12 50 0 51 0 43 6 50 12 56 25 120 42 92 57 63 57 63 71 31 86 0 85 0 55 -24 23 -49 23 -48 12 -50 0 -51 0 -43 -6 -49 -12 -55 rrcurveto
          -52 -246 -112 -123 -173 0 rrcurveto
          endchar
        </CharString>
        <CharString name="one">
          0 995 hmoveto
          24 0 24 9 22 18 27 24 15 27 3 31 0 21 -7 18 -13 14 -13 14 -17 7 -23 0 rrcurveto
          -247 hlineto
          -22 4 -11 15 0 24 171 723 86 371 0 18 0 25 -9 21 -19 18 -19 19 -25 9 -31 0 -52 0 -36 -20 -20 -39 -73 -152 -83 -79 -92 -6 -92 -6 -46 -25 0 -46 0 -52 52 -26 103 0 rrcurveto
          111 0 68 28 23 56 rrcurveto
          -201 -837 rlineto
          -2 -11 -6 -10 -10 -9 -10 -8 -11 -5 -11 0 rrcurveto
          -207 hlineto
          -25 0 -25 -10 -26 -20 -26 -20 -13 -28 0 -37 0 -18 6 -16 13 -13 13 -14 18 -7 22 0 rrcurveto
          endchar
        </CharString>
        <CharString name="p">
          0 663 158 rmoveto
          -71 0 -53 25 -37 50 -29 42 -15 44 0 45 0 15 2 15 3 16 rrcurveto
          45 211 rlineto
          17 78 39 63 63 48 63 48 63 24 65 0 134 -3 68 -69 0 -136 0 -36 -5 -42 -10 -46 -29 -135 -47 -100 -65 -66 -60 -61 -67 -30 -74 0 rrcurveto
          -479 -646 rmoveto
          23 0 22 9 22 17 21 17 14 23 6 28 rrcurveto
          88 412 rlineto
          5 25 13 13 20 0 12 0 11 -6 10 -11 48 -46 66 -23 85 0 119 0 106 49 93 98 103 107 71 148 40 189 16 74 8 66 0 58 0 214 -106 107 -212 0 -101 0 -89 -38 -79 -77 rrcurveto
          -8 -7 -8 -4 -8 0 -8 0 -5 10 0 20 rrcurveto
          3 38 rlineto
          0 39 -23 19 -45 0 -25 0 -24 -8 -21 -17 -21 -17 -14 -22 -6 -28 -198 -929 -99 -468 0 -7 0 -18 6 -16 11 -12 15 -17 19 -9 24 0 rrcurveto
          endchar
        </CharString>
        <CharString name="parenleft">
          0 798 -319 rmoveto
          31 0 27 13 24 25 15 15 8 22 0 27 0 21 -8 17 -15 13 -101 80 -81 96 -59 111 -59 106 -29 118 0 129 0 62 7 64 13 67 rrcurveto
          19 90 rlineto
          41 179 99 174 158 170 105 111 120 96 135 81 36 22 18 30 0 39 0 8 -2 8 -3 7 -11 26 -22 13 -32 0 -15 0 -13 -3 -11 -6 -174 -92 -152 -116 -130 -141 -173 -191 -110 -209 -49 -228 rrcurveto
          -25 -115 -13 -99 0 -83 0 -144 30 -134 59 -122 70 -140 102 -116 135 -92 9 -6 11 -3 15 0 rrcurveto
          endchar
        </CharString>
        <CharString name="parenright">
          0 266 -319 rmoveto
          15 0 13 3 11 6 174 92 152 116 130 140 173 191 112 217 51 243 rrcurveto
          10 46 rlineto
          17 79 8 77 0 74 0 141 -30 132 -60 125 -70 141 -102 116 -135 92 -9 6 -11 3 -15 0 -33 0 -27 -13 -22 -26 -16 -19 -7 -21 0 -24 0 -21 8 -16 16 -13 101 -81 79 -96 57 -111 rrcurveto
          61 -120 30 -123 0 -125 0 -51 -5 -52 -10 -52 rrcurveto
          -19 -90 rlineto
          -47 -207 -100 -182 -153 -157 -107 -111 -121 -96 -135 -80 -36 -22 -18 -31 0 -40 0 -9 2 -7 3 -6 13 -25 21 -13 31 0 rrcurveto
          endchar
        </CharString>
        <CharString name="percent">
          0 544 865 rmoveto
          -59 0 -30 36 0 72 0 25 4 29 7 34 32 150 56 75 79 0 57 0 29 -38 0 -77 0 -30 -5 -37 -9 -43 -27 -131 -54 -65 -80 0 rrcurveto
          -31 -144 rmoveto
          92 0 78 32 65 65 64 64 42 81 21 98 11 51 5 46 0 41 0 58 -11 46 -22 36 -38 61 -65 30 -91 0 -191 0 -122 -123 -55 -246 -8 -37 -4 -35 0 -32 0 -56 12 -48 25 -39 rrcurveto
          38 -62 64 -31 90 0 rrcurveto
          -304 -571 rmoveto
          28 0 35 13 24 23 rrcurveto
          323 316 rlineto
          14 13 13 21 4 19 1 7 1 6 0 6 0 39 -29 24 -41 0 -18 0 -24 -8 -18 -15 rrcurveto
          -353 -284 rlineto
          -30 -24 -9 -29 -6 -26 rrcurveto
          -2 -17 rlineto
          0 -41 28 -43 59 0 rrcurveto
          707 613 rmoveto
          19 0 23 8 19 15 rrcurveto
          352 284 rlineto
          30 24 7 19 7 29 2 8 1 8 0 8 0 46 -30 37 -56 1 -28 0 -36 -12 -24 -24 rrcurveto
          -323 -316 rlineto
          -16 -16 -11 -19 -4 -18 -1 -7 -1 -6 0 -6 0 -39 26 -24 44 0 rrcurveto
          -50 -639 rmoveto
          -59 0 -30 36 0 72 0 25 4 30 7 33 32 150 56 75 80 0 57 0 28 -39 0 -77 0 -30 -4 -37 -9 -42 -28 -131 -54 -65 -80 0 rrcurveto
          -30 -144 rmoveto
          91 0 78 32 65 65 64 64 43 81 21 98 11 51 5 46 0 40 0 58 -11 47 -22 36 -38 61 -65 30 -91 0 -191 0 -123 -123 -55 -246 -8 -37 -4 -35 0 -31 0 -57 13 -48 24 -39 rrcurveto
          39 -62 64 -31 90 0 rrcurveto
          endchar
        </CharString>
        <CharString name="period">
          0 597 -30 rmoveto
          43 0 41 16 38 33 50 42 25 52 0 60 0 29 -8 26 -17 23 -25 33 -34 16 -43 0 -46 0 -42 -16 -38 -32 -51 -43 -26 -51 0 -59 0 -30 9 -27 18 -24 25 -32 35 -16 46 0 rrcurveto
          endchar
        </CharString>
        <CharString name="period_period">
          0 397 -30 rmoveto
          43 0 41 16 38 33 50 42 25 52 0 60 0 29 -8 26 -17 23 -25 33 -34 16 -43 0 -46 0 -42 -16 -38 -32 -51 -43 -26 -51 0 -59 0 -30 9 -27 18 -24 25 -32 35 -16 46 0 rrcurveto
          -800 hmoveto
          43 0 41 16 38 33 50 42 25 52 0 60 0 29 -8 26 -17 23 -25 33 -34 16 -43 0 -46 0 -42 -16 -38 -32 -51 -43 -26 -51 0 -59 0 -30 9 -27 18 -24 25 -32 35 -16 46 0 rrcurveto
          endchar
        </CharString>
        <CharString name="period_period_period">
          0 97 -30 rmoveto
          43 0 41 16 38 33 50 42 25 52 0 60 0 29 -8 26 -17 23 -25 33 -34 16 -43 0 -46 0 -42 -16 -38 -32 -51 -43 -26 -51 0 -59 0 -30 9 -27 18 -24 25 -32 35 -16 46 0 rrcurveto
          -700 hmoveto
          43 0 41 16 38 33 50 42 25 52 0 60 0 29 -8 26 -17 23 -25 33 -34 16 -43 0 -46 0 -42 -16 -38 -32 -51 -43 -26 -51 0 -59 0 -30 9 -27 18 -24 25 -32 35 -16 46 0 rrcurveto
          -700 hmoveto
          43 0 41 16 38 33 50 42 25 52 0 60 0 29 -8 26 -17 23 -25 33 -34 16 -43 0 -46 0 -42 -16 -38 -32 -51 -43 -26 -51 0 -59 0 -30 9 -27 18 -24 25 -32 35 -16 46 0 rrcurveto
          endchar
        </CharString>
        <CharString name="placeholder">
          0 endchar
        </CharString>
        <CharString name="plus">
          0 625 119 rmoveto
          25 0 23 9 22 18 21 18 14 21 5 25 rrcurveto
          53 250 rlineto
          250 hlineto
          25 0 23 9 21 18 28 23 14 28 0 32 0 16 -5 15 -10 13 -14 17 -19 9 -25 0 rrcurveto
          -250 hlineto
          37 174 18 89 0 7 0 16 -5 15 -10 13 -14 17 -19 9 -25 0 -25 0 -23 -9 -21 -17 -21 -18 -14 -21 -5 -25 rrcurveto
          -53 -250 rlineto
          -250 hlineto
          -25 0 -23 -9 -21 -17 -28 -24 -14 -27 0 -33 0 -16 5 -14 10 -13 14 -18 19 -9 25 0 rrcurveto
          250 hlineto
          -37 -174 -18 -89 0 -7 0 -16 5 -15 10 -13 13 -18 19 -9 25 0 rrcurveto
          endchar
        </CharString>
        <CharString name="plus_plus">
          0 505 119 rmoveto
          25 0 23 9 22 18 21 18 14 21 5 25 rrcurveto
          53 250 rlineto
          250 hlineto
          25 0 23 9 21 18 28 23 14 28 0 32 0 16 -5 15 -10 13 -14 17 -19 9 -25 0 rrcurveto
          -250 hlineto
          37 174 18 89 0 7 0 16 -5 15 -10 13 -14 17 -19 9 -25 0 -25 0 -23 -9 -21 -17 -21 -18 -14 -21 -5 -25 rrcurveto
          -53 -250 rlineto
          -780 hlineto
          37 174 18 89 0 7 0 16 -5 15 -10 13 -14 17 -19 9 -25 0 -25 0 -23 -9 -21 -17 -21 -18 -14 -21 -5 -25 rrcurveto
          -53 -250 rlineto
          -250 hlineto
          -25 0 -23 -9 -21 -17 -28 -24 -14 -27 0 -33 0 -16 5 -14 10 -13 14 -18 19 -9 25 0 rrcurveto
          250 hlineto
          -37 -174 -18 -89 0 -7 0 -16 5 -15 10 -13 13 -18 19 -9 25 0 25 0 23 9 22 18 21 18 14 21 5 25 rrcurveto
          53 250 rlineto
          780 hlineto
          -37 -174 -18 -89 0 -7 0 -16 5 -15 10 -13 13 -18 19 -9 25 0 rrcurveto
          endchar
        </CharString>
        <CharString name="plus_plus_plus">
          0 385 119 rmoveto
          25 0 23 9 22 18 21 18 14 21 5 25 rrcurveto
          53 250 rlineto
          250 hlineto
          25 0 23 9 21 18 28 23 14 28 0 32 0 16 -5 15 -10 13 -14 17 -19 9 -25 0 rrcurveto
          -250 hlineto
          37 174 18 89 0 7 0 16 -5 15 -10 13 -14 17 -19 9 -25 0 -25 0 -23 -9 -21 -17 -21 -18 -14 -21 -5 -25 rrcurveto
          -53 -250 rlineto
          -780 hlineto
          37 174 18 89 0 7 0 16 -5 15 -10 13 -14 17 -19 9 -25 0 -25 0 -23 -9 -21 -17 -21 -18 -14 -21 -5 -25 rrcurveto
          -53 -250 rlineto
          -780 hlineto
          37 174 18 89 0 7 0 16 -5 15 -10 13 -14 17 -19 9 -25 0 -25 0 -23 -9 -21 -17 -21 -18 -14 -21 -5 -25 rrcurveto
          -53 -250 rlineto
          -250 hlineto
          -25 0 -23 -9 -21 -17 -28 -24 -14 -27 0 -33 0 -16 5 -14 10 -13 14 -18 19 -9 25 0 rrcurveto
          250 hlineto
          -37 -174 -18 -89 0 -7 0 -16 5 -15 10 -13 13 -18 19 -9 25 0 25 0 23 9 22 18 21 18 14 21 5 25 rrcurveto
          53 250 rlineto
          780 hlineto
          -37 -174 -18 -89 0 -7 0 -16 5 -15 10 -13 13 -18 19 -9 25 0 25 0 23 9 22 18 21 18 14 21 5 25 rrcurveto
          53 250 rlineto
          780 hlineto
          -37 -174 -18 -89 0 -7 0 -16 5 -15 10 -13 13 -18 19 -9 25 0 rrcurveto
          endchar
        </CharString>
        <CharString name="q">
          0 612 161 rmoveto
          -87 0 -60 30 -35 61 -12 24 -7 34 0 44 0 53 9 68 18 82 46 218 109 111 172 4 65 0 51 -21 37 -41 36 -41 18 -45 0 -50 0 -20 -2 -21 -5 -22 rrcurveto
          -45 -213 rlineto
          -14 -64 -39 -60 -63 -56 -57 -50 -64 -25 -71 0 rrcurveto
          296 -656 rmoveto
          69 0 55 21 42 41 9 9 4 11 0 15 0 11 -3 10 -7 10 -7 9 -11 5 -13 0 -10 0 -12 -3 -13 -5 -14 -5 -11 -3 -8 0 -25 0 -12 12 0 23 0 5 50 234 99 464 rrcurveto
          89 421 45 214 0 8 0 17 -5 14 -10 12 -14 17 -20 8 -25 0 -54 0 -33 -24 -12 -47 -10 -37 -11 -18 -13 0 -8 0 -6 4 -5 7 -47 77 -68 38 -90 0 -276 0 -176 -181 -77 -363 rrcurveto
          -19 -88 -9 -77 0 -67 0 -86 15 -67 32 -50 55 -88 87 -44 119 0 85 0 75 23 67 46 17 11 13 6 11 0 16 0 8 -8 0 -16 0 -6 -24 -112 -46 -217 -5 -22 -2 -20 0 -19 rrcurveto
          0 -87 50 -43 99 0 rrcurveto
          endchar
        </CharString>
        <CharString name="question">
          0 698 462 rmoveto
          55 0 37 29 20 59 19 59 58 67 96 76 110 89 70 116 31 143 8 37 4 35 0 33 0 64 -15 54 -31 45 -47 68 -84 34 -121 0 -173 0 -129 -74 -85 -147 -23 -40 -12 -34 0 -29 rrcurveto
          0 -42 24 -20 48 -1 17 0 16 4 16 9 15 9 21 22 25 37 57 83 67 41 76 0 109 -1 54 -46 0 -89 0 -105 -53 -93 -106 -80 -73 -57 -55 -48 -39 -41 -39 -41 -27 -51 -13 -60 rrcurveto
          -3 -15 -2 -14 0 -12 0 -49 26 -24 51 0 rrcurveto
          -101 -492 rmoveto
          43 0 41 16 38 33 50 42 25 52 0 60 0 29 -8 26 -17 23 -25 33 -34 16 -43 0 -46 0 -42 -16 -38 -32 -51 -43 -26 -51 0 -59 0 -30 9 -27 18 -24 25 -32 35 -16 46 0 rrcurveto
          endchar
        </CharString>
        <CharString name="question_question">
          0 558 462 rmoveto
          55 0 37 29 20 59 19 59 58 67 96 76 110 89 70 116 31 143 8 37 4 35 0 33 0 64 -15 54 -31 45 -47 68 -84 34 -121 0 -173 0 -129 -74 -85 -147 -23 -40 -12 -34 0 -29 rrcurveto
          0 -42 24 -20 48 -1 17 0 16 4 16 9 15 9 21 22 25 37 57 83 67 41 76 0 109 -1 54 -46 0 -89 0 -105 -53 -93 -106 -80 -73 -57 -55 -48 -39 -41 -39 -41 -27 -51 -13 -60 rrcurveto
          -3 -15 -2 -14 0 -12 0 -49 26 -24 51 0 rrcurveto
          -101 -492 rmoveto
          43 0 41 16 38 33 50 42 25 52 0 60 0 29 -8 26 -17 23 -25 33 -34 16 -43 0 -46 0 -42 -16 -38 -32 -51 -43 -26 -51 0 -59 0 -30 9 -27 18 -24 25 -32 35 -16 46 0 rrcurveto
          -819 492 rmoveto
          55 0 37 29 20 59 19 59 58 67 96 76 110 89 70 116 31 143 8 37 4 35 0 33 0 64 -15 54 -31 45 -47 68 -84 34 -121 0 -173 0 -129 -74 -85 -147 -23 -40 -12 -34 0 -29 rrcurveto
          0 -42 24 -20 48 -1 17 0 16 4 16 9 15 9 21 22 25 37 57 83 67 41 76 0 109 -1 54 -46 0 -89 0 -105 -53 -93 -106 -80 -73 -57 -55 -48 -39 -41 -39 -41 -27 -51 -13 -60 rrcurveto
          -3 -15 -2 -14 0 -12 0 -49 26 -24 51 0 rrcurveto
          -101 -492 rmoveto
          43 0 41 16 38 33 50 42 25 52 0 60 0 29 -8 26 -17 23 -25 33 -34 16 -43 0 -46 0 -42 -16 -38 -32 -51 -43 -26 -51 0 -59 0 -30 9 -27 18 -24 25 -32 35 -16 46 0 rrcurveto
          endchar
        </CharString>
        <CharString name="quotedbl">
          0 647 970 rmoveto
          49 0 50 42 10 48 rrcurveto
          66 310 2 17 rlineto
          0 41 -30 32 -43 0 -48 0 -50 -42 -11 -48 rrcurveto
          -66 -310 -2 -17 rlineto
          0 -41 31 -32 42 0 rrcurveto
          319 hmoveto
          49 0 50 42 10 48 rrcurveto
          66 310 2 17 rlineto
          0 41 -30 32 -43 0 -48 0 -50 -42 -11 -48 rrcurveto
          -66 -310 -2 -17 rlineto
          0 -41 31 -32 42 0 rrcurveto
          endchar
        </CharString>
        <CharString name="quotesingle">
          0 807 970 rmoveto
          49 0 50 42 10 48 rrcurveto
          66 310 2 17 rlineto
          0 41 -30 32 -43 0 -48 0 -50 -42 -11 -48 rrcurveto
          -66 -310 -2 -17 rlineto
          0 -41 31 -32 42 0 rrcurveto
          endchar
        </CharString>
        <CharString name="r">
          0 286 -30 rmoveto
          24 0 23 9 21 17 21 17 13 21 5 27 rrcurveto
          111 519 rlineto
          17 81 54 72 92 65 92 64 79 32 67 0 94 0 47 -38 0 -76 0 -28 -7 -23 -14 -17 -14 -18 -18 -11 -22 -4 -38 -7 -19 -15 0 -25 0 -31 18 -16 37 0 91 0 65 29 41 57 rrcurveto
          35 51 19 61 1 71 0 63 -16 49 -33 34 -48 53 -70 27 -92 0 -117 0 -115 -51 -113 -103 -11 -10 -8 -5 -6 0 -9 0 -4 6 0 11 0 4 2 13 5 22 5 22 2 15 0 6 rrcurveto
          0 17 -5 14 -10 13 -15 17 -20 9 -27 0 -24 0 -22 -9 -20 -17 -21 -17 -13 -22 -6 -25 -133 -628 -67 -318 0 -6 0 -17 5 -14 9 -11 13 -17 21 -9 28 0 rrcurveto
          endchar
        </CharString>
        <CharString name="referencemark">
          0 818 1021 rmoveto
          34 0 32 12 30 25 40 33 20 40 0 48 0 23 -7 20 -14 17 -19 24 -27 12 -35 0 -35 0 -32 -12 -29 -24 -39 -32 -20 -40 0 -47 0 -23 7 -21 14 -18 20 -25 27 -12 33 0 rrcurveto
          -637 -866 rmoveto
          24 0 23 10 21 20 rrcurveto
          476 392 309 -393 rlineto
          15 -19 19 -9 22 0 22 0 23 10 23 19 28 23 15 26 0 29 0 16 -6 15 -12 15 rrcurveto
          -309 390 476 393 rlineto
          27 23 14 25 0 29 0 16 -6 15 -11 14 -15 18 -18 9 -23 0 -22 0 -22 -9 -21 -17 rrcurveto
          -476 -393 -309 393 rlineto
          -14 17 -19 9 -23 0 -21 0 -22 -9 -23 -18 -28 -23 -15 -26 0 -27 0 -18 7 -15 12 -14 rrcurveto
          306 -392 -473 -392 rlineto
          -30 -22 -15 -26 0 -29 0 -16 6 -15 11 -15 14 -19 18 -10 22 0 rrcurveto
          93 416 rmoveto
          34 0 32 12 30 25 40 33 20 40 0 48 0 23 -7 20 -14 17 -19 24 -27 12 -35 0 -33 0 -32 -12 -29 -24 -39 -32 -20 -40 0 -47 0 -23 7 -21 14 -18 19 -25 26 -12 33 0 rrcurveto
          893 hmoveto
          33 0 32 12 30 25 40 33 20 40 0 48 0 23 -7 20 -14 17 -19 24 -26 12 -35 0 -34 0 -32 -12 -29 -24 -39 -32 -20 -40 0 -47 0 -23 7 -21 14 -18 19 -25 27 -12 33 0 rrcurveto
          -540 -446 rmoveto
          34 0 32 12 30 25 40 33 20 39 0 47 0 23 -7 20 -14 17 -19 24 -27 12 -35 0 -35 0 -32 -12 -29 -24 -39 -32 -19 -39 0 -47 0 -23 7 -20 14 -18 19 -25 27 -12 33 0 rrcurveto
          endchar
        </CharString>
        <CharString name="right_arrow_double">
          0 383 1 rmoveto
          22 0 25 9 22 17 rrcurveto
          554 457 rlineto
          22 19 14 22 5 24 1 6 1 6 0 6 0 17 -6 16 -10 13 rrcurveto
          -359 458 rlineto
          -16 18 -20 8 -22 0 -49 0 -49 -40 -11 -50 -1 -6 -1 -6 0 -7 0 -16 5 -17 9 -12 rrcurveto
          44 -54 rlineto
          3 -4 1 -4 0 -4 rrcurveto
          -1 -9 rlineto
          -3 -15 -15 -13 -15 0 rrcurveto
          -1294 hlineto
          -48 0 -51 -39 -11 -51 rrcurveto
          -2 -17 rlineto
          0 -42 32 -31 41 0 rrcurveto
          1343 hlineto
          23 0 27 10 20 16 rrcurveto
          40 33 rlineto
          7 6 8 3 8 0 8 0 7 -3 5 -6 rrcurveto
          117 -149 rlineto
          4 -5 1 -5 0 -6 rrcurveto
          -5 vlineto
          -2 -8 -5 -8 -7 -6 rrcurveto
          -178 -146 rlineto
          -7 -6 -9 -3 -8 0 -8 0 -7 3 -5 6 rrcurveto
          -25 33 rlineto
          -14 18 -21 9 -24 0 rrcurveto
          -1344 hlineto
          -48 0 -51 -39 -10 -51 -1 -6 -1 -7 0 -6 0 -41 31 -30 41 0 rrcurveto
          1296 hlineto
          12 0 12 -11 0 -13 rrcurveto
          -1 -6 rlineto
          -1 -7 -5 -7 -6 -5 rrcurveto
          -70 -58 rlineto
          -21 -18 -14 -21 -5 -24 rrcurveto
          -2 -18 rlineto
          0 -41 30 -31 43 0 rrcurveto
          endchar
        </CharString>
        <CharString name="right_arrow_double_long">
          0 383 1 rmoveto
          22 0 25 9 22 17 rrcurveto
          554 457 rlineto
          22 19 14 22 5 24 1 6 1 6 0 6 0 17 -6 16 -10 13 rrcurveto
          -359 458 rlineto
          -16 18 -20 8 -22 0 -49 0 -49 -40 -11 -50 -1 -6 -1 -6 0 -7 0 -16 5 -17 9 -12 rrcurveto
          44 -54 rlineto
          3 -4 1 -4 0 -4 rrcurveto
          -1 -9 rlineto
          -3 -15 -15 -13 -15 0 rrcurveto
          -2494 hlineto
          -48 0 -51 -39 -11 -51 rrcurveto
          -2 -17 rlineto
          0 -42 32 -31 41 0 rrcurveto
          2543 hlineto
          23 0 27 10 20 16 rrcurveto
          40 33 rlineto
          7 6 8 3 8 0 8 0 7 -3 5 -6 rrcurveto
          117 -149 rlineto
          4 -5 1 -5 0 -6 rrcurveto
          -5 vlineto
          -2 -8 -5 -8 -7 -6 rrcurveto
          -178 -146 rlineto
          -7 -6 -9 -3 -8 0 -8 0 -7 3 -5 6 rrcurveto
          -25 33 rlineto
          -14 18 -21 9 -24 0 rrcurveto
          -2544 hlineto
          -48 0 -51 -39 -10 -51 -1 -6 -1 -7 0 -6 0 -41 31 -30 41 0 rrcurveto
          2496 hlineto
          12 0 12 -11 0 -13 rrcurveto
          -1 -6 rlineto
          -1 -7 -5 -7 -6 -5 rrcurveto
          -70 -58 rlineto
          -21 -18 -14 -21 -5 -24 rrcurveto
          -2 -18 rlineto
          0 -41 30 -31 43 0 rrcurveto
          endchar
        </CharString>
        <CharString name="right_arrow_single">
          0 383 1 rmoveto
          22 0 22 6 24 19 rrcurveto
          555 457 rlineto
          21 18 14 24 5 23 1 7 1 6 0 6 0 16 -5 15 -10 14 rrcurveto
          -360 459 rlineto
          -14 17 -21 9 -22 0 -47 0 -51 -38 -11 -53 -1 -6 -1 -7 0 -6 0 -16 5 -16 9 -13 rrcurveto
          89 -113 rlineto
          4 -5 1 -6 0 -5 rrcurveto
          -5 vlineto
          -2 -8 -5 -9 -7 -5 rrcurveto
          -138 -114 rlineto
          -22 -18 -38 -14 -25 0 rrcurveto
          -1180 hlineto
          -50 0 -49 -41 -10 -49 -1 -7 -1 -6 0 -6 0 -41 30 -30 43 0 rrcurveto
          1180 hlineto
          25 0 32 -15 14 -17 rrcurveto
          89 -117 rlineto
          3 -5 2 -5 0 -5 rrcurveto
          -1 -7 rlineto
          -1 -8 -5 -9 -7 -5 rrcurveto
          -137 -113 rlineto
          -23 -19 -12 -22 -5 -22 -1 -7 -1 -7 0 -6 0 -41 29 -29 44 0 rrcurveto
          289 427 rmoveto
          -8 0 -7 2 -5 7 rrcurveto
          -71 88 rlineto
          -3 4 -2 5 0 5 rrcurveto
          1 8 rlineto
          2 8 4 7 8 6 rrcurveto
          107 89 rlineto
          7 6 9 3 8 0 8 0 8 -3 4 -6 rrcurveto
          70 -89 rlineto
          4 -5 2 -5 0 -5 rrcurveto
          -1 -6 rlineto
          -2 -8 -5 -8 -8 -6 rrcurveto
          -106 -88 rlineto
          -7 -6 -9 -3 -8 0 rrcurveto
          endchar
        </CharString>
        <CharString name="right_arrow_single_long">
          0 383 1 rmoveto
          22 0 22 6 24 19 rrcurveto
          555 457 rlineto
          21 18 14 24 5 23 1 7 1 6 0 6 0 16 -5 15 -10 14 rrcurveto
          -360 459 rlineto
          -14 17 -21 9 -22 0 -47 0 -51 -38 -11 -53 -1 -6 -1 -7 0 -6 0 -16 5 -16 9 -13 rrcurveto
          89 -113 rlineto
          4 -5 1 -6 0 -5 rrcurveto
          -5 vlineto
          -2 -8 -5 -9 -7 -5 rrcurveto
          -138 -114 rlineto
          -22 -18 -38 -14 -25 0 rrcurveto
          -2380 hlineto
          -50 0 -49 -41 -10 -49 -1 -7 -1 -6 0 -6 0 -41 30 -30 43 0 rrcurveto
          2380 hlineto
          25 0 32 -15 14 -17 rrcurveto
          89 -117 rlineto
          3 -5 2 -5 0 -5 rrcurveto
          -1 -7 rlineto
          -1 -8 -5 -9 -7 -5 rrcurveto
          -137 -113 rlineto
          -23 -19 -12 -22 -5 -22 -1 -7 -1 -7 0 -6 0 -41 29 -29 44 0 rrcurveto
          289 427 rmoveto
          -8 0 -7 2 -5 7 rrcurveto
          -71 88 rlineto
          -3 4 -2 5 0 5 rrcurveto
          1 8 rlineto
          2 8 4 7 8 6 rrcurveto
          107 89 rlineto
          7 6 9 3 8 0 8 0 8 -3 4 -6 rrcurveto
          70 -89 rlineto
          4 -5 2 -5 0 -5 rrcurveto
          -1 -6 rlineto
          -2 -8 -5 -8 -8 -6 rrcurveto
          -106 -88 rlineto
          -7 -6 -9 -3 -8 0 rrcurveto
          endchar
        </CharString>
        <CharString name="s">
          0 594 -30 rmoveto
          121 0 106 29 93 58 92 58 57 79 21 101 5 22 3 22 0 21 0 59 -22 49 -43 38 -56 51 -93 39 -130 28 -84 15 -56 18 -27 19 -26 19 -14 22 0 25 0 47 26 38 53 29 rrcurveto
          43 25 55 12 67 0 87 0 57 -24 27 -49 3 -5 1 -4 0 -4 0 -11 -12 -5 -23 0 -17 0 -18 2 -18 4 -28 0 -14 -17 0 -32 0 -35 48 -17 96 0 30 0 35 8 39 16 rrcurveto
          62 26 31 43 0 59 0 47 -23 46 -46 45 -63 63 -93 31 -124 0 -118 0 -103 -30 -87 -60 -115 -79 -57 -95 0 -112 0 -133 114 -90 227 -46 138 -25 68 -43 0 -62 0 -43 -25 -37 -51 -30 rrcurveto
          -45 -27 -60 -13 -74 0 -134 0 -72 41 -11 81 -14 46 -25 23 -36 0 -27 0 -25 -10 -22 -21 -32 -28 -16 -31 0 -36 0 -9 2 -10 2 -10 17 -66 39 -53 61 -41 61 -40 85 -21 107 0 rrcurveto
          endchar
        </CharString>
        <CharString name="section">
          0 488 -296 rmoveto
          142 0 116 27 90 55 90 55 57 81 23 109 5 21 2 21 0 20 0 126 -92 93 -185 61 -89 29 -66 29 -45 30 -45 30 -22 40 0 48 0 14 2 15 3 16 13 61 29 49 44 36 rrcurveto
          -37 9 -39 28 -41 46 -45 -37 -39 -48 -33 -58 -33 -57 -16 -63 0 -66 0 -69 22 -56 45 -44 45 -43 73 -40 100 -37 99 -29 68 -33 39 -35 27 -21 13 -29 0 -35 0 -10 -1 -12 -3 -12 rrcurveto
          -21 -99 -93 -52 -165 -4 -108 0 -73 10 -37 20 -18 10 -19 5 -21 0 -55 0 -34 -28 -12 -57 -1 -5 -1 -5 0 -5 0 -70 114 -35 228 0 rrcurveto
          524 641 rmoveto
          109 99 54 106 0 113 0 70 -24 57 -47 44 -39 43 -82 43 -125 45 -76 26 -51 25 -25 24 -26 25 -12 28 0 31 0 67 29 48 58 30 45 23 52 12 58 0 85 0 76 -12 65 -23 rrcurveto
          7 -3 8 -1 9 0 50 0 34 28 18 57 1 7 1 7 0 6 0 12 -2 11 -6 10 -9 15 -13 9 -17 5 -93 23 -90 11 -87 0 -130 0 -106 -29 -81 -57 -82 -58 -52 -78 -21 -99 rrcurveto
          -4 -20 -2 -19 0 -19 0 -49 14 -44 28 -41 rrcurveto
          19 -27 rlineto
          25 -33 45 -28 65 -25 rrcurveto
          90 -37 rlineto
          72 -27 56 -27 40 -28 40 -28 20 -36 0 -44 0 -14 -2 -14 -3 -16 -13 -60 -29 -49 -46 -38 54 -19 41 -25 27 -33 rrcurveto
          endchar
        </CharString>
        <CharString name="semicolon">
          0 283 -413 rmoveto
          150 15 125 59 101 101 101 101 50 117 0 132 0 58 -13 46 -28 35 -26 33 -35 16 -43 0 -59 0 -48 -22 -35 -43 -31 -34 -16 -39 0 -43 0 -33 12 -31 23 -29 23 -29 12 -30 0 -31 rrcurveto
          0 -45 -26 -40 -51 -35 -42 -29 -52 -18 -63 -8 -57 -7 -35 -32 -13 -57 rrcurveto
          -1 -13 rlineto
          0 -43 26 -22 51 0 rrcurveto
          481 1164 rmoveto
          43 0 41 16 38 32 50 42 25 52 0 61 0 29 -8 26 -17 23 -25 32 -34 16 -43 0 -46 0 -42 -16 -38 -32 -51 -42 -26 -51 0 -60 0 -30 9 -27 18 -23 25 -32 35 -16 46 0 rrcurveto
          endchar
        </CharString>
        <CharString name="seven">
          -10 425 -30 rmoveto
          37 0 33 19 28 38 rrcurveto
          460 688 rlineto
          109 hlineto
          51 0 32 7 13 15 13 14 6 16 0 18 0 16 -9 15 -17 14 -18 13 -28 7 -39 0 rrcurveto
          -23 hlineto
          228 341 rlineto
          9 13 7 19 5 25 3 13 2 15 0 16 0 31 -13 27 -25 24 -19 17 -28 9 -37 0 rrcurveto
          -702 hlineto
          -35 0 -27 -10 -20 -21 -21 -21 -10 -27 0 -32 0 -21 7 -17 15 -13 14 -14 17 -7 21 0 rrcurveto
          587 hlineto
          30 0 15 -6 0 -13 0 -6 -1 -4 -3 -3 rrcurveto
          -226 -335 rlineto
          -199 hlineto
          -25 0 -25 -6 -26 -12 -26 -13 -13 -18 0 -23 0 -22 9 -16 17 -10 17 -10 19 -5 22 0 rrcurveto
          139 hlineto
          -416 -618 rlineto
          -9 -18 -5 -19 0 -19 0 -21 7 -17 15 -13 14 -13 19 -7 25 0 rrcurveto
          endchar
        </CharString>
        <CharString name="six">
          0 655 154 rmoveto
          -63 0 -48 22 -32 45 -32 45 -16 60 0 75 0 85 19 98 38 109 110 25 84 13 59 0 55 -1 37 -2 21 -5 71 -14 36 -64 1 -113 0 -27 -4 -30 -8 -33 -19 -82 -37 -68 -55 -55 rrcurveto
          -56 -55 -72 -28 -89 0 rrcurveto
          -50 -184 rmoveto
          97 0 88 23 77 45 77 45 65 60 52 75 82 117 41 128 0 137 -5 186 -97 100 -191 15 -27 2 -28 1 -27 0 -62 0 -68 -7 -74 -14 94 165 119 118 143 71 52 27 54 21 56 13 rrcurveto
          60 14 39 16 19 17 18 17 9 16 0 16 0 5 -2 5 -4 5 -13 14 -17 7 -21 0 -219 -3 -190 -78 -163 -153 -108 -95 -86 -128 -64 -160 -27 -14 -25 -15 -21 -16 -79 -60 -40 -46 0 -31 rrcurveto
          0 -18 11 -9 22 0 22 0 34 9 43 19 -28 -107 -14 -100 0 -92 0 -242 109 -121 217 0 rrcurveto
          endchar
        </CharString>
        <CharString name="slash">
          0 198 -200 rmoveto
          33 0 39 21 21 33 rrcurveto
          1065 1623 rlineto
          8 11 5 14 3 12 1 6 1 6 0 6 0 26 -13 25 -25 12 -11 5 -12 3 -12 0 -34 0 -38 -21 -22 -32 rrcurveto
          -1065 -1623 rlineto
          -7 -12 -6 -13 -2 -11 rrcurveto
          -2 -17 rlineto
          0 -28 14 -26 24 -12 10 -5 13 -3 12 0 rrcurveto
          endchar
        </CharString>
        <CharString name="slash_asterisk">
          0 -802 -200 rmoveto
          33 0 39 21 21 33 rrcurveto
          1065 1623 rlineto
          8 11 5 14 3 12 1 6 1 6 0 6 0 26 -13 25 -25 12 -11 5 -12 3 -12 0 -34 0 -38 -21 -22 -32 rrcurveto
          -1065 -1623 rlineto
          -7 -12 -6 -13 -2 -11 rrcurveto
          -2 -17 rlineto
          0 -28 14 -26 24 -12 10 -5 13 -3 12 0 rrcurveto
          1525 781 rmoveto
          49 0 50 41 11 49 rrcurveto
          47 222 168 -111 rlineto
          12 -8 15 -3 15 0 51 0 49 41 10 48 1 6 1 7 0 6 0 24 -10 22 -21 13 rrcurveto
          -168 112 216 111 rlineto
          32 16 23 31 6 31 1 6 1 7 0 6 0 39 -30 31 -43 0 -15 0 -16 -3 -16 -8 rrcurveto
          -216 -111 48 222 2 18 rlineto
          0 41 -30 31 -43 0 -50 0 -49 -41 -10 -49 rrcurveto
          -48 -222 -169 111 rlineto
          -12 8 -14 3 -15 0 -50 0 -50 -41 -10 -48 -2 -7 0 -6 0 -7 0 -24 10 -21 20 -13 rrcurveto
          169 -111 -216 -111 rlineto
          -33 -17 -22 -31 -7 -31 rrcurveto
          -2 -17 rlineto
          0 -40 30 -32 44 0 15 0 16 3 15 8 rrcurveto
          217 111 -47 -222 rlineto
          -1 -7 -1 -6 0 -6 0 -40 29 -31 43 0 rrcurveto
          endchar
        </CharString>
        <CharString name="slash_asterisk_asterisk">
          0 523 581 rmoveto
          49 0 50 41 11 49 rrcurveto
          47 222 168 -111 rlineto
          12 -8 15 -3 15 0 51 0 49 41 10 48 1 6 1 7 0 6 0 24 -10 22 -21 13 rrcurveto
          -168 112 216 111 rlineto
          32 16 23 31 6 31 1 6 1 7 0 6 0 39 -30 31 -43 0 -15 0 -16 -3 -16 -8 rrcurveto
          -216 -111 48 222 2 18 rlineto
          0 41 -30 31 -43 0 -50 0 -49 -41 -10 -49 rrcurveto
          -48 -222 -169 111 rlineto
          -12 8 -14 3 -15 0 -50 0 -50 -41 -10 -48 -2 -7 0 -6 0 -7 0 -24 10 -21 20 -13 rrcurveto
          169 -111 -216 -111 rlineto
          -33 -17 -22 -31 -7 -31 rrcurveto
          -2 -17 rlineto
          0 -40 30 -32 44 0 15 0 16 3 15 8 rrcurveto
          217 111 -47 -222 rlineto
          -1 -7 -1 -6 0 -6 0 -40 29 -31 43 0 rrcurveto
          -1000 hmoveto
          49 0 50 41 11 49 rrcurveto
          47 222 168 -111 rlineto
          12 -8 15 -3 15 0 51 0 49 41 10 48 1 6 1 7 0 6 0 24 -10 22 -21 13 rrcurveto
          -168 112 216 111 rlineto
          32 16 23 31 6 31 1 6 1 7 0 6 0 39 -30 31 -43 0 -15 0 -16 -3 -16 -8 rrcurveto
          -216 -111 48 222 2 18 rlineto
          0 41 -30 31 -43 0 -50 0 -49 -41 -10 -49 rrcurveto
          -48 -222 -169 111 rlineto
          -12 8 -14 3 -15 0 -50 0 -50 -41 -10 -48 -2 -7 0 -6 0 -7 0 -24 10 -21 20 -13 rrcurveto
          169 -111 -216 -111 rlineto
          -33 -17 -22 -31 -7 -31 rrcurveto
          -2 -17 rlineto
          0 -40 30 -32 44 0 15 0 16 3 15 8 rrcurveto
          217 111 -47 -222 rlineto
          -1 -7 -1 -6 0 -6 0 -40 29 -31 43 0 rrcurveto
          -1525 -781 rmoveto
          33 0 39 21 21 33 rrcurveto
          1065 1623 rlineto
          8 11 5 14 3 12 1 6 1 6 0 6 0 26 -13 25 -25 12 -11 5 -12 3 -12 0 -34 0 -38 -21 -22 -32 rrcurveto
          -1065 -1623 rlineto
          -7 -12 -6 -13 -2 -11 rrcurveto
          -2 -17 rlineto
          0 -28 14 -26 24 -12 10 -5 13 -3 12 0 rrcurveto
          endchar
        </CharString>
        <CharString name="slash_greater">
          0 190 1171 rmoveto
          201 306 rlineto
          12 19 6 18 0 18 0 30 -13 21 -25 12 -11 5 -12 3 -12 0 -17 0 -17 -5 -17 -9 -17 -9 -15 -13 -11 -17 rrcurveto
          -1165 -1776 rlineto
          -12 -19 -6 -18 0 -17 0 -31 13 -21 26 -13 11 -5 12 -3 11 0 17 0 17 5 17 10 17 9 14 13 11 17 rrcurveto
          857 1305 730 -432 rlineto
          9 -5 4 -7 0 -7 rrcurveto
          -1 -5 rlineto
          -3 -11 -7 -9 -12 -6 rrcurveto
          -529 -254 rlineto
          -37 -19 -23 -27 -9 -37 rrcurveto
          -2 -17 rlineto
          0 -20 7 -17 14 -14 14 -15 17 -7 21 0 13 0 14 3 15 6 rrcurveto
          769 363 rlineto
          37 17 22 27 8 37 1 7 1 6 0 6 0 26 -12 21 -23 15 rrcurveto
          endchar
        </CharString>
        <CharString name="slash_slash">
          0 48 -200 rmoveto
          33 0 39 21 21 33 rrcurveto
          1065 1623 rlineto
          8 11 5 14 3 12 1 6 1 6 0 6 0 26 -13 25 -25 12 -11 5 -12 3 -12 0 -34 0 -38 -21 -22 -32 rrcurveto
          -1065 -1623 rlineto
          -7 -12 -6 -13 -2 -11 rrcurveto
          -2 -17 rlineto
          0 -28 14 -26 24 -12 10 -5 13 -3 12 0 rrcurveto
          -900 hmoveto
          33 0 39 21 21 33 rrcurveto
          1065 1623 rlineto
          8 11 5 14 3 12 1 6 1 6 0 6 0 26 -13 25 -25 12 -11 5 -12 3 -12 0 -34 0 -38 -21 -22 -32 rrcurveto
          -1065 -1623 rlineto
          -7 -12 -6 -13 -2 -11 rrcurveto
          -2 -17 rlineto
          0 -28 14 -26 24 -12 10 -5 13 -3 12 0 rrcurveto
          endchar
        </CharString>
        <CharString name="slash_slash_slash">
          0 -102 -200 rmoveto
          33 0 39 21 21 33 rrcurveto
          1065 1623 rlineto
          8 11 5 14 3 12 1 6 1 6 0 6 0 26 -13 25 -25 12 -11 5 -12 3 -12 0 -34 0 -38 -21 -22 -32 rrcurveto
          -1065 -1623 rlineto
          -7 -12 -6 -13 -2 -11 rrcurveto
          -2 -17 rlineto
          0 -28 14 -26 24 -12 10 -5 13 -3 12 0 rrcurveto
          -900 hmoveto
          33 0 39 21 21 33 rrcurveto
          1065 1623 rlineto
          8 11 5 14 3 12 1 6 1 6 0 6 0 26 -13 25 -25 12 -11 5 -12 3 -12 0 -34 0 -38 -21 -22 -32 rrcurveto
          -1065 -1623 rlineto
          -7 -12 -6 -13 -2 -11 rrcurveto
          -2 -17 rlineto
          0 -28 14 -26 24 -12 10 -5 13 -3 12 0 rrcurveto
          -900 hmoveto
          33 0 39 21 21 33 rrcurveto
          1065 1623 rlineto
          8 11 5 14 3 12 1 6 1 6 0 6 0 26 -13 25 -25 12 -11 5 -12 3 -12 0 -34 0 -38 -21 -22 -32 rrcurveto
          -1065 -1623 rlineto
          -7 -12 -6 -13 -2 -11 rrcurveto
          -2 -17 rlineto
          0 -28 14 -26 24 -12 10 -5 13 -3 12 0 rrcurveto
          endchar
        </CharString>
        <CharString name="space">
          0 endchar
        </CharString>
        <CharString name="t">
          0 580 -30 rmoveto
          85 0 76 23 67 45 67 45 84 76 99 108 9 10 5 14 0 18 0 14 -5 13 -11 11 -11 11 -15 6 -18 0 -17 0 -13 -5 -11 -10 -66 -64 -55 -46 -44 -28 -44 -28 -43 -14 -43 0 rrcurveto
          -42 0 -21 27 -1 53 0 33 15 75 29 118 rrcurveto
          82 345 rlineto
          7 31 19 15 31 0 rrcurveto
          279 hlineto
          27 0 24 9 22 17 29 24 14 30 0 36 0 15 -5 14 -9 12 -14 18 -20 9 -25 0 rrcurveto
          -279 hlineto
          -27 0 -13 10 0 20 0 4 6 27 12 50 19 81 9 44 1 7 0 17 -5 15 -11 12 -14 16 -19 8 -24 0 -24 0 -23 -9 -22 -17 -22 -17 -14 -22 -6 -27 rrcurveto
          -42 -175 rlineto
          -7 -29 -17 -15 -29 0 rrcurveto
          -160 hlineto
          -25 0 -24 -9 -23 -18 -30 -24 -15 -30 0 -35 0 -16 5 -14 10 -12 13 -17 20 -9 25 0 rrcurveto
          161 hlineto
          24 0 12 -10 0 -21 0 -3 -27 -120 -55 -237 -35 -149 -18 -111 0 -75 0 -113 52 -57 104 0 rrcurveto
          endchar
        </CharString>
        <CharString name="tag_todo">
          0 114 -270 rmoveto
          198 98 149 102 99 108 173 191 113 217 51 243 rrcurveto
          10 46 rlineto
          49 228 -22 209 -92 191 -70 141 -105 103 -141 65 rrcurveto
          -5487 -2 rlineto
          -26 0 -24 -9 -22 -18 -23 -19 -13 -22 -6 -25 rrcurveto
          -373 -1754 rlineto
          -5 -25 5 -22 14 -18 14 -19 21 -9 26 0 rrcurveto
          1081 215 rmoveto
          -59 0 -44 56 13 59 rrcurveto
          237 1117 rlineto
          4 16 -2 2 -16 0 rrcurveto
          -247 hlineto
          -59 0 -45 54 13 60 13 60 67 56 60 0 rrcurveto
          760 hlineto
          60 0 43 -56 -12 -60 -13 -60 -67 -54 -60 0 rrcurveto
          -247 hlineto
          -14 0 -5 -4 -3 -14 rrcurveto
          -237 -1117 rlineto
          -13 -59 -67 -56 -60 0 rrcurveto
          1170 hmoveto
          -415 0 27 452 64 303 64 304 172 451 410 0 411 0 -23 -450 -65 -305 -64 -305 -166 -450 -415 0 rrcurveto
          49 230 rmoveto
          210 0 109 300 48 225 48 226 18 299 -209 0 -210 0 -108 -292 -49 -233 -50 -232 -17 -293 210 0 rrcurveto
          2491 -230 rmoveto
          -415 0 27 452 64 303 64 304 172 451 410 0 411 0 -23 -450 -65 -305 -64 -305 -166 -450 -415 0 rrcurveto
          49 230 rmoveto
          210 0 109 300 48 225 48 226 18 299 -209 0 -210 0 -108 -292 -49 -233 -50 -232 -17 -293 210 0 rrcurveto
          -1418 30 rmoveto
          302 0 142 121 69 326 46 215 26 158 -63 79 -70 90 -120 0 -154 0 -14 0 -5 -4 -3 -13 rrcurveto
          -202 -954 rlineto
          -3 -14 3 -4 13 0 rrcurveto
          -16 -230 rmoveto
          -162 hlineto
          -61 0 -45 57 13 62 rrcurveto
          258 1212 rlineto
          13 62 69 57 62 0 rrcurveto
          200 hlineto
          401 0 167 -196 -94 -441 rrcurveto
          -29 -136 rlineto
          -102 -482 -250 -195 -440 0 rrcurveto
          endchar
        </CharString>
        <CharString name="three">
          0 605 -30 rmoveto
          163 0 132 61 100 121 52 62 38 84 23 105 6 25 2 23 0 22 0 123 -48 82 -98 43 -14 7 -7 10 0 14 0 17 9 15 18 11 151 93 75 121 0 152 0 70 -23 58 -45 45 rrcurveto
          -64 64 -101 32 -139 0 -81 -2 -71 -19 -63 -38 -90 -56 -44 -60 0 -65 0 -34 22 -17 44 0 23 0 28 17 31 34 40 44 61 22 82 0 131 0 66 -52 0 -104 0 -77 -49 -71 -99 -65 rrcurveto
          -60 -39 -88 -20 -115 0 -23 0 -19 -6 -17 -13 -26 -20 -13 -28 0 -36 0 -16 4 -13 8 -10 11 -16 17 -7 21 0 236 0 118 -67 0 -132 0 -16 -2 -15 -3 -16 -43 -176 -110 -89 -175 -2 rrcurveto
          -137 1 -94 44 -54 87 -22 37 -20 18 -18 0 -26 0 -13 -25 0 -51 0 -30 3 -22 7 -14 68 -147 122 -75 174 -3 rrcurveto
          endchar
        </CharString>
        <CharString name="two">
          0 359 120 rmoveto
          -53 0 -27 15 0 32 0 66 27 33 55 0 26 0 43 -24 61 -48 -63 -50 -44 -24 -25 0 rrcurveto
          -20 -150 rmoveto
          108 0 93 39 78 80 91 -64 80 -32 69 0 108 1 81 24 53 47 47 43 32 57 18 70 2 5 0 6 0 6 0 35 -15 18 -30 0 -16 0 -22 -17 -26 -34 -26 -33 -24 -23 -23 -12 rrcurveto
          -23 -12 -31 -5 -41 0 -50 0 -61 18 -72 36 42 34 28 24 14 14 216 217 113 251 12 284 rrcurveto
          2 79 rlineto
          0 115 -34 82 -67 49 -52 38 -68 19 -83 0 -127 0 -105 -35 -82 -69 -72 -61 -35 -59 0 -57 0 -43 19 -21 37 0 46 0 38 21 32 42 32 42 33 28 34 15 34 14 28 7 22 0 rrcurveto
          122 0 61 -69 0 -137 -10 -284 -129 -238 -245 -193 -76 63 -74 31 -73 0 -72 0 -64 -24 -55 -48 -54 -48 -28 -65 0 -82 0 -57 23 -46 46 -35 45 -34 57 -17 69 0 rrcurveto
          endchar
        </CharString>
        <CharString name="u">
          0 1033 -30 rmoveto
          45 0 40 10 36 20 43 25 22 22 0 21 0 15 -4 11 -9 8 -9 8 -12 4 -14 0 -11 0 -11 -5 -13 -10 -13 -10 -14 -5 -13 0 -35 0 -18 24 0 49 0 10 2 14 3 17 rrcurveto
          113 535 57 271 0 7 0 17 -5 15 -9 12 -13 17 -21 8 -27 0 -29 0 -23 -8 -19 -17 -19 -17 -12 -23 -6 -29 rrcurveto
          -117 -547 rlineto
          -19 -89 -51 -70 -83 -51 -69 -39 -64 -20 -61 -1 -119 0 -59 55 0 110 0 25 3 27 6 31 83 388 41 198 0 8 0 17 -5 15 -9 12 -13 17 -21 8 -27 0 -29 0 -23 -8 -18 -17 rrcurveto
          -19 -17 -12 -23 -6 -29 rrcurveto
          -124 -580 rlineto
          -13 -63 -7 -56 0 -49 0 -72 15 -56 29 -41 45 -65 87 -33 128 0 97 1 107 51 115 100 10 8 8 4 5 0 13 0 7 -8 2 -16 1 -15 1 -13 0 -11 0 -21 7 -19 15 -18 rrcurveto
          14 -18 17 -12 19 -5 19 -6 31 -3 41 0 rrcurveto
          endchar
        </CharString>
        <CharString name="underscore">
          0 841 -370 rmoveto
          50 0 49 41 10 49 1 7 1 6 0 6 0 40 -30 31 -43 0 rrcurveto
          -639 hlineto
          -50 0 -49 -41 -10 -49 -1 -7 -1 -6 0 -6 0 -40 30 -31 43 0 rrcurveto
          endchar
        </CharString>
        <CharString name="v">
          0 587 -30 rmoveto
          56 1 47 30 37 57 328 481 164 292 0 101 0 24 -3 17 -5 10 -34 65 -73 32 -113 0 -85 0 -42 -22 0 -44 0 -37 19 -18 39 0 rrcurveto
          71 hlineto
          27 -1 14 -8 0 -16 0 -85 -120 -219 -241 -353 -9 -12 -10 -6 -11 0 -13 0 -7 5 -1 11 rrcurveto
          -99 745 rlineto
          -6 40 -25 20 -43 0 -27 0 -23 -8 -19 -17 -28 -25 -14 -25 0 -24 rrcurveto
          136 -921 rlineto
          10 -60 38 -30 65 0 rrcurveto
          endchar
        </CharString>
        <CharString name="w">
          0 823 -30 rmoveto
          34 0 29 11 24 23 24 22 17 26 10 30 173 478 87 293 0 108 -2 80 -76 39 -152 0 -72 0 -36 -22 0 -44 0 -37 25 -18 49 0 21 0 26 -1 31 -3 20 -1 10 -10 0 -18 rrcurveto
          0 -64 -52 -184 -104 -304 -13 -40 -13 -20 -11 0 -15 0 -8 16 -3 32 rrcurveto
          -25 349 rlineto
          -3 45 -23 22 -44 0 -43 0 -31 -22 -20 -43 rrcurveto
          -154 -339 rlineto
          -14 -34 -14 -17 -13 0 -13 0 -6 13 0 26 rrcurveto
          80 652 rlineto
          0 44 -24 22 -47 0 -22 0 -21 -6 -20 -12 -20 -13 -11 -19 -3 -26 rrcurveto
          -98 -944 rlineto
          0 -23 7 -21 14 -18 14 -19 21 -9 28 0 67 0 46 28 26 54 rrcurveto
          169 373 rlineto
          9 22 13 11 15 0 15 0 8 -10 1 -19 rrcurveto
          15 -373 rlineto
          2 -27 9 -21 19 -15 18 -15 23 -8 27 0 rrcurveto
          endchar
        </CharString>
        <CharString name="x">
          0 912 -30 rmoveto
          41 0 32 6 23 10 63 27 55 56 48 85 3 4 1 7 0 10 0 10 -2 9 -4 7 -10 21 -15 10 -20 0 -21 0 -16 -10 -12 -20 -31 -53 -30 -27 -30 0 -28 0 -20 21 -13 42 rrcurveto
          -61 191 -30 101 0 10 0 21 5 16 10 12 rrcurveto
          341 373 rlineto
          28 29 13 30 0 30 0 20 -5 17 -12 14 -17 21 -23 10 -28 0 -37 0 -30 -14 -25 -29 rrcurveto
          -273 -300 rlineto
          -4 -4 -5 -2 -6 0 -5 0 -4 4 -2 7 rrcurveto
          -54 194 rlineto
          -6 25 -13 24 -17 23 -18 23 -23 19 -30 13 -29 13 -31 6 -34 0 -25 0 -24 -5 -21 -10 -62 -32 -53 -52 -42 -74 -7 -13 -4 -13 0 -13 0 -11 4 -10 8 -9 12 -13 13 -6 14 0 rrcurveto
          21 0 16 9 12 18 36 57 31 29 26 0 26 0 16 -9 5 -16 69 -198 35 -103 0 -8 0 -20 -6 -17 -12 -13 rrcurveto
          -376 -412 rlineto
          -26 -27 -13 -26 0 -25 0 -25 5 -19 10 -14 16 -21 23 -11 30 0 38 0 32 15 25 28 rrcurveto
          308 346 rlineto
          4 4 3 2 5 0 6 0 4 -4 2 -8 rrcurveto
          78 -293 rlineto
          17 -60 49 -30 83 0 rrcurveto
          endchar
        </CharString>
        <CharString name="x_center">
          0 978 299 rmoveto
          25 0 21 9 20 16 22 18 12 21 5 25 2 7 1 7 0 7 0 17 -6 14 -9 12 rrcurveto
          -195 248 300 247 rlineto
          21 18 14 21 5 25 1 7 1 6 0 7 0 16 -5 15 -10 13 -14 17 -19 9 -25 0 -25 0 -23 -9 -22 -17 rrcurveto
          -299 -248 -196 248 rlineto
          -13 17 -19 9 -25 0 -25 0 -23 -9 -22 -17 -20 -18 -14 -21 -5 -25 -1 -7 -1 -7 0 -6 0 -16 5 -15 9 -13 rrcurveto
          196 -247 -301 -248 rlineto
          -21 -17 -13 -21 -5 -25 -2 -7 -1 -7 0 -6 0 -17 6 -14 9 -13 14 -17 20 -9 25 0 25 0 22 9 21 17 rrcurveto
          301 248 194 -248 rlineto
          15 -19 20 -7 27 0 rrcurveto
          endchar
        </CharString>
        <CharString name="xml_comment_begin">
          0 1038 460 rmoveto
          25 0 23 9 21 18 28 23 14 28 0 32 0 16 -5 15 -10 13 -14 17 -19 9 -25 0 rrcurveto
          -2440 hlineto
          -38 -180 rlineto
          -1381 -459 rmoveto
          25 0 24 9 21 17 27 23 14 27 0 32 0 15 -5 15 -9 15 rrcurveto
          -89 113 rlineto
          -4 5 -1 6 0 6 0 9 4 9 10 9 rrcurveto
          138 117 rlineto
          11 9 14 7 17 7 17 6 14 3 12 0 rrcurveto
          541 hlineto
          38 180 rlineto
          -540 hlineto
          -13 0 -13 3 -13 7 -14 6 -11 7 -7 9 rrcurveto
          -90 114 rlineto
          -3 5 -2 5 0 5 0 10 5 10 9 8 rrcurveto
          137 113 rlineto
          28 26 14 28 0 30 0 18 -5 15 -11 13 -15 17 -19 8 -23 0 -22 0 -23 -9 -23 -17 rrcurveto
          -555 -459 rlineto
          -28 -24 -15 -27 0 -30 0 -16 6 -16 10 -16 rrcurveto
          360 -457 rlineto
          16 -17 19 -8 22 0 rrcurveto
          -107 427 rmoveto
          -8 0 -7 3 -5 6 rrcurveto
          -69 88 rlineto
          -4 5 -2 6 0 6 0 10 5 8 10 8 rrcurveto
          107 89 rlineto
          8 6 8 3 8 0 8 0 7 -3 5 -6 rrcurveto
          70 -89 rlineto
          3 -4 2 -5 0 -5 0 -11 -5 -10 -9 -8 rrcurveto
          -108 -88 rlineto
          -8 -6 -8 -3 -8 0 rrcurveto
          1088 -458 rmoveto
          43 0 41 16 38 33 49 42 25 52 0 60 0 30 -8 26 -17 23 -24 32 -34 16 -43 0 -47 0 -42 -16 -38 -32 -51 -43 -26 -51 0 -59 0 -30 9 -27 18 -23 25 -33 35 -16 47 0 rrcurveto
          102 499 rmoveto
          21 0 21 8 19 15 19 15 12 19 7 23 132 543 66 276 0 8 0 20 -6 17 -12 16 -17 21 -22 11 -29 0 -29 0 -28 -11 -25 -21 -26 -22 -16 -25 -6 -29 -98 -541 -49 -273 0 -5 rrcurveto
          0 -16 5 -14 10 -12 13 -15 17 -8 21 0 rrcurveto
          endchar
        </CharString>
        <CharString name="xml_comment_empty">
          0 -2890 428 rmoveto
          -8 0 -7 3 -5 6 rrcurveto
          -69 88 rlineto
          -6 7 -1 7 1 8 2 8 5 7 8 6 rrcurveto
          107 89 rlineto
          8 6 8 3 8 0 8 0 6 -3 6 -6 rrcurveto
          70 -89 rlineto
          4 -6 2 -7 -2 -8 -1 -8 -5 -7 -7 -7 rrcurveto
          -108 -88 rlineto
          -8 -6 -8 -3 -8 0 rrcurveto
          4388 32 rmoveto
          -5 0 -10 7 -14 15 -15 14 -4 23 7 31 7 31 13 23 21 15 21 14 12 7 5 0 rrcurveto
          -2900 hlineto
          -38 -180 rlineto
          -298 9 rmoveto
          21 0 20 8 20 15 19 15 13 19 6 23 rrcurveto
          196 805 rlineto
          6 29 -5 25 -17 21 -17 21 -23 11 -28 0 -30 0 -27 -11 -26 -21 -25 -22 -16 -25 -6 -29 rrcurveto
          -146 -804 rlineto
          -4 -23 5 -19 13 -15 12 -15 17 -8 22 0 rrcurveto
          -102 -499 rmoveto
          43 0 41 16 37 33 38 32 24 38 9 45 10 46 -7 39 -24 33 -24 32 -34 16 -43 0 -47 0 -42 -16 -39 -32 -38 -33 -24 -39 -10 -46 -9 -45 7 -38 25 -32 24 -33 36 -16 47 0 rrcurveto
          -200 490 rmoveto
          38 180 rlineto
          -540 hlineto
          -13 0 -13 3 -13 7 -14 6 -11 7 -7 9 rrcurveto
          -90 114 rlineto
          -5 7 -1 7 2 8 1 7 5 7 7 7 rrcurveto
          137 113 rlineto
          22 20 13 21 5 23 6 27 -5 22 -15 17 -14 17 -19 8 -24 0 -22 0 -23 -9 -23 -17 rrcurveto
          -555 -459 rlineto
          -22 -19 -13 -21 -6 -24 -4 -23 4 -21 14 -21 rrcurveto
          360 -457 rlineto
          16 -17 19 -8 22 0 26 0 23 9 21 17 21 17 13 22 5 25 5 22 -4 21 -13 20 rrcurveto
          -89 113 rlineto
          -5 7 -1 7 1 8 2 8 5 7 7 7 rrcurveto
          138 117 rlineto
          11 9 14 7 17 7 16 6 15 3 12 0 rrcurveto
          endchar
        </CharString>
        <CharString name="y">
          0 423 -480 rmoveto
          129 0 114 39 100 78 99 78 67 107 33 135 161 694 81 352 0 9 0 45 -23 23 -45 0 -26 0 -25 -10 -23 -20 -23 -20 -15 -24 -7 -27 rrcurveto
          -131 -572 rlineto
          -10 -44 -44 -55 -78 -65 -75 -61 -69 -31 -63 -1 -74 0 -37 47 0 95 0 34 50 238 100 441 4 17 2 11 0 4 0 27 -25 15 -49 1 -26 0 -25 -10 -23 -20 -24 -20 -15 -24 -6 -27 rrcurveto
          -141 -603 rlineto
          -11 -53 -6 -51 0 -48 0 -169 77 -85 153 0 111 1 102 39 95 75 30 25 20 12 9 0 9 0 4 -6 0 -11 -11 -71 -27 -72 -42 -71 -75 -131 -105 -66 -134 0 -56 0 -43 9 -29 18 rrcurveto
          -30 18 -29 30 -27 42 -12 15 -18 8 -23 0 -33 0 -26 -10 -20 -20 -20 -20 -10 -25 0 -30 0 -19 4 -14 8 -10 79 -111 109 -55 139 0 rrcurveto
          endchar
        </CharString>
        <CharString name="z">
          0 926 hmoveto
          26 0 23 8 20 15 31 25 15 35 0 46 0 45 -9 40 -18 34 -36 69 -30 34 -22 0 -30 0 -15 -14 0 -27 0 -9 5 -12 9 -16 24 -31 11 -23 0 -17 0 -15 -6 -7 -11 0 rrcurveto
          -386 hlineto
          -23 0 -11 11 0 22 0 15 6 13 10 10 rrcurveto
          659 601 rlineto
          35 32 18 31 0 30 0 26 -7 22 -13 18 -21 26 -28 13 -37 0 rrcurveto
          -661 hlineto
          -79 0 -40 -43 0 -85 0 -31 9 -33 17 -35 33 -73 28 -37 20 0 11 0 10 5 10 8 9 8 5 10 0 10 0 12 -4 12 -9 13 -15 20 -7 18 0 16 0 15 6 7 12 0 rrcurveto
          402 hlineto
          22 0 11 -11 0 -22 0 -13 -6 -12 -12 -10 rrcurveto
          -657 -581 rlineto
          -35 -33 -18 -38 0 -42 0 -24 8 -22 14 -20 21 -26 28 -13 37 0 rrcurveto
          endchar
        </CharString>
        <CharString name="zero">
          0 581 -30 rmoveto
          137 0 119 59 103 118 170 193 97 330 22 276 89 42 61 31 0 41 0 23 -25 12 -30 0 -30 0 -31 -2 -32 -4 -13 234 -106 107 -199 0 -137 0 -121 -49 -105 -118 -177 -204 -112 -408 0 -283 rrcurveto
          0 -266 107 -132 213 0 rrcurveto
          49 181 rmoveto
          -119 0 -47 74 0 72 0 170 212 189 366 197 -68 -462 -154 -240 -190 0 rrcurveto
          -170 492 rmoveto
          14 76 rlineto
          91 353 134 177 163 0 132 0 50 -64 10 -139 -221 -79 -241 -178 -132 -146 rrcurveto
          endchar
        </CharString>
</ttFont>
